<?xml version="1.0" encoding="UTF-8"?>
<svg version="1.1" xmlns="http://www.w3.org/2000/svg" width="167" height="84">
<path d="M0 0 C55.11 0 110.22 0 167 0 C167 27.72 167 55.44 167 84 C111.89 84 56.78 84 0 84 C0 56.28 0 28.56 0 0 Z " fill="#FEFEFE" transform="translate(0,0)"/>
<path d="M0 0 C0.95648438 -0.01675781 1.91296875 -0.03351562 2.8984375 -0.05078125 C5.98493828 0.36045739 7.33683974 1.25749351 9.625 3.3125 C10.285 2.3225 10.945 1.3325 11.625 0.3125 C14.5234375 -0.0859375 14.5234375 -0.0859375 18 -0.0625 C19.14210937 -0.07023437 20.28421875 -0.07796875 21.4609375 -0.0859375 C24.88386759 0.34509814 26.03982288 1.1600838 28.625 3.3125 C29.615 3.3125 30.605 3.3125 31.625 3.3125 C31.625 4.3025 31.625 5.2925 31.625 6.3125 C35.585 6.3125 39.545 6.3125 43.625 6.3125 C43.13 4.3325 43.13 4.3325 42.625 2.3125 C39.655 2.3125 36.685 2.3125 33.625 2.3125 C33.625 1.9825 33.625 1.6525 33.625 1.3125 C35.43742052 1.28562721 37.24995233 1.26616285 39.0625 1.25 C40.07183594 1.23839844 41.08117187 1.22679687 42.12109375 1.21484375 C44.625 1.3125 44.625 1.3125 45.625 2.3125 C45.625 4.2925 45.625 6.2725 45.625 8.3125 C41.005 8.3125 36.385 8.3125 31.625 8.3125 C32.285 9.3025 32.945 10.2925 33.625 11.3125 C36.52108399 11.67748034 36.52108399 11.67748034 39.75 11.5 C40.84570312 11.47292969 41.94140625 11.44585937 43.0703125 11.41796875 C44.33488281 11.36576172 44.33488281 11.36576172 45.625 11.3125 C43.625 14.3125 43.625 14.3125 40.625 15.3125 C39.06381572 15.37990865 37.4999748 15.39764456 35.9375 15.375 C34.72513672 15.36146484 34.72513672 15.36146484 33.48828125 15.34765625 C32.56595703 15.33025391 32.56595703 15.33025391 31.625 15.3125 C32.12 18.7775 32.12 18.7775 32.625 22.3125 C31.635 22.3125 30.645 22.3125 29.625 22.3125 C29.625 21.6525 29.625 20.9925 29.625 20.3125 C28.965 20.3125 28.305 20.3125 27.625 20.3125 C27.295 20.9725 26.965 21.6325 26.625 22.3125 C25.965 22.3125 25.305 22.3125 24.625 22.3125 C24.625 21.6525 24.625 20.9925 24.625 20.3125 C23.965 20.3125 23.305 20.3125 22.625 20.3125 C22.625 21.6325 22.625 22.9525 22.625 24.3125 C22.03332031 24.15652344 21.44164062 24.00054687 20.83203125 23.83984375 C16.40069389 22.74827451 13.09455827 21.98371241 8.625 23.3125 C2.87852113 24.43926056 2.87852113 24.43926056 0.625 23.3125 C0.625 24.3025 0.625 25.2925 0.625 26.3125 C-2.75 26.4375 -2.75 26.4375 -6.375 26.3125 C-7.035 25.6525 -7.695 24.9925 -8.375 24.3125 C-11.45847826 24.14568891 -11.45847826 24.14568891 -14.375 24.3125 C-14.705 22.6625 -15.035 21.0125 -15.375 19.3125 C-9.625 18.1875 -9.625 18.1875 -7.375 19.3125 C-5.36699544 19.03137936 -3.36485949 18.70182033 -1.375 18.3125 C-1.045 19.3025 -0.715 20.2925 -0.375 21.3125 C-0.045 19.9925 0.285 18.6725 0.625 17.3125 C4.09 16.8175 4.09 16.8175 7.625 16.3125 C6.87734375 16.27511719 6.1296875 16.23773438 5.359375 16.19921875 C3.88210937 16.10060547 3.88210937 16.10060547 2.375 16 C1.40046875 15.94199219 0.4259375 15.88398437 -0.578125 15.82421875 C-3.72645435 15.2481976 -5.1864331 14.64491637 -7.375 12.3125 C-7.8359375 9.90234375 -7.8359375 9.90234375 -7.75 7.25 C-7.73710938 6.37214844 -7.72421875 5.49429688 -7.7109375 4.58984375 C-7.00789717 -0.1761157 -4.14927242 0.01668608 0 0 Z " fill="#EFE0E1" transform="translate(102.375,37.6875)"/>
<path d="M0 0 C0.99 0 1.98 0 3 0 C3 2.31 3 4.62 3 7 C4.01320313 6.94779297 4.01320313 6.94779297 5.046875 6.89453125 C5.93890625 6.86746094 6.8309375 6.84039062 7.75 6.8125 C9.07257813 6.76029297 9.07257813 6.76029297 10.421875 6.70703125 C13.44671583 7.05076316 14.75583602 8.00227459 17 10 C17.33 9.01 17.66 8.02 18 7 C19.98 7 21.96 7 24 7 C24.144375 6.195625 24.28875 5.39125 24.4375 4.5625 C25 2 25 2 26 1 C27.99958364 0.95919217 30.00045254 0.95745644 32 1 C29 3 29 3 27 3 C27 4.32 27 5.64 27 7 C28.65 7 30.3 7 32 7 C31.67 7.66 31.34 8.32 31 9 C29.68 9 28.36 9 27 9 C27 12.96 27 16.92 27 21 C26.01 21 25.02 21 24 21 C24 17.37 24 13.74 24 10 C23.34 10 22.68 10 22 10 C22 13.96 22 17.92 22 22 C16.7826087 24.08695652 16.7826087 24.08695652 12 23 C9.6910712 22.9592062 7.39422506 22.99947508 5.0859375 23.0625 C3 23 3 23 0 22 C0 14.74 0 7.48 0 0 Z " fill="#2062AD" transform="translate(63,31)"/>
<path d="M0 0 C0.9590625 -0.00773437 1.918125 -0.01546875 2.90625 -0.0234375 C5.5 0.375 5.5 0.375 7.32421875 1.61328125 C8.82308483 3.85909057 8.86996289 5.25442506 8.8125 7.9375 C8.80863281 8.72253906 8.80476563 9.50757813 8.80078125 10.31640625 C8.5 12.375 8.5 12.375 6.5 14.375 C3.53125 14.67578125 3.53125 14.67578125 0 14.6875 C-1.74796875 14.71263672 -1.74796875 14.71263672 -3.53125 14.73828125 C-4.5109375 14.61839844 -5.490625 14.49851562 -6.5 14.375 C-8.47944936 11.40582597 -8.79350581 10.71797721 -8.8125 7.375 C-8.82925781 6.694375 -8.84601562 6.01375 -8.86328125 5.3125 C-7.92633812 0.31547 -4.5262323 -0.03650187 0 0 Z " fill="#185DAB" transform="translate(52.5,37.625)"/>
<path d="M0 0 C0.95648438 -0.01675781 1.91296875 -0.03351562 2.8984375 -0.05078125 C6.04414099 0.36834543 7.4046598 1.06628171 9.625 3.3125 C10.08077138 6.89356086 10.16481182 9.27877872 8.4765625 12.51171875 C6.625 14.3125 6.625 14.3125 3.77734375 14.7734375 C2.18599609 14.73089844 2.18599609 14.73089844 0.5625 14.6875 C-1.03271484 14.66816406 -1.03271484 14.66816406 -2.66015625 14.6484375 C-5.375 14.3125 -5.375 14.3125 -7.375 12.3125 C-7.640625 10 -7.640625 10 -7.625 7.3125 C-7.63015625 6.425625 -7.6353125 5.53875 -7.640625 4.625 C-7.08728665 -0.19229862 -4.13699105 0.01663669 0 0 Z " fill="#E81219" transform="translate(102.375,37.6875)"/>
<path d="M0 0 C3 1 3 1 6 3 C5.67644531 3.55429687 5.35289063 4.10859375 5.01953125 4.6796875 C3.85665247 7.32623921 3.70039691 9.24468929 3.6875 12.125 C3.67074219 12.99382813 3.65398437 13.86265625 3.63671875 14.7578125 C3.75660156 15.49773438 3.87648438 16.23765625 4 17 C7.90970072 19.60646715 10.99950297 19.41467207 15.6015625 19.65625 C16.78878906 19.82640625 16.78878906 19.82640625 18 20 C18.33 20.66 18.66 21.32 19 22 C16.36 22 13.72 22 11 22 C10.67 23.65 10.34 25.3 10 27 C9.01 26.34 8.02 25.68 7 25 C5.33382885 24.95936168 3.66611905 24.957279 2 25 C1.34 24.67 0.68 24.34 0 24 C-1.66619446 23.9603287 -3.33391013 23.95615553 -5 24 C-5 22.68 -5 21.36 -5 20 C-4.01 19.67 -3.02 19.34 -2 19 C-2 15.04 -2 11.08 -2 7 C-0.68 6.67 0.64 6.34 2 6 C0.68 5.67 -0.64 5.34 -2 5 C-2 3.68 -2 2.36 -2 1 C-1.34 0.67 -0.68 0.34 0 0 Z " fill="#F7F2F1" transform="translate(92,33)"/>
<path d="M0 0 C1.4540625 0.0309375 1.4540625 0.0309375 2.9375 0.0625 C-0.0625 2.0625 -0.0625 2.0625 -2.0625 2.0625 C-2.0625 3.3825 -2.0625 4.7025 -2.0625 6.0625 C-0.4125 6.0625 1.2375 6.0625 2.9375 6.0625 C2.6075 6.7225 2.2775 7.3825 1.9375 8.0625 C0.6175 8.0625 -0.7025 8.0625 -2.0625 8.0625 C-2.0625 12.0225 -2.0625 15.9825 -2.0625 20.0625 C-3.0525 20.0625 -4.0425 20.0625 -5.0625 20.0625 C-5.0625 16.4325 -5.0625 12.8025 -5.0625 9.0625 C-5.7225 9.0625 -6.3825 9.0625 -7.0625 9.0625 C-7.0625 13.0225 -7.0625 16.9825 -7.0625 21.0625 C-12.2798913 23.14945652 -12.2798913 23.14945652 -17.0625 22.0625 C-19.37208027 22.05841947 -21.66915968 22.12421756 -23.9765625 22.22265625 C-26.0625 22.0625 -26.0625 22.0625 -29.0625 20.0625 C-28.15886719 20.02511719 -27.25523438 19.98773438 -26.32421875 19.94921875 C-25.14472656 19.88347656 -23.96523437 19.81773438 -22.75 19.75 C-21.57824219 19.69199219 -20.40648438 19.63398437 -19.19921875 19.57421875 C-15.87573861 19.03203208 -15.13075268 18.55912864 -13.0625 16.0625 C-12.4025 16.0625 -11.7425 16.0625 -11.0625 16.0625 C-11.0625 12.7625 -11.0625 9.4625 -11.0625 6.0625 C-9.0825 6.0625 -7.1025 6.0625 -5.0625 6.0625 C-4.918125 5.258125 -4.77375 4.45375 -4.625 3.625 C-3.8465 0.0785 -3.8465 0.0785 0 0 Z " fill="#88ADD2" transform="translate(92.0625,31.9375)"/>
<path d="M0 0 C2.27057377 -0.05398987 4.54151288 -0.09278742 6.8125 -0.125 C8.07707031 -0.14820313 9.34164062 -0.17140625 10.64453125 -0.1953125 C14 0 14 0 17 2 C16.67 3.32 16.34 4.64 16 6 C15.34 6 14.68 6 14 6 C14.33 6.66 14.66 7.32 15 8 C15.039992 9.99960012 15.04346799 12.00047242 15 14 C9.97703996 15.13016601 6.02125926 14.77916092 1 14 C0.67 11.69 0.34 9.38 0 7 C0.85464844 6.86722656 1.70929688 6.73445313 2.58984375 6.59765625 C3.69457031 6.42105469 4.79929688 6.24445312 5.9375 6.0625 C7.03964844 5.88847656 8.14179688 5.71445312 9.27734375 5.53515625 C11.90426929 5.28154864 11.90426929 5.28154864 13 4 C9.37 4 5.74 4 2 4 C1.34 2.68 0.68 1.36 0 0 Z " fill="#FBFBFA" transform="translate(134,46)"/>
<path d="M0 0 C1.0621875 -0.020625 2.124375 -0.04125 3.21875 -0.0625 C4.23195313 -0.06765625 5.24515625 -0.0728125 6.2890625 -0.078125 C7.6805249 -0.09214355 7.6805249 -0.09214355 9.10009766 -0.10644531 C10.22617432 0.06999512 10.22617432 0.06999512 11.375 0.25 C13.65562828 3.67094242 13.59425007 4.93187222 13.5 8.9375 C13.48195313 9.93136719 13.46390625 10.92523438 13.4453125 11.94921875 C13.42210938 12.70847656 13.39890625 13.46773437 13.375 14.25 C12.385 14.25 11.395 14.25 10.375 14.25 C10.375 10.62 10.375 6.99 10.375 3.25 C7.075 3.25 3.775 3.25 0.375 3.25 C0.375 6.88 0.375 10.51 0.375 14.25 C-0.615 14.25 -1.605 14.25 -2.625 14.25 C-2.955 10.95 -3.285 7.65 -3.625 4.25 C-6.595 4.25 -9.565 4.25 -12.625 4.25 C-12.955 7.55 -13.285 10.85 -13.625 14.25 C-14.285 14.25 -14.945 14.25 -15.625 14.25 C-15.625 9.96 -15.625 5.67 -15.625 1.25 C-10.3740121 -0.06274697 -5.39143999 0.02636401 0 0 Z " fill="#175CA9" transform="translate(28.625,37.75)"/>
<path d="M0 0 C6.93359375 -0.09765625 6.93359375 -0.09765625 9 0 C10 1 10 1 10.09765625 3.50390625 C10.08605469 4.51324219 10.07445313 5.52257813 10.0625 6.5625 C10.05347656 7.57441406 10.04445313 8.58632813 10.03515625 9.62890625 C10.02355469 10.41136719 10.01195313 11.19382812 10 12 C11.65 12 13.3 12 15 12 C15 12.99 15 13.98 15 15 C11.56140351 17.0877193 11.56140351 17.0877193 9 16.6875 C8.34 16.460625 7.68 16.23375 7 16 C6.29875 15.9175 5.5975 15.835 4.875 15.75 C3 15 3 15 1.75 12.4375 C1.5025 11.633125 1.255 10.82875 1 10 C0.67 10 0.34 10 0 10 C0 6.7 0 3.4 0 0 Z " fill="#FAF9F8" transform="translate(117,41)"/>
<path d="M0 0 C3.96 0 7.92 0 12 0 C12.125 3.375 12.125 3.375 12 7 C10 9 10 9 7.87109375 9.23046875 C7.06800781 9.21628906 6.26492187 9.20210937 5.4375 9.1875 C4.22900391 9.17783203 4.22900391 9.17783203 2.99609375 9.16796875 C1 9 1 9 0 8 C-0.14115161 5.32941149 -0.04247107 2.67567762 0 0 Z " fill="#F7FDFB" transform="translate(97,41)"/>
<path d="M0 0 C1.81242052 -0.02687279 3.62495233 -0.04633715 5.4375 -0.0625 C6.44683594 -0.07410156 7.45617187 -0.08570313 8.49609375 -0.09765625 C11 0 11 0 12 1 C12 2.98 12 4.96 12 7 C7.38 7 2.76 7 -2 7 C-1.01 8.485 -1.01 8.485 0 10 C2.89608399 10.36498034 2.89608399 10.36498034 6.125 10.1875 C7.22070312 10.16042969 8.31640625 10.13335937 9.4453125 10.10546875 C10.28835937 10.07066406 11.13140625 10.03585938 12 10 C11.01 11.485 11.01 11.485 10 13 C7.25 13.36328125 7.25 13.36328125 4 13.3125 C2.39125 13.30669922 2.39125 13.30669922 0.75 13.30078125 C-2 13 -2 13 -4 11 C-4.1953125 8.8359375 -4.1953125 8.8359375 -4.125 6.375 C-4.10695312 5.55773438 -4.08890625 4.74046875 -4.0703125 3.8984375 C-4.04710937 3.27195313 -4.02390625 2.64546875 -4 2 C-3.34 2 -2.68 2 -2 2 C-2 2.99 -2 3.98 -2 5 C1.96 5 5.92 5 10 5 C9.67 3.68 9.34 2.36 9 1 C6.03 1 3.06 1 0 1 C0 0.67 0 0.34 0 0 Z " fill="#E90C13" transform="translate(136,39)"/>
<path d="M0 0 C12.39311224 -0.36811224 12.39311224 -0.36811224 14.90625 1.15625 C16.44203903 3.74515151 16.29286163 5.70225389 16.1875 8.6875 C16.16042969 9.68136719 16.13335937 10.67523438 16.10546875 11.69921875 C16.07066406 12.45847656 16.03585938 13.21773437 16 14 C15.01 14 14.02 14 13 14 C12.67 10.7 12.34 7.4 12 4 C9.03 4 6.06 4 3 4 C2.67 7.3 2.34 10.6 2 14 C1.34 14 0.68 14 0 14 C0 9.38 0 4.76 0 0 Z " fill="#E83A43" transform="translate(114,38)"/>
<path d="M0 0 C3.63 0 7.26 0 11 0 C11.09765625 6.15234375 11.09765625 6.15234375 11 8 C10 9 10 9 7.96875 9.1328125 C7.1540625 9.13023438 6.339375 9.12765625 5.5 9.125 C4.6853125 9.12757812 3.870625 9.13015625 3.03125 9.1328125 C1 9 1 9 0 8 C-0.14115161 5.32941149 -0.04247107 2.67567762 0 0 Z " fill="#E7F2F7" transform="translate(66,41)"/>
<path d="M0 0 C1.37478516 0.01740234 1.37478516 0.01740234 2.77734375 0.03515625 C3.69644531 0.04417969 4.61554687 0.05320313 5.5625 0.0625 C6.27277344 0.07410156 6.98304687 0.08570313 7.71484375 0.09765625 C7.8125 6.25 7.8125 6.25 7.71484375 8.09765625 C6.71484375 9.09765625 6.71484375 9.09765625 4.68359375 9.23046875 C3.86890625 9.22789063 3.05421875 9.2253125 2.21484375 9.22265625 C1.40015625 9.22523437 0.58546875 9.2278125 -0.25390625 9.23046875 C-2.28515625 9.09765625 -2.28515625 9.09765625 -3.28515625 8.09765625 C-3.41015625 4.59765625 -3.41015625 4.59765625 -3.28515625 1.09765625 C-2.28515625 0.09765625 -2.28515625 0.09765625 0 0 Z " fill="#F3F8FA" transform="translate(50.28515625,40.90234375)"/>
<path d="M0 0 C0.66 -0.33 1.32 -0.66 2 -1 C2.66 -0.01 3.32 0.98 4 2 C6.05003955 3.19232613 6.05003955 3.19232613 8 4 C7.01 4.495 7.01 4.495 6 5 C5.34 4.67 4.68 4.34 4 4 C4 4.99 4 5.98 4 7 C0.625 7.125 0.625 7.125 -3 7 C-3.66 6.34 -4.32 5.68 -5 5 C-8.08347826 4.83318891 -8.08347826 4.83318891 -11 5 C-11.33 3.35 -11.66 1.7 -12 0 C-7.72566213 -1.16572851 -4.34027917 -0.65513648 0 0 Z " fill="#F5F9F7" transform="translate(99,57)"/>
<path d="M0 0 C0.99 0 1.98 0 3 0 C3 3.96 3 7.92 3 12 C-0.42232972 13.14077657 -3.08673217 13.09815117 -6.6875 13.0625 C-8.45673828 13.04896484 -8.45673828 13.04896484 -10.26171875 13.03515625 C-11.16535156 13.02355469 -12.06898437 13.01195312 -13 13 C-13 13.99 -13 14.98 -13 16 C-14.98 16 -16.96 16 -19 16 C-19 15.01 -19 14.02 -19 13 C-19.66 12.67 -20.32 12.34 -21 12 C-20.01 12 -19.02 12 -18 12 C-17.67 9.36 -17.34 6.72 -17 4 C-16.67 4 -16.34 4 -16 4 C-15.34 6.31 -14.68 8.62 -14 11 C-11.85423363 11.02685938 -9.70837355 11.04633088 -7.5625 11.0625 C-5.77005859 11.07990234 -5.77005859 11.07990234 -3.94140625 11.09765625 C-1.11126659 11.33901792 -1.11126659 11.33901792 0 10 C0.07205511 8.31391034 0.08386068 6.62499341 0.0625 4.9375 C0.05347656 4.01839844 0.04445313 3.09929688 0.03515625 2.15234375 C0.02355469 1.44207031 0.01195313 0.73179688 0 0 Z " fill="#E1EDF4" transform="translate(60,40)"/>
<path d="M0 0 C1.4540625 0.0309375 1.4540625 0.0309375 2.9375 0.0625 C-0.0625 2.0625 -0.0625 2.0625 -2.0625 2.0625 C-2.0625 3.3825 -2.0625 4.7025 -2.0625 6.0625 C-0.4125 6.0625 1.2375 6.0625 2.9375 6.0625 C2.6075 6.7225 2.2775 7.3825 1.9375 8.0625 C0.6175 8.0625 -0.7025 8.0625 -2.0625 8.0625 C-2.0625 12.0225 -2.0625 15.9825 -2.0625 20.0625 C-3.0525 20.0625 -4.0425 20.0625 -5.0625 20.0625 C-5.0625 16.1025 -5.0625 12.1425 -5.0625 8.0625 C-6.0525 8.0625 -7.0425 8.0625 -8.0625 8.0625 C-8.0625 7.4025 -8.0625 6.7425 -8.0625 6.0625 C-7.0725 6.0625 -6.0825 6.0625 -5.0625 6.0625 C-4.918125 5.258125 -4.77375 4.45375 -4.625 3.625 C-3.8465 0.0785 -3.8465 0.0785 0 0 Z " fill="#E8232D" transform="translate(92.0625,31.9375)"/>
<path d="M0 0 C0.33 0 0.66 0 1 0 C1.06058594 0.63808594 1.12117187 1.27617188 1.18359375 1.93359375 C1.26738281 2.75988281 1.35117188 3.58617187 1.4375 4.4375 C1.51871094 5.26121094 1.59992188 6.08492187 1.68359375 6.93359375 C1.78930815 8.98662025 1.78930815 8.98662025 3 10 C4.51469448 10.23192865 6.03754562 10.41215238 7.5625 10.5625 C8.38878906 10.64628906 9.21507812 10.73007812 10.06640625 10.81640625 C10.70449219 10.87699219 11.34257812 10.93757813 12 11 C12 11.33 12 11.66 12 12 C9.03 12 6.06 12 3 12 C3.33 14.31 3.66 16.62 4 19 C3.01 19 2.02 19 1 19 C1 18.34 1 17.68 1 17 C0.34 17 -0.32 17 -1 17 C-1.33 17.66 -1.66 18.32 -2 19 C-2.66 19 -3.32 19 -4 19 C-4 18.34 -4 17.68 -4 17 C-4.66 17 -5.32 17 -6 17 C-6.33 17.66 -6.66 18.32 -7 19 C-7 18.34 -7 17.68 -7 17 C-7.66 17 -8.32 17 -9 17 C-9.33 17.66 -9.66 18.32 -10 19 C-10 18.01 -10 17.02 -10 16 C-6.25804529 15.33476361 -2.79563172 15 1 15 C-1.03268602 12.83656989 -1.03268602 12.83656989 -4 11 C-3.01 11 -2.02 11 -1 11 C-0.67 7.37 -0.34 3.74 0 0 Z " fill="#B6B7CA" transform="translate(131,41)"/>
<path d="M0 0 C1.09054688 0.02320313 2.18109375 0.04640625 3.3046875 0.0703125 C4.40039062 0.08835938 5.49609375 0.10640625 6.625 0.125 C7.46804687 0.14820313 8.31109375 0.17140625 9.1796875 0.1953125 C8.8496875 0.8553125 8.5196875 1.5153125 8.1796875 2.1953125 C8.5096875 3.5153125 8.8396875 4.8353125 9.1796875 6.1953125 C5.2196875 6.1953125 1.2596875 6.1953125 -2.8203125 6.1953125 C-2.8203125 5.2053125 -2.8203125 4.2153125 -2.8203125 3.1953125 C-3.4803125 2.8653125 -4.1403125 2.5353125 -4.8203125 2.1953125 C-2.8203125 0.1953125 -2.8203125 0.1953125 0 0 Z " fill="#F58D91" transform="translate(136.8203125,37.8046875)"/>
<path d="M0 0 C1.79093191 -0.08086147 3.58289628 -0.13912702 5.375 -0.1875 C6.87160156 -0.23970703 6.87160156 -0.23970703 8.3984375 -0.29296875 C9.25695313 -0.19628906 10.11546875 -0.09960938 11 0 C13.28062828 3.42094242 13.21925007 4.68187222 13.125 8.6875 C13.10695313 9.68136719 13.08890625 10.67523438 13.0703125 11.69921875 C13.03550781 12.83810547 13.03550781 12.83810547 13 14 C12.01 14 11.02 14 10 14 C10 10.37 10 6.74 10 3 C7.98177083 3.09765625 5.96354167 3.1953125 3.9453125 3.29296875 C3.30335937 3.19628906 2.66140625 3.09960938 2 3 C1.34 2.01 0.68 1.02 0 0 Z " fill="#2D6BAF" transform="translate(29,38)"/>
<path d="M0 0 C2.27024968 -0.08097324 4.54132075 -0.13917704 6.8125 -0.1875 C8.07707031 -0.22230469 9.34164062 -0.25710937 10.64453125 -0.29296875 C14 0 14 0 15.94921875 1.51171875 C16.29597656 2.00285156 16.64273438 2.49398437 17 3 C16.34 3 15.68 3 15 3 C14.67 3.99 14.34 4.98 14 6 C13.34 5.67 12.68 5.34 12 5 C12.33 4.67 12.66 4.34 13 4 C9.37 4 5.74 4 2 4 C1.34 2.68 0.68 1.36 0 0 Z " fill="#FAE4E2" transform="translate(134,46)"/>
<path d="M0 0 C0.99386719 0.02707031 1.98773438 0.05414063 3.01171875 0.08203125 C4.15060547 0.13423828 4.15060547 0.13423828 5.3125 0.1875 C5.6425 1.1775 5.9725 2.1675 6.3125 3.1875 C2.6825 3.5175 -0.9475 3.8475 -4.6875 4.1875 C-5.0175 5.8375 -5.3475 7.4875 -5.6875 9.1875 C-6.6775 9.8475 -7.6675 10.5075 -8.6875 11.1875 C-9.05368557 3.7417268 -9.05368557 3.7417268 -7.53125 1.4375 C-4.95273321 -0.31064698 -3.08197672 -0.10877565 0 0 Z " fill="#2769AE" transform="translate(52.6875,37.8125)"/>
<path d="M0 0 C2.31 0 4.62 0 7 0 C7.33 0.99 7.66 1.98 8 3 C7.01 3 6.02 3 5 3 C4.67 4.32 4.34 5.64 4 7 C6.97 7.495 6.97 7.495 10 8 C10 8.33 10 8.66 10 9 C8.52093108 9.02689216 7.04172517 9.04634621 5.5625 9.0625 C4.32693359 9.07990234 4.32693359 9.07990234 3.06640625 9.09765625 C1 9 1 9 0 8 C-0.14115161 5.32941149 -0.04247107 2.67567762 0 0 Z " fill="#FBDDDD" transform="translate(97,41)"/>
<path d="M0 0 C3 1 3 1 6 3 C5.5359375 3.7425 5.5359375 3.7425 5.0625 4.5 C3.58355618 7.97986781 3.37597149 11.24028509 3 15 C2.67 15 2.34 15 2 15 C2 12.69 2 10.38 2 8 C0.68 7.67 -0.64 7.34 -2 7 C-0.68 6.67 0.64 6.34 2 6 C0.68 5.67 -0.64 5.34 -2 5 C-2 3.68 -2 2.36 -2 1 C-1.34 0.67 -0.68 0.34 0 0 Z " fill="#F5CDCC" transform="translate(92,33)"/>
<path d="M0 0 C1.65322266 0.01740234 1.65322266 0.01740234 3.33984375 0.03515625 C4.99693359 0.04869141 4.99693359 0.04869141 6.6875 0.0625 C7.54214844 0.07410156 8.39679688 0.08570313 9.27734375 0.09765625 C9.60734375 0.75765625 9.93734375 1.41765625 10.27734375 2.09765625 C7.63734375 2.09765625 4.99734375 2.09765625 2.27734375 2.09765625 C1.94734375 3.74765625 1.61734375 5.39765625 1.27734375 7.09765625 C0.94734375 5.77765625 0.61734375 4.45765625 0.27734375 3.09765625 C-1.37265625 3.09765625 -3.02265625 3.09765625 -4.72265625 3.09765625 C-3.231787 0.11591775 -3.231787 0.11591775 0 0 Z " fill="#F8FCFC" transform="translate(100.72265625,52.90234375)"/>
<path d="M0 0 C3.96 0 7.92 0 12 0 C12 0.33 12 0.66 12 1 C9.94921875 1.22786458 7.8984375 1.45572917 5.84765625 1.68359375 C3.98859771 1.81886614 3.98859771 1.81886614 3 3 C2.76712992 4.68183948 2.58735834 6.3712416 2.4375 8.0625 C2.31181641 9.44115234 2.31181641 9.44115234 2.18359375 10.84765625 C2.12300781 11.55792969 2.06242187 12.26820312 2 13 C1.34 13 0.68 13 0 13 C0 8.71 0 4.42 0 0 Z " fill="#EC0713" transform="translate(114,39)"/>
<path d="M0 0 C0.66 -0.33 1.32 -0.66 2 -1 C2 0.65 2 2.3 2 4 C-0.64 3.67 -3.28 3.34 -6 3 C-6 2.34 -6 1.68 -6 1 C-6.66 1 -7.32 1 -8 1 C-8.33 1.66 -8.66 2.32 -9 3 C-9 2.34 -9 1.68 -9 1 C-9.66 1 -10.32 1 -11 1 C-11.33 1.66 -11.66 2.32 -12 3 C-12 2.01 -12 1.02 -12 0 C-7.72566213 -1.16572851 -4.34027917 -0.65513648 0 0 Z " fill="#84A4C9" transform="translate(99,57)"/>
<path d="M0 0 C0 1.32 0 2.64 0 4 C-4.33273814 4.92844389 -7.66726186 4.92844389 -12 4 C-12 3.01 -12 2.02 -12 1 C-10.37512529 0.83211627 -8.75009558 0.66573213 -7.125 0.5 C-6.22007812 0.4071875 -5.31515625 0.314375 -4.3828125 0.21875 C-2 0 -2 0 0 0 Z " fill="#92B3CF" transform="translate(149,56)"/>
<path d="M0 0 C3.63 0 7.26 0 11 0 C11 0.33 11 0.66 11 1 C9.2984375 1.2165625 9.2984375 1.2165625 7.5625 1.4375 C4.19222799 1.61171478 4.19222799 1.61171478 3 3 C2.76712992 4.68183948 2.58735834 6.3712416 2.4375 8.0625 C2.31181641 9.44115234 2.31181641 9.44115234 2.18359375 10.84765625 C2.12300781 11.55792969 2.06242188 12.26820312 2 13 C1.34 13 0.68 13 0 13 C0 8.71 0 4.42 0 0 Z " fill="#0E51A3" transform="translate(13,39)"/>
<path d="M0 0 C0.79664063 0.24556641 0.79664063 0.24556641 1.609375 0.49609375 C4.53876764 1.11356377 7.25822936 1.09501925 10.25 1.0625 C11.86648437 1.04896484 11.86648437 1.04896484 13.515625 1.03515625 C14.74539062 1.01775391 14.74539062 1.01775391 16 1 C15.01 2.485 15.01 2.485 14 4 C11.1796875 4.29296875 11.1796875 4.29296875 7.875 4.1875 C6.23144531 4.14689453 6.23144531 4.14689453 4.5546875 4.10546875 C3.71164063 4.07066406 2.86859375 4.03585938 2 4 C1.34 2.68 0.68 1.36 0 0 Z " fill="#ED1F25" transform="translate(132,48)"/>
<path d="M0 0 C1.051875 0.2475 1.051875 0.2475 2.125 0.5 C5.13888194 1.02415338 7.94713625 1.07099683 11 1 C11 2.32 11 3.64 11 5 C9.741875 5.020625 8.48375 5.04125 7.1875 5.0625 C6.47980469 5.07410156 5.77210937 5.08570313 5.04296875 5.09765625 C3 5 3 5 0 4 C0 2.68 0 1.36 0 0 Z " fill="#8EB1D3" transform="translate(103,56)"/>
<path d="M0 0 C1.32 0 2.64 0 4 0 C3.67 2.97 3.34 5.94 3 9 C2.34 9 1.68 9 1 9 C-0.4783226 6.04335481 -0.06032783 3.25770263 0 0 Z " fill="#F9FBFB" transform="translate(90,41)"/>
<path d="M0 0 C-0.33 1.65 -0.66 3.3 -1 5 C-2.65 4.67 -4.3 4.34 -6 4 C-6.33 2.68 -6.66 1.36 -7 0 C-3.98968256 -0.93423645 -3.13349732 -1.04449911 0 0 Z " fill="#F3B8B9" transform="translate(88,33)"/>
<path d="M0 0 C0.66 0 1.32 0 2 0 C1.67 0.99 1.34 1.98 1 3 C0.34 2.67 -0.32 2.34 -1 2 C-0.67 1.34 -0.34 0.68 0 0 Z M-3 3 C-2.34 3 -1.68 3 -1 3 C-0.67 4.32 -0.34 5.64 0 7 C-5.95703125 8.7578125 -5.95703125 8.7578125 -8 9 C-8.99 8.34 -9.98 7.68 -11 7 C-8.36 6.67 -5.72 6.34 -3 6 C-3 5.01 -3 4.02 -3 3 Z " fill="#E9F2F9" transform="translate(149,49)"/>
<path d="M0 0 C1.62463842 -0.05395478 3.24978541 -0.09277195 4.875 -0.125 C5.77992187 -0.14820313 6.68484375 -0.17140625 7.6171875 -0.1953125 C10 0 10 0 12 2 C8.00439392 4.83022097 4.57262677 3.76210446 0 3 C0 2.01 0 1.02 0 0 Z " fill="#3B76BA" transform="translate(17,38)"/>
<path d="M0 0 C1.65 0 3.3 0 5 0 C5 0.66 5 1.32 5 2 C6.32 2.66 7.64 3.32 9 4 C8.67 4.66 8.34 5.32 8 6 C7.67 5.67 7.34 5.34 7 5 C4.67182036 4.63239269 2.3381615 4.29758419 0 4 C0 2.68 0 1.36 0 0 Z " fill="#FCF0EF" transform="translate(120,34)"/>
<path d="M0 0 C1.6875 0.3125 1.6875 0.3125 4 1 C6.33094534 1.3496418 8.66404762 1.68554487 11 2 C11 2.33 11 2.66 11 3 C7.37 3 3.74 3 0 3 C-0.33 4.32 -0.66 5.64 -1 7 C-1.33 7 -1.66 7 -2 7 C-2.125 4.625 -2.125 4.625 -2 2 C-1.34 1.34 -0.68 0.68 0 0 Z " fill="#E93F46" transform="translate(97,38)"/>
<path d="M0 0 C1.32 0.66 2.64 1.32 4 2 C3.01 2 2.02 2 1 2 C1 5.3 1 8.6 1 12 C0.67 12 0.34 12 0 12 C-0.103125 10.906875 -0.20625 9.81375 -0.3125 8.6875 C-0.97307727 5.14440371 -1.2027092 4.06756277 -4 2 C-2.68 2 -1.36 2 0 2 C0 1.34 0 0.68 0 0 Z " fill="#E7F2FB" transform="translate(80,36)"/>
<path d="M0 0 C2.6875 0.875 2.6875 0.875 5 2 C4.67 2.99 4.34 3.98 4 5 C1.9375 5.6875 1.9375 5.6875 0 6 C0 5.34 0 4.68 0 4 C-0.99 3.34 -1.98 2.68 -3 2 C-2.01 1.34 -1.02 0.68 0 0 Z " fill="#D8E3ED" transform="translate(130,58)"/>
<path d="M0 0 C3.63 0 7.26 0 11 0 C11 0.33 11 0.66 11 1 C8.03 1 5.06 1 2 1 C2.33 1.99 2.66 2.98 3 4 C2.34 4.66 1.68 5.32 1 6 C0.67 5.67 0.34 5.34 0 5 C0 3.35 0 1.7 0 0 Z " fill="#F5DBDD" transform="translate(132,52)"/>
<path d="M0 0 C0.33 0 0.66 0 1 0 C2.01911045 3.89114901 2.16782969 5.60596507 0.5625 9.375 C0.046875 10.24125 -0.46875 11.1075 -1 12 C-1.33 11.01 -1.66 10.02 -2 9 C-2.66 8.67 -3.32 8.34 -4 8 C-3.01 8 -2.02 8 -1 8 C-0.67 5.36 -0.34 2.72 0 0 Z " fill="#E1F1F9" transform="translate(43,44)"/>
<path d="M0 0 C1.65 0 3.3 0 5 0 C5 0.66 5 1.32 5 2 C5.99 2.33 6.98 2.66 8 3 C5.29120665 4.35439668 2.99066732 4.06501451 0 4 C-0.33 3.34 -0.66 2.68 -1 2 C-0.67 1.34 -0.34 0.68 0 0 Z " fill="#E5F0F5" transform="translate(88,58)"/>
<path d="M0 0 C0.33 0 0.66 0 1 0 C1 1.65 1 3.3 1 5 C2.98 5 4.96 5 7 5 C7 5.66 7 6.32 7 7 C5.0085944 7.38133299 3.00720923 7.71325582 1 8 C0 7 0 7 -0.0625 3.4375 C-0.041875 2.303125 -0.02125 1.16875 0 0 Z " fill="#155EA7" transform="translate(65,33)"/>
<path d="M0 0 C2.0625 0.4375 2.0625 0.4375 4 1 C3.01 1.99 2.02 2.98 1 4 C2.32 4 3.64 4 5 4 C4.67 4.66 4.34 5.32 4 6 C2.35 6 0.7 6 -1 6 C-1.042721 4.33388095 -1.04063832 2.66617115 -1 1 C-0.67 0.67 -0.34 0.34 0 0 Z " fill="#EAF2F8" transform="translate(95,52)"/>
<path d="M0 0 C0.99 0 1.98 0 3 0 C3 1.98 3 3.96 3 6 C1.68 6 0.36 6 -1 6 C-0.67 4.02 -0.34 2.04 0 0 Z " fill="#FDFBF9" transform="translate(73,43)"/>
<path d="M0 0 C1.98 0 3.96 0 6 0 C6 1.32 6 2.64 6 4 C3.03 3.505 3.03 3.505 0 3 C0 2.01 0 1.02 0 0 Z " fill="#89A9C6" transform="translate(108,57)"/>
<path d="M0 0 C1.32 0 2.64 0 4 0 C4 2.31 4 4.62 4 7 C3.67 6.34 3.34 5.68 3 5 C2.01 4.67 1.02 4.34 0 4 C0 2.66666667 0 1.33333333 0 0 Z " fill="#F8D4D4" transform="translate(105,41)"/>
<path d="M0 0 C1.4540625 0.0309375 1.4540625 0.0309375 2.9375 0.0625 C-0.0625 2.0625 -0.0625 2.0625 -2.0625 2.0625 C-2.0625 3.3825 -2.0625 4.7025 -2.0625 6.0625 C-2.7225 6.0625 -3.3825 6.0625 -4.0625 6.0625 C-4.105221 4.39638095 -4.10313832 2.72867115 -4.0625 1.0625 C-3.0625 0.0625 -3.0625 0.0625 0 0 Z " fill="#EA0E18" transform="translate(92.0625,31.9375)"/>
<path d="M0 0 C-2 2 -2 2 -4.1640625 2.1953125 C-5.38222656 2.16050781 -5.38222656 2.16050781 -6.625 2.125 C-7.44226563 2.10695312 -8.25953125 2.08890625 -9.1015625 2.0703125 C-9.72804687 2.04710937 -10.35453125 2.02390625 -11 2 C-11 1.67 -11 1.34 -11 1 C-3.57142857 -1.42857143 -3.57142857 -1.42857143 0 0 Z " fill="#E81218" transform="translate(148,50)"/>
<path d="M0 0 C0.99 0.33 1.98 0.66 3 1 C3 3.31 3 5.62 3 8 C0.37613513 4.93882432 0 4.26826873 0 0 Z " fill="#EF3338" transform="translate(109,40)"/>
</svg>
