<?xml version="1.0" encoding="UTF-8"?>
<svg version="1.1" xmlns="http://www.w3.org/2000/svg" width="165" height="86">
<path d="M0 0 C54.45 0 108.9 0 165 0 C165 28.38 165 56.76 165 86 C110.55 86 56.1 86 0 86 C0 57.62 0 29.24 0 0 Z " fill="#FDFDFD" transform="translate(0,0)"/>
<path d="M0 0 C0.89460938 -0.00386719 1.78921875 -0.00773438 2.7109375 -0.01171875 C21.36312477 0.01539199 37.82410687 5.18662906 53.625 15.125 C54.615 16.61 54.615 16.61 55.625 18.125 C52.84954609 17.03163937 50.13829169 15.89596079 47.4375 14.625 C34.22832042 9.08838643 16.98081145 9.22592506 3.625 14.125 C-2.89321606 16.83966991 -2.89321606 16.83966991 -8.34277344 21.18676758 C-12.84927365 24.06737186 -16.90663229 23.6235182 -22.14453125 23.515625 C-23.18067062 23.50996521 -24.21681 23.50430542 -25.28434753 23.49847412 C-28.58587308 23.47612666 -31.88630381 23.42593178 -35.1875 23.375 C-37.42902076 23.35493296 -39.67055857 23.33668255 -41.91210938 23.3203125 C-47.4001116 23.27626733 -52.88747757 23.20937118 -58.375 23.125 C-58.375 22.465 -58.375 21.805 -58.375 21.125 C-42.0302921 6.42673703 -21.72127325 -0.09309117 0 0 Z " fill="#069591" transform="translate(82.375,8.875)"/>
<path d="M0 0 C1.58538071 0.01061211 1.58538071 0.01061211 3.20278931 0.0214386 C6.56561216 0.0493401 9.92674622 0.1120737 13.2890625 0.17578125 C15.57419464 0.20086947 17.85935298 0.22368172 20.14453125 0.24414062 C25.7349474 0.29915269 31.32438428 0.38273705 36.9140625 0.48828125 C31.77139835 6.8574067 26.0100307 10.50907405 18.9140625 14.48828125 C17.81771484 15.11089844 17.81771484 15.11089844 16.69921875 15.74609375 C-2.27212142 25.28811435 -31.43051043 26.11203126 -51.578125 19.890625 C-61.11744496 16.07702159 -69.82231058 11.60357788 -78.0859375 5.48828125 C-74.94699063 5.48828125 -73.99903648 5.90390301 -71.3359375 7.36328125 C-57.74567065 14.36882864 -41.38141014 14.00874152 -27.0859375 9.48828125 C-20.23319138 7.28115941 -20.23319138 7.28115941 -14.63183594 2.94018555 C-10.25870883 -0.72971305 -5.45637135 -0.13818752 0 0 Z " fill="#F48634" transform="translate(106.0859375,51.51171875)"/>
<path d="M0 0 C1.99954746 -0.04254356 4.00041636 -0.04080783 6 0 C6.495 0.495 6.495 0.495 7 1 C8.49738124 1.0979057 9.99942892 1.12974864 11.5 1.125 C12.3146875 1.12757812 13.129375 1.13015625 13.96875 1.1328125 C15.99530377 1.2245178 15.99530377 1.2245178 17 0 C19.5 -0.125 19.5 -0.125 22 0 C22.495 0.495 22.495 0.495 23 1 C24.85174706 1.15786308 26.7090911 1.25107356 28.56640625 1.31640625 C30.2534668 1.37924805 30.2534668 1.37924805 31.97460938 1.44335938 C33.15861328 1.48267578 34.34261719 1.52199219 35.5625 1.5625 C36.75037109 1.60568359 37.93824219 1.64886719 39.16210938 1.69335938 C42.10794784 1.79983546 45.0538743 1.90184841 48 2 C47.67 3.65 47.34 5.3 47 7 C43.7 7 40.4 7 37 7 C37 7.66 37 8.32 37 9 C40.96 9 44.92 9 49 9 C49 7.02 49 5.04 49 3 C50 2 50 2 52.5 1.875 C55 2 55 2 56 3 C56.04080783 4.99958364 56.04254356 7.00045254 56 9 C59.3 9 62.6 9 66 9 C65.67 9.66 65.34 10.32 65 11 C53.78 11 42.56 11 31 11 C30.505 8.03 30.505 8.03 30 5 C28.02 5 26.04 5 24 5 C23.34 6.98 22.68 8.96 22 11 C20.35 11 18.7 11 17 11 C16.34 9.02 15.68 7.04 15 5 C12.03 5 9.06 5 6 5 C6 6.98 6 8.96 6 11 C4.35 11 2.7 11 1 11 C0.34 9.02 -0.32 7.04 -1 5 C-3.64 5 -6.28 5 -9 5 C-9 5.66 -9 6.32 -9 7 C-12.3 7 -15.6 7 -19 7 C-19 7.66 -19 8.32 -19 9 C-15.37 9 -11.74 9 -8 9 C-8.33 9.66 -8.66 10.32 -9 11 C-11.64590014 11.02684679 -14.29153096 11.04676357 -16.9375 11.0625 C-18.06961914 11.07506836 -18.06961914 11.07506836 -19.22460938 11.08789062 C-21.14994313 11.09652441 -23.07535581 11.05224333 -25 11 C-25.33 10.67 -25.66 10.34 -26 10 C-26 7.36 -26 4.72 -26 2 C-17.42 2 -8.84 2 0 2 C0 1.34 0 0.68 0 0 Z " fill="#219D9A" transform="translate(77,36)"/>
<path d="M0 0 C2.5 0.125 2.5 0.125 3.5 1.125 C3.54080783 3.12458364 3.54254356 5.12545254 3.5 7.125 C6.8 7.125 10.1 7.125 13.5 7.125 C13.17 7.785 12.84 8.445 12.5 9.125 C1.28 9.125 -9.94 9.125 -21.5 9.125 C-21.83 7.145 -22.16 5.165 -22.5 3.125 C-24.81 2.795 -27.12 2.465 -29.5 2.125 C-29.5 1.795 -29.5 1.465 -29.5 1.125 C-21.58 1.125 -13.66 1.125 -5.5 1.125 C-5.5 2.445 -5.5 3.765 -5.5 5.125 C-8.8 5.125 -12.1 5.125 -15.5 5.125 C-15.5 5.785 -15.5 6.445 -15.5 7.125 C-11.54 7.125 -7.58 7.125 -3.5 7.125 C-3.5 5.145 -3.5 3.165 -3.5 1.125 C-2.5 0.125 -2.5 0.125 0 0 Z " fill="#179793" transform="translate(129.5,37.875)"/>
<path d="M0 0 C3.70293685 -0.33663062 5.39534381 -0.47736015 8.375 1.875 C10 4 10 4 10 6 C10.804375 5.195625 11.60875 4.39125 12.4375 3.5625 C16 0 16 0 18.25 -0.1328125 C19.1575 -0.13023438 20.065 -0.12765625 21 -0.125 C22.36125 -0.12886719 22.36125 -0.12886719 23.75 -0.1328125 C26 0 26 0 27 1 C27.125 4.5 27.125 4.5 27 8 C26 9 26 9 23.4375 9.0625 C22.633125 9.041875 21.82875 9.02125 21 9 C20.34 7.68 19.68 6.36 19 5 C18.29875 5.66 17.5975 6.32 16.875 7 C14 9 14 9 11.1875 9.75 C6.15102294 8.56494657 3.2442518 4.89474899 0 1 C0 0.67 0 0.34 0 0 Z " fill="#299D9A" transform="translate(23,38)"/>
<path d="M0 0 C8.25 0 16.5 0 25 0 C25 0.33 25 0.66 25 1 C19.06 1.33 13.12 1.66 7 2 C10.3 2.33 13.6 2.66 17 3 C17 3.66 17 4.32 17 5 C13.7 5 10.4 5 7 5 C7 5.66 7 6.32 7 7 C10.63 7 14.26 7 18 7 C17.67 7.66 17.34 8.32 17 9 C14.35409986 9.02684679 11.70846904 9.04676357 9.0625 9.0625 C7.93038086 9.07506836 7.93038086 9.07506836 6.77539062 9.08789062 C4.85005687 9.09652441 2.92464419 9.05224333 1 9 C0.67 8.67 0.34 8.34 0 8 C0 5.36 0 2.72 0 0 Z " fill="#2CA29F" transform="translate(51,38)"/>
<path d="M0 0 C1.98 0 3.96 0 6 0 C6 0.99 6 1.98 6 3 C9.3 3 12.6 3 16 3 C16 3.33 16 3.66 16 4 C12.7 4.33 9.4 4.66 6 5 C6 6.98 6 8.96 6 11 C4.35 11 2.7 11 1 11 C0.34 9.02 -0.32 7.04 -1 5 C-7.27 4.67 -13.54 4.34 -20 4 C-20 3.67 -20 3.34 -20 3 C-13.73 2.67 -7.46 2.34 -1 2 C-0.67 1.34 -0.34 0.68 0 0 Z " fill="#0B928E" transform="translate(77,36)"/>
<path d="M0 0 C0.94082428 0.00007553 1.88164856 0.00015106 2.85098267 0.00022888 C3.86872772 0.00539017 4.88647278 0.01055145 5.93505859 0.01586914 C7.49563492 0.01799156 7.49563492 0.01799156 9.08773804 0.02015686 C12.4196863 0.02576673 15.75156804 0.03832092 19.08349609 0.05102539 C21.33870346 0.05603912 23.59391187 0.06060225 25.84912109 0.06469727 C31.38560223 0.07573936 36.92204441 0.09248712 42.45849609 0.11352539 C41.79849609 1.10352539 41.13849609 2.09352539 40.45849609 3.11352539 C38.4336853 3.47428894 38.4336853 3.47428894 35.91699219 3.45410156 C34.50575577 3.45376167 34.50575577 3.45376167 33.06600952 3.45341492 C32.04826447 3.43793106 31.03051941 3.4224472 29.98193359 3.40649414 C28.94154938 3.4022493 27.90116516 3.39800446 26.82925415 3.39363098 C23.49707462 3.37680021 20.16549369 3.33913961 16.83349609 3.30102539 C14.57829648 3.28598426 12.32308741 3.27229486 10.06787109 3.26000977 C4.53120755 3.22688239 -1.00510543 3.17663959 -6.54150391 3.11352539 C-6.54150391 2.45352539 -6.54150391 1.79352539 -6.54150391 1.11352539 C-4.14568045 -0.08438634 -2.67372853 -0.00714901 0 0 Z " fill="#179995" transform="translate(30.54150390625,28.886474609375)"/>
<path d="M0 0 C3.70293685 -0.33663062 5.39534381 -0.47736015 8.375 1.875 C10 4 10 4 10 6 C10.4125 5.505 10.825 5.01 11.25 4.5 C13 3 13 3 17 3 C16.625 5.4375 16.625 5.4375 16 8 C12.93772154 9.53113923 11.42801806 9.57133634 8 9 C5.02600722 6.60368927 2.44327987 3.93317609 0 1 C0 0.67 0 0.34 0 0 Z " fill="#0B948F" transform="translate(23,38)"/>
<path d="M0 0 C2.71942469 1.03978003 5.2909327 2.15179097 7.875 3.5 C14.07721645 6.4770639 20.22724133 7.41640628 27 8 C24.03745763 10.5236472 21.90269644 11.70743577 18 12 C14.84375 10.7421875 14.84375 10.7421875 11.5 8.875 C10.3965625 8.27429688 9.293125 7.67359375 8.15625 7.0546875 C4.98691227 4.99148002 2.56475598 2.76572567 0 0 Z " fill="#F48F42" transform="translate(28,56)"/>
<path d="M0 0 C1.66611905 -0.042721 3.33382885 -0.04063832 5 0 C6 1 6 1 6.0625 4.0625 C6.041875 5.031875 6.02125 6.00125 6 7 C9.3 7 12.6 7 16 7 C16 7.33 16 7.66 16 8 C10.72 8 5.44 8 0 8 C0 5.36 0 2.72 0 0 Z " fill="#0C908C" transform="translate(127,38)"/>
<path d="M0 0 C1.32 0.33 2.64 0.66 4 1 C3.01 1 2.02 1 1 1 C1 2.65 1 4.3 1 6 C1.99 6 2.98 6 4 6 C4.33 5.34 4.66 4.68 5 4 C5 4.66 5 5.32 5 6 C8.96 6 12.92 6 17 6 C16.67 6.66 16.34 7.32 16 8 C10.72 8 5.44 8 0 8 C0 5.36 0 2.72 0 0 Z " fill="#11938E" transform="translate(52,39)"/>
<path d="M0 0 C1.2065625 0.0309375 1.2065625 0.0309375 2.4375 0.0625 C2.7675 2.3725 3.0975 4.6825 3.4375 7.0625 C1.7875 7.0625 0.1375 7.0625 -1.5625 7.0625 C-2.2225 5.0825 -2.8825 3.1025 -3.5625 1.0625 C-2.5625 0.0625 -2.5625 0.0625 0 0 Z " fill="#149995" transform="translate(45.5625,39.9375)"/>
<path d="M0 0 C1.98 0 3.96 0 6 0 C6.33 0.66 6.66 1.32 7 2 C6.01 2.495 6.01 2.495 5 3 C7.06756277 5.7972908 8.14440371 6.02692273 11.6875 6.6875 C12.780625 6.790625 13.87375 6.89375 15 7 C14.67 7.66 14.34 8.32 14 9 C11.5 9.5 11.5 9.5 8 9 C5.01920055 6.61215528 2.44311299 3.93297575 0 1 C0 0.67 0 0.34 0 0 Z " fill="#1A9591" transform="translate(23,38)"/>
<path d="M0 0 C3.99012371 0.55989303 6.5255052 1.75669768 9.8125 4.0625 C10.60269531 4.61035156 11.39289063 5.15820312 12.20703125 5.72265625 C12.79871094 6.14417969 13.39039063 6.56570312 14 7 C10.44842089 7 8.51236245 6.00581762 5.3125 4.5 C4.31863281 4.0359375 3.32476562 3.571875 2.30078125 3.09375 C1.54152344 2.7328125 0.78226562 2.371875 0 2 C0 1.34 0 0.68 0 0 Z " fill="#239895" transform="translate(124,19)"/>
<path d="M0 0 C0.66 1.32 1.32 2.64 2 4 C-1.96 4 -5.92 4 -10 4 C-10 3.34 -10 2.68 -10 2 C-6.7 2 -3.4 2 0 2 C0 1.34 0 0.68 0 0 Z " fill="#DCF0EF" transform="translate(124,41)"/>
</svg>
