<?xml version="1.0" encoding="UTF-8"?>
<svg version="1.1" xmlns="http://www.w3.org/2000/svg" width="650" height="350">
<path d="M0 0 C214.5 0 429 0 650 0 C650 115.5 650 231 650 350 C435.5 350 221 350 0 350 C0 234.5 0 119 0 0 Z " fill="#00A0E3" transform="translate(0,0)"/>
<path d="M0 0 C5.61 0 11.22 0 17 0 C17.33 2.97 17.66 5.94 18 9 C18.68707031 8.50628906 19.37414062 8.01257813 20.08203125 7.50390625 C21.43361328 6.54291016 21.43361328 6.54291016 22.8125 5.5625 C23.70582031 4.92441406 24.59914063 4.28632813 25.51953125 3.62890625 C31.60146895 -0.36505914 39.02054581 0.28682165 46 1 C53.6064939 3.52617628 59.61516486 8.30999438 64 15 C65.30913269 17.66675177 66.13897221 20.12990738 67 23 C67.18433594 23.60972656 67.36867188 24.21945313 67.55859375 24.84765625 C69.76994668 35.63044796 68.01196328 47.73628299 62 57 C57.26806471 63.33510463 51.6266192 66.19029375 44 68 C33.94862957 69.4452951 27.05791287 65.75565205 19 60 C18.67 68.25 18.34 76.5 18 85 C12.06 85 6.12 85 0 85 C0 56.95 0 28.9 0 0 Z " fill="#F6FBFD" transform="translate(267,149)"/>
<path d="M0 0 C6.71720049 6.10917804 10.46602534 14.46002083 11.078125 23.44140625 C11.24588411 34.91892562 9.11901413 44.39964403 1.3828125 53.1484375 C-6.06133752 60.27202604 -15.24807221 62.07338872 -25.27319336 61.93139648 C-34.29431154 61.52717623 -40.84174239 58.54673306 -47.37109375 52.38671875 C-55.66523848 43.27978478 -56.68244951 33.89046041 -56.44140625 22.05078125 C-56.18918266 16.80685229 -55.05055449 12.8396457 -52.125 8.4609375 C-51.774375 7.84347656 -51.42375 7.22601563 -51.0625 6.58984375 C-47.06054171 0.12834859 -40.81922608 -4.17789995 -33.4375 -5.9140625 C-21.27805911 -7.7049879 -10.26920811 -7.43762499 0 0 Z " fill="#F9FCFE" transform="translate(467.125,155.5390625)"/>
<path d="M0 0 C0.94230469 -0.02835938 1.88460937 -0.05671875 2.85546875 -0.0859375 C10.376052 -0.10674133 15.99857398 1.85533616 21.67871094 6.87231445 C28.12666177 13.90048555 28.55622791 21.77475627 28.41796875 30.78125 C28.41372391 31.83534058 28.40947906 32.88943115 28.40510559 33.97546387 C28.38841405 37.31724405 28.35077909 40.6584044 28.3125 44 C28.29744088 46.27603291 28.28375463 48.55207535 28.27148438 50.828125 C28.23854165 56.38565275 28.18682504 61.94272155 28.125 67.5 C22.515 67.5 16.905 67.5 11.125 67.5 C11.125 65.52 11.125 63.54 11.125 61.5 C10.43792969 61.84933594 9.75085938 62.19867188 9.04296875 62.55859375 C7.69138672 63.24115234 7.69138672 63.24115234 6.3125 63.9375 C5.41917969 64.38996094 4.52585938 64.84242188 3.60546875 65.30859375 C-3.03132276 68.496344 -11.31641335 68.79842097 -18.3984375 66.78125 C-22.62146923 64.77490542 -25.84232285 62.084073 -28.875 58.5 C-30.93987723 52.30536832 -31.25076503 44.02867978 -28.8515625 37.875 C-25.31318001 32.71404432 -20.85159849 30.06914555 -14.875 28.5 C-10.80595384 27.75405369 -6.71970563 27.13553939 -2.61450195 26.62573242 C1.97598126 26.02200278 5.29189704 25.31250034 9.125 22.5 C8.8645304 19.28754157 8.55009628 17.8852435 6.125 15.6875 C2.05177806 14.07518298 -1.550095 13.76298435 -5.875 14.5 C-9.1786158 16.87182673 -10.01815416 18.78630833 -11.875 22.5 C-17.155 22.5 -22.435 22.5 -27.875 22.5 C-27.875 15.12212676 -27.18031856 12.93205482 -22.875 7.5 C-16.08666216 0.89030263 -9.06852454 -0.02460929 0 0 Z " fill="#F9FCFE" transform="translate(223.875,149.5)"/>
<path d="M0 0 C5.61 0 11.22 0 17 0 C17.33 10.89 17.66 21.78 18 33 C20.31 31.02 22.62 29.04 25 27 C28.78783015 25.73738995 32.36521826 25.77682944 36.3125 25.75 C37.05951172 25.729375 37.80652344 25.70875 38.57617188 25.6875 C44.85850806 25.64337472 48.89540231 27.14012297 53.6875 31.375 C57.46858029 35.66703708 59.38127995 38.73115348 59.34057617 44.5246582 C59.34023628 46.14577263 59.34023628 46.14577263 59.33988953 47.79963684 C59.32440567 48.9550145 59.30892181 50.11039215 59.29296875 51.30078125 C59.28872391 52.49229294 59.28447906 53.68380463 59.28010559 54.91142273 C59.26333093 58.71201296 59.22567959 62.51207038 59.1875 66.3125 C59.17245166 68.89126838 59.15876351 71.47004508 59.14648438 74.04882812 C59.11343115 80.36609029 59.06165593 86.68295485 59 93 C53.39 93 47.78 93 42 93 C41.970271 90.94906128 41.970271 90.94906128 41.93994141 88.85668945 C41.86380044 83.77805336 41.77509577 78.6997006 41.68261719 73.62133789 C41.6443626 71.42445474 41.6095036 69.2275097 41.578125 67.03051758 C41.5323984 63.87038068 41.47441582 60.7106685 41.4140625 57.55078125 C41.40251129 56.57039383 41.39096008 55.59000641 41.37905884 54.57991028 C41.28110696 48.0516711 41.28110696 48.0516711 39 42 C36.03976879 39.60904402 32.75105375 39.63299541 29.02734375 39.7578125 C25.73612715 40.15098288 23.68511879 41.06421669 21 43 C17.8725307 48.71681413 17.53376547 53.65190868 17.48828125 60.08984375 C17.47033005 61.03436905 17.45237885 61.97889435 17.43388367 62.95204163 C17.38001844 65.94715 17.34596142 68.94210119 17.3125 71.9375 C17.27930593 73.9772353 17.24481435 76.01694992 17.20898438 78.05664062 C17.12430565 83.03764657 17.05738128 88.01860783 17 93 C11.39 93 5.78 93 0 93 C0 62.31 0 31.62 0 0 Z " fill="#FCFDFE" transform="translate(343,124)"/>
<path d="M0 0 C7.5069559 4.71215846 10.11374137 11.64494385 12.484375 19.765625 C13.23184832 24.45432126 13 29.25209636 13 34 C-1.19 34 -15.38 34 -30 34 C-27.03410405 44.02981316 -27.03410405 44.02981316 -23.8125 47.6875 C-19.79790494 49.56097769 -16.35114534 49.77999442 -12 49 C-7.72596143 46.77561281 -7.72596143 46.77561281 -5 43 C0.61 43 6.22 43 12 43 C9.87679587 51.11813343 6.94786698 55.41888857 0.17578125 60.3203125 C-7.97130107 64.89804441 -19.23113188 64.14803346 -28.140625 62.375 C-35.30132815 59.91488113 -39.93112016 55.14406725 -43.28125 48.43359375 C-47.78232497 37.6470891 -48.97793853 25.42868606 -45.03515625 14.2421875 C-41.40364098 6.37618838 -35.24427331 0.11509365 -27.171875 -3.140625 C-17.89858793 -5.65309194 -8.35574008 -4.71744735 0 0 Z " fill="#F9FCFE" transform="translate(600,153)"/>
<path d="M0 0 C5.94 0 11.88 0 18 0 C18.33 2.31 18.66 4.62 19 7 C19.7425 6.38125 20.485 5.7625 21.25 5.125 C28.53035778 -0.50073101 37.09102713 -0.06671563 46 1 C51.3528354 2.79416367 54.93787321 6.2890357 58 11 C59.68213383 14.59273968 60.24630242 17.38485327 60.22705078 21.34106445 C60.22689972 22.3817659 60.22674866 23.42246735 60.22659302 24.4947052 C60.21627045 25.6063353 60.20594788 26.71796539 60.1953125 27.86328125 C60.1924826 29.01040085 60.18965271 30.15752045 60.18673706 31.33940125 C60.17555697 34.99720768 60.15045595 38.65476778 60.125 42.3125 C60.11496741 44.79491833 60.10584205 47.27734051 60.09765625 49.75976562 C60.07562467 55.83993842 60.04110935 61.91992747 60 68 C54.06 68 48.12 68 42 68 C41.97494385 66.53135498 41.9498877 65.06270996 41.92407227 63.54956055 C41.83002138 58.10952775 41.72979493 52.66962334 41.62768555 47.22973633 C41.58432792 44.87364705 41.54265346 42.51752617 41.50268555 40.16137695 C41.44500324 36.77806062 41.38130269 33.39490343 41.31640625 30.01171875 C41.29969376 28.95538742 41.28298126 27.89905609 41.26576233 26.81071472 C41.2358445 25.33952934 41.2358445 25.33952934 41.20532227 23.83862305 C41.18200584 22.54289619 41.18200584 22.54289619 41.15821838 21.22099304 C41.07990261 18.82634575 41.07990261 18.82634575 40 16 C35.37939044 14.45979681 30.82536624 14.48425807 26 15 C22.29837468 17.11521447 20.62157228 19.1285533 19 23 C18.67734163 25.21773267 18.67734163 25.21773267 18.68115234 27.58496094 C18.66128265 28.48559265 18.64141296 29.38622437 18.62094116 30.31414795 C18.60361435 31.75966034 18.60361435 31.75966034 18.5859375 33.234375 C18.56657135 34.22753723 18.5472052 35.22069946 18.5272522 36.24395752 C18.46752678 39.41255129 18.42109889 42.58118153 18.375 45.75 C18.33681377 47.89975533 18.29776166 50.04949546 18.2578125 52.19921875 C18.16183088 57.46602227 18.07777354 62.73289741 18 68 C12.06 68 6.12 68 0 68 C0 45.56 0 23.12 0 0 Z " fill="#F5FBFD" transform="translate(132,149)"/>
<path d="M0 0 C5.94 0 11.88 0 18 0 C18.33 2.31 18.66 4.62 19 7 C19.7425 6.38125 20.485 5.7625 21.25 5.125 C26.13881475 1.34727951 29.66083139 0.65909894 35.8125 0.6875 C36.84213867 0.66333008 36.84213867 0.66333008 37.89257812 0.63867188 C45.09482407 0.63185802 50.69519914 2.9899103 56 8 C58.60490796 11.67053315 59.37148784 14.13426295 59.34057617 18.61645508 C59.34023628 20.26760063 59.34023628 20.26760063 59.33988953 21.95210266 C59.32440567 23.1293541 59.30892181 24.30660553 59.29296875 25.51953125 C59.28872391 26.73323898 59.28447906 27.94694672 59.28010559 29.19743347 C59.26332908 33.0693491 59.22567733 36.94074199 59.1875 40.8125 C59.1724519 43.4394456 59.15876371 46.06639937 59.14648438 48.69335938 C59.11342869 55.12910729 59.06165214 61.56446505 59 68 C53.39 68 47.78 68 42 68 C41.98541748 66.56688477 41.97083496 65.13376953 41.95581055 63.65722656 C41.89785325 58.34186813 41.82061973 53.02693447 41.73754883 47.71191406 C41.70428749 45.41120292 41.67625937 43.11040994 41.65356445 40.80957031 C41.62004127 37.50290032 41.5677254 34.19698112 41.51171875 30.890625 C41.50532883 29.86132874 41.4989389 28.83203247 41.49235535 27.77154541 C41.46266411 26.33050446 41.46266411 26.33050446 41.43237305 24.86035156 C41.41571846 23.59460297 41.41571846 23.59460297 41.39872742 22.30328369 C40.90677535 19.46147967 39.9689989 18.08550568 38 16 C33.93127256 14.64375752 30.24978036 14.33393562 26 15 C22.9264453 16.70540923 20.59420864 18.81158271 19 22 C18.88213309 23.48012824 18.82307062 24.96516466 18.79467773 26.44970703 C18.77473251 27.37051056 18.75478729 28.29131409 18.73423767 29.24002075 C18.70916893 30.73382767 18.70916893 30.73382767 18.68359375 32.2578125 C18.66281265 33.27600067 18.64203156 34.29418884 18.62062073 35.3432312 C18.55510534 38.60375055 18.49623098 41.86435206 18.4375 45.125 C18.39431668 47.33203983 18.35070245 49.53907128 18.30664062 51.74609375 C18.1994219 57.16397775 18.09816004 62.58194461 18 68 C12.06 68 6.12 68 0 68 C0 45.56 0 23.12 0 0 Z " fill="#F7FCFE" transform="translate(486,149)"/>
<path d="M0 0 C5.61 0 11.22 0 17 0 C20.90309289 9.92036109 24.72376514 19.85908979 28.375 29.875 C28.72046875 30.81939941 29.0659375 31.76379883 29.421875 32.73681641 C29.74414062 33.62546387 30.06640625 34.51411133 30.3984375 35.4296875 C30.68380371 36.21585449 30.96916992 37.00202148 31.26318359 37.81201172 C31.95282412 39.85991045 32.50933541 41.89655264 33 44 C36.40945952 36.12839069 39.45666089 28.16082647 42.39697266 20.10498047 C44.85477589 13.37203187 47.4058396 6.6819283 50 0 C55.61 0 61.22 0 67 0 C64.43724818 9.07715943 61.17925812 17.86203282 57.875 26.6875 C57.29527627 28.24257483 56.71560547 29.79766939 56.13598633 31.3527832 C51.55454591 43.6202101 46.83970075 55.83196686 42 68 C36.39 68 30.78 68 25 68 C23.828125 64.94010417 22.65625 61.88020833 21.484375 58.8203125 C20.44343824 56.11893554 19.36407043 53.43555614 18.2734375 50.75390625 C15.30827998 43.35782808 12.58010182 35.87156014 9.82666016 28.39477539 C8.87298628 25.8070359 7.91510483 23.22087891 6.95703125 20.63476562 C6.34349346 18.97144877 5.73020358 17.30804045 5.1171875 15.64453125 C4.69214432 14.49897514 4.69214432 14.49897514 4.2585144 13.33027649 C3.99128571 12.60229355 3.72405701 11.87431061 3.44873047 11.12426758 C3.21652802 10.49490799 2.98432556 9.8655484 2.74508667 9.21711731 C1.72388684 6.17838383 0.88068371 3.08239298 0 0 Z " fill="#F8FCFE" transform="translate(32,149)"/>
<path d="M0 0 C5.61 0 11.22 0 17 0 C17 22.44 17 44.88 17 68 C11.39 68 5.78 68 0 68 C0 45.56 0 23.12 0 0 Z " fill="#F7FCFE" transform="translate(107,149)"/>
<path d="M0 0 C3.94615946 1.93451791 6.13895434 4.34795986 8.15234375 8.2109375 C9.24391043 11.80254398 9.32975963 15.21977542 9.3125 18.9375 C9.32861328 19.62779297 9.34472656 20.31808594 9.36132812 21.02929688 C9.36725717 27.28444017 7.5497955 31.12393176 3.625 35.875 C-0.40176704 39.00130908 -5.03873971 38.62407931 -9.9296875 38.41796875 C-13.94325425 37.87159261 -16.13025941 36.86974059 -19 34 C-22.05687825 29.06931418 -22.46449675 25.18587881 -22.375 19.5625 C-22.38660156 18.83740234 -22.39820313 18.11230469 -22.41015625 17.36523438 C-22.37667884 11.15517483 -21.12305153 6.25528311 -16.7421875 1.6015625 C-11.53256052 -1.44109713 -5.81750597 -0.88934287 0 0 Z " fill="#03A0E3" transform="translate(451,164)"/>
<path d="M0 0 C4.48330267 2.20637499 6.4837343 4.68640165 9 9 C11.04065442 15.12196326 10.87552194 22.41951428 8.8125 28.5 C5.92994302 32.47594066 2.81504577 36.4866999 -2 38 C-6.71250609 38.45604898 -9.00361725 38.49819138 -13.25 36.375 C-17.05611139 33.0879038 -19.40964053 29.7710784 -21 25 C-21.64672789 15.7965646 -21.57717877 9.31095903 -15.5625 2.0625 C-11.13668609 -1.30690104 -5.25451254 -0.84864267 0 0 Z " fill="#04A1E3" transform="translate(306,165)"/>
<path d="M0 0 C0.66 0 1.32 0 2 0 C2.59592001 11.16798248 2.59592001 11.16798248 -1 16 C-5.66104246 20.12491317 -9.83995592 21.55624841 -16.01953125 21.46875 C-18.55826478 20.86786632 -19.47045723 20.10370959 -21 18 C-21.46875 15.87890625 -21.46875 15.87890625 -21.5 13.5625 C-21.54640625 12.41974609 -21.54640625 12.41974609 -21.59375 11.25390625 C-20.68747273 7.81363004 -18.97629582 6.86609024 -16 5 C-13.38384861 4.13798359 -10.91812544 3.42169627 -8.25 2.8125 C-3.76546224 2.07838349 -3.76546224 2.07838349 0 0 Z " fill="#0AA3E3" transform="translate(232,184)"/>
<path d="M0 0 C5.61 0 11.22 0 17 0 C17 5.61 17 11.22 17 17 C11.39 17 5.78 17 0 17 C0 11.39 0 5.78 0 0 Z " fill="#F7FBFD" transform="translate(107,124)"/>
<path d="M0 0 C3.42805005 1.17312369 6.11527235 2.6244517 8.10546875 5.71875 C9.39199961 8.56965407 10 10.86753321 10 14 C1.75 14 -6.5 14 -15 14 C-13.85221675 5.96551724 -13.85221675 5.96551724 -10 2 C-6.22786948 -0.51475368 -4.47964158 -0.44796416 0 0 Z " fill="#0DA3E3" transform="translate(586,163)"/>
</svg>
