<?xml version="1.0" encoding="UTF-8"?>
<svg version="1.1" xmlns="http://www.w3.org/2000/svg" width="160" height="80">
<path d="M0 0 C1.34191406 -0.0309375 1.34191406 -0.0309375 2.7109375 -0.0625 C8.01441052 -0.09378893 11.62661897 0.34125034 16.25 3.25 C16.745 2.755 17.24 2.26 17.75 1.75 C21.20250095 -0.32150057 24.37722195 -0.57988101 28.25 0.25 C31.17743134 2.49228783 32.83605983 4.07186261 34.0625 7.5625 C34.124375 8.119375 34.18625 8.67625 34.25 9.25 C35.1575 9.085 36.065 8.92 37 8.75 C51.71656065 6.74183388 51.71656065 6.74183388 56.875 10.0625 C59.25 12.25 59.25 12.25 61.25 15.25 C61.73210937 14.82847656 62.21421875 14.40695313 62.7109375 13.97265625 C63.65839844 13.15087891 63.65839844 13.15087891 64.625 12.3125 C65.25148438 11.76722656 65.87796875 11.22195312 66.5234375 10.66015625 C70.23378667 7.62975794 73.97211084 7.99502367 78.5625 7.9375 C79.32240234 7.90849609 80.08230469 7.87949219 80.86523438 7.84960938 C84.85277719 7.80457197 86.77770488 7.9497862 90.23046875 10.14453125 C94.81422918 14.92334532 93.47388697 21.16058134 93.5 27.4375 C93.520625 28.65759766 93.54125 29.87769531 93.5625 31.13476562 C93.62025326 44.42523422 93.62025326 44.42523422 88.71484375 49.9921875 C83.33338886 53.9835479 79.99116168 54.48484552 73.375 54.5625 C72.55902344 54.59150391 71.74304688 54.62050781 70.90234375 54.65039062 C64.91660806 54.71386091 64.91660806 54.71386091 61.70703125 52.48046875 C59.46507452 49.04841166 59.54338907 46.21351877 60.25 42.25 C61.75 39.75 61.75 39.75 63.25 38.25 C62.59 38.25 61.93 38.25 61.25 38.25 C60.981875 38.86875 60.71375 39.4875 60.4375 40.125 C59.25 42.25 59.25 42.25 56.25 44.25 C53.06235669 43.96021424 50.11887941 43.52307639 47.0625 42.5625 C45.17840602 42.04329764 45.17840602 42.04329764 43.4375 43.25 C40.15816333 44.74912533 37.70156953 44.00306972 34.25 43.25 C33.26 42.59 32.27 41.93 31.25 41.25 C30.569375 41.765625 29.88875 42.28125 29.1875 42.8125 C25.393144 44.66931251 23.3021416 44.22551557 19.25 43.25 C18.26 42.59 17.27 41.93 16.25 41.25 C15.33541016 41.97896484 15.33541016 41.97896484 14.40234375 42.72265625 C9.87459288 44.91639924 5.77874286 44.72525306 0.8125 44.6875 C-0.5806543 44.7174707 -0.5806543 44.7174707 -2.00195312 44.74804688 C-8.40543773 44.74348923 -12.1246028 43.8753972 -16.75 39.25 C-17.7104601 32.63349708 -16.72884928 29.61192768 -12.75 24.1875 C-11.43683738 22.52552856 -10.10988197 20.87396619 -8.75 19.25 C-9.69875 18.63125 -10.6475 18.0125 -11.625 17.375 C-14.75 15.25 -14.75 15.25 -16.75 13.25 C-17.32731959 8.13659794 -17.32731959 8.13659794 -16.75 5.25 C-11.48778034 -0.15069913 -7.11678431 0.04032172 0 0 Z M14.25 16.25 C13.19104104 17.89270642 12.17752526 19.56485062 11.1875 21.25 C10.63964844 22.178125 10.09179688 23.10625 9.52734375 24.0625 C9.10582031 24.784375 8.68429688 25.50625 8.25 26.25 C10.56 26.91 12.87 27.57 15.25 28.25 C15.25 24.29 15.25 20.33 15.25 16.25 C14.92 16.25 14.59 16.25 14.25 16.25 Z " fill="#AEAEAE" transform="translate(39.75,12.75)"/>
<path d="M0 0 C1.34191406 -0.0309375 1.34191406 -0.0309375 2.7109375 -0.0625 C8.01441052 -0.09378893 11.62661897 0.34125034 16.25 3.25 C16.745 2.755 17.24 2.26 17.75 1.75 C21.20250095 -0.32150057 24.37722195 -0.57988101 28.25 0.25 C31.17743134 2.49228783 32.83605983 4.07186261 34.0625 7.5625 C34.124375 8.119375 34.18625 8.67625 34.25 9.25 C35.219375 9.085 36.18875 8.92 37.1875 8.75 C41.54487763 8.11603727 45.85630704 8.1603328 50.25 8.25 C50.745 9.735 50.745 9.735 51.25 11.25 C50.20199219 11.28738281 49.15398437 11.32476562 48.07421875 11.36328125 C46.69527695 11.42894515 45.31637229 11.49539235 43.9375 11.5625 C42.90206055 11.59633789 42.90206055 11.59633789 41.84570312 11.63085938 C37.95627662 11.79489455 37.95627662 11.79489455 34.54931641 13.48535156 C32.85938272 15.78051141 32.87664742 17.16278345 32.88671875 19.99609375 C32.88736328 20.91583984 32.88800781 21.83558594 32.88867188 22.78320312 C32.90478516 23.74162109 32.92089844 24.70003906 32.9375 25.6875 C32.93427734 26.64205078 32.93105469 27.59660156 32.92773438 28.58007812 C32.96017723 34.68017277 32.96017723 34.68017277 35.25 40.25 C34.4146875 40.4046875 34.4146875 40.4046875 33.5625 40.5625 C31.12745836 41.15305873 31.12745836 41.15305873 28.9375 42.875 C25.30889386 44.73149617 23.14975917 44.18883091 19.25 43.25 C18.26 42.59 17.27 41.93 16.25 41.25 C15.33541016 41.97896484 15.33541016 41.97896484 14.40234375 42.72265625 C9.87459288 44.91639924 5.77874286 44.72525306 0.8125 44.6875 C-0.5806543 44.7174707 -0.5806543 44.7174707 -2.00195312 44.74804688 C-8.40543773 44.74348923 -12.1246028 43.8753972 -16.75 39.25 C-17.7104601 32.63349708 -16.72884928 29.61192768 -12.75 24.1875 C-11.43683738 22.52552856 -10.10988197 20.87396619 -8.75 19.25 C-9.69875 18.63125 -10.6475 18.0125 -11.625 17.375 C-14.75 15.25 -14.75 15.25 -16.75 13.25 C-17.32731959 8.13659794 -17.32731959 8.13659794 -16.75 5.25 C-11.48778034 -0.15069913 -7.11678431 0.04032172 0 0 Z M14.25 16.25 C13.19104104 17.89270642 12.17752526 19.56485062 11.1875 21.25 C10.63964844 22.178125 10.09179688 23.10625 9.52734375 24.0625 C9.10582031 24.784375 8.68429688 25.50625 8.25 26.25 C10.56 26.91 12.87 27.57 15.25 28.25 C15.25 24.29 15.25 20.33 15.25 16.25 C14.92 16.25 14.59 16.25 14.25 16.25 Z " fill="#B0AFAF" transform="translate(39.75,12.75)"/>
<path d="M0 0 C0.94617187 -0.01998047 1.89234375 -0.03996094 2.8671875 -0.06054688 C7.18465301 -0.05751495 9.94386602 0.0683422 13.7890625 2.15234375 C16.02726305 4.93818912 15.99644727 5.94680638 15.625 9.4375 C14.5234375 11.56567383 14.5234375 11.56567383 13 13.64453125 C12.45859375 14.39541016 11.9171875 15.14628906 11.359375 15.91992188 C10.78703125 16.68884766 10.2146875 17.45777344 9.625 18.25 C9.05265625 19.03826172 8.4803125 19.82652344 7.890625 20.63867188 C6.47908066 22.57954534 5.05713562 24.51179814 3.625 26.4375 C4.23988281 26.41429688 4.85476562 26.39109375 5.48828125 26.3671875 C6.29652344 26.34914063 7.10476562 26.33109375 7.9375 26.3125 C9.13826172 26.27769531 9.13826172 26.27769531 10.36328125 26.2421875 C12.625 26.4375 12.625 26.4375 15.625 28.4375 C16.28660925 34.50225143 16.28660925 34.50225143 14.42553711 37.13305664 C10.70773828 39.82650737 5.60560051 38.90472422 1.1875 38.875 C-0.38741211 38.9049707 -0.38741211 38.9049707 -1.99414062 38.93554688 C-3.51104492 38.93458008 -3.51104492 38.93458008 -5.05859375 38.93359375 C-6.44389282 38.93637329 -6.44389282 38.93637329 -7.85717773 38.93920898 C-11.14700621 38.28366768 -12.35594751 37.0723945 -14.375 34.4375 C-14.42853793 28.682172 -12.42529427 25.56919229 -8.875 21.1875 C-5.53325751 17.13594485 -5.53325751 17.13594485 -3.375 12.4375 C-4.468125 12.499375 -5.56125 12.56125 -6.6875 12.625 C-10.375 12.4375 -10.375 12.4375 -12.3125 11.3125 C-13.87922245 8.54769567 -13.76476435 6.55561483 -13.375 3.4375 C-10.01647255 -1.09991461 -5.15915297 -0.03834506 0 0 Z " fill="#F0F7F9" transform="translate(39.375,15.5625)"/>
<path d="M0 0 C0.75087891 -0.01546875 1.50175781 -0.0309375 2.27539062 -0.046875 C6.10726882 -0.01991368 8.13809454 0.24022968 11.47265625 2.28125 C15.78621592 6.86087971 15.9269769 10.77622478 15.9375 16.9375 C15.96199219 17.68837891 15.98648438 18.43925781 16.01171875 19.21289062 C16.03228976 23.11109726 15.79747561 25.10309555 13.765625 28.53515625 C11.5625 30.5 11.5625 30.5 7.9375 30.5 C4.5625 29.5 4.5625 29.5 2.5625 26.5 C2.42028935 23.89754502 2.37447068 21.40882316 2.4375 18.8125 C2.44652344 18.11060547 2.45554687 17.40871094 2.46484375 16.68554688 C2.48836296 14.95688475 2.52423287 13.22839855 2.5625 11.5 C1.9025 11.5 1.2425 11.5 0.5625 11.5 C0.60890625 12.53640625 0.6553125 13.5728125 0.703125 14.640625 C0.74065275 16.01038779 0.77705184 17.38018182 0.8125 18.75 C0.86277344 19.77287109 0.86277344 19.77287109 0.9140625 20.81640625 C0.98172158 24.30084902 0.83818604 26.13685893 -1.296875 28.94921875 C-3.4375 30.5 -3.4375 30.5 -5.9375 31.0625 C-8.4375 30.5 -8.4375 30.5 -10.5625 28.625 C-13.27995155 24.09591408 -13.02264681 20.12081216 -12.9375 14.9375 C-12.95296875 13.99197266 -12.9684375 13.04644531 -12.984375 12.07226562 C-12.96205152 8.12380064 -12.919235 5.33959529 -10.93359375 1.87890625 C-7.34681902 -0.10252017 -3.98934204 -0.08176277 0 0 Z " fill="#F6ECE4" transform="translate(84.4375,23.5)"/>
<path d="M0 0 C0.99 0 1.98 0 3 0 C4.67099977 0.31088368 6.33871537 0.64080332 8 1 C8.08725659 5.2290362 8.1404789 9.45784012 8.1875 13.6875 C8.21263672 14.88568359 8.23777344 16.08386719 8.26367188 17.31835938 C8.27333984 18.47529297 8.28300781 19.63222656 8.29296875 20.82421875 C8.3086792 21.88729248 8.32438965 22.95036621 8.34057617 24.0456543 C7.94933876 27.4394636 7.01186933 29.26422955 5 32 C-0.28927236 35.83472246 -5.75125786 35.30020647 -12 35 C-12.66 33.68 -13.32 32.36 -14 31 C-11.22957891 28.22957891 -9.23466195 28.60203894 -5.375 28.375 C-4.18648437 28.30023438 -2.99796875 28.22546875 -1.7734375 28.1484375 C-0.40058594 28.07496094 -0.40058594 28.07496094 1 28 C1 26.35 1 24.7 1 23 C0.34 23.33 -0.32 23.66 -1 24 C-8.21726041 24.58203713 -8.21726041 24.58203713 -11.4375 22.1875 C-14.88567673 17.36005258 -14.62577215 11.70704198 -14 6 C-10.24012811 -0.26645315 -6.83198688 -0.12175818 0 0 Z " fill="#EE2C74" transform="translate(119,27)"/>
<path d="M0 0 C1.39895508 -0.01836914 1.39895508 -0.01836914 2.82617188 -0.03710938 C4.16325195 -0.04000977 4.16325195 -0.04000977 5.52734375 -0.04296875 C6.348396 -0.04707764 7.16944824 -0.05118652 8.01538086 -0.05541992 C10.0625 0.1875 10.0625 0.1875 12.0625 2.1875 C11.7002269 5.4335853 10.29308015 7.58059785 8.41015625 10.19140625 C7.61641602 11.30225586 7.61641602 11.30225586 6.80664062 12.43554688 C6.25169922 13.19931641 5.69675781 13.96308594 5.125 14.75 C4.0323746 16.27200802 2.93991982 17.79413855 1.84765625 19.31640625 C1.36176025 19.98744385 0.87586426 20.65848145 0.37524414 21.34985352 C-0.76080745 22.94015671 -1.8533942 24.56134131 -2.9375 26.1875 C2.0125 26.1875 6.9625 26.1875 12.0625 26.1875 C12.0625 27.8375 12.0625 29.4875 12.0625 31.1875 C9.70294489 33.54705511 3.79497174 32.37292405 0.625 32.375 C-0.35533203 32.38724609 -1.33566406 32.39949219 -2.34570312 32.41210938 C-3.28220703 32.41404297 -4.21871094 32.41597656 -5.18359375 32.41796875 C-6.04654053 32.42207764 -6.9094873 32.42618652 -7.79858398 32.43041992 C-9.9375 32.1875 -9.9375 32.1875 -11.9375 30.1875 C-11.9375 24.82557492 -8.08355433 21.00505765 -4.9375 17 C-3.83215129 15.56992327 -2.72792943 14.13897465 -1.625 12.70703125 C-0.88830078 11.76500854 -0.88830078 11.76500854 -0.13671875 10.80395508 C1.1345292 9.18823434 1.1345292 9.18823434 2.0625 7.1875 C-1.8975 6.8575 -5.8575 6.5275 -9.9375 6.1875 C-10.2675 4.5375 -10.5975 2.8875 -10.9375 1.1875 C-8.63740227 -1.11259773 -3.08959334 0.00212635 0 0 Z " fill="#0F9EDC" transform="translate(39.9375,18.8125)"/>
<path d="M0 0 C0.76763672 -0.01160156 1.53527344 -0.02320312 2.32617188 -0.03515625 C7.86870737 -0.00616304 7.86870737 -0.00616304 10.15454102 1.52563477 C11.98738838 4.16765547 11.8258986 6.16732615 11.8359375 9.36328125 C11.84173828 11.13541992 11.84173828 11.13541992 11.84765625 12.94335938 C11.83605469 14.17892578 11.82445312 15.41449219 11.8125 16.6875 C11.82410156 17.91146484 11.83570313 19.13542969 11.84765625 20.39648438 C11.84378906 21.58177734 11.83992188 22.76707031 11.8359375 23.98828125 C11.83086182 25.60923706 11.83086182 25.60923706 11.82568359 27.26293945 C11.21512208 32.1577996 9.52217502 35.39614693 5.875 38.6875 C1.8886521 41.44727931 -0.57152056 41.59139438 -5.4375 41.6875 C-6.67242187 41.72488281 -7.90734375 41.76226562 -9.1796875 41.80078125 C-12.5625 41.375 -12.5625 41.375 -15.01171875 39.55078125 C-16.5625 37.375 -16.5625 37.375 -16.5 34.25 C-15.5625 31.375 -15.5625 31.375 -12.5625 29.375 C-12.995625 28.50875 -12.995625 28.50875 -13.4375 27.625 C-13.994375 26.51125 -13.994375 26.51125 -14.5625 25.375 C-14.90796875 24.78976563 -15.2534375 24.20453125 -15.609375 23.6015625 C-17.52809993 19.11929524 -17.08592856 14.14330654 -16.5625 9.375 C-12.64801524 1.40622745 -8.3343602 -0.12659788 0 0 Z M-12.5625 8.375 C-12.8925 8.705 -13.2225 9.035 -13.5625 9.375 C-14.07446901 15.24295253 -14.52915866 20.64552237 -10.5625 25.375 C-8.80774938 27.54012323 -8.80774938 27.54012323 -6.6875 27.60546875 C-5.98625 27.59128906 -5.285 27.57710937 -4.5625 27.5625 C-3.510625 27.55283203 -3.510625 27.55283203 -2.4375 27.54296875 C-0.47193627 27.48206133 -0.47193627 27.48206133 1.4375 26.375 C1.4375 28.025 1.4375 29.675 1.4375 31.375 C0.52226563 31.40078125 -0.39296875 31.4265625 -1.3359375 31.453125 C-3.11871094 31.53820313 -3.11871094 31.53820313 -4.9375 31.625 C-6.12085937 31.67140625 -7.30421875 31.7178125 -8.5234375 31.765625 C-11.67541753 32.03148799 -11.67541753 32.03148799 -12.9765625 34.421875 C-13.16992188 35.06640625 -13.36328125 35.7109375 -13.5625 36.375 C-10.99017294 38.94732706 -9.88352308 38.67286466 -6.3125 38.6875 C-1.6720621 38.59031805 1.58442809 38.16847713 5.4375 35.375 C8.24552098 31.55661047 8.79993712 28.89991146 8.73046875 24.19921875 C8.72080078 23.04228516 8.71113281 21.88535156 8.70117188 20.69335938 C8.67603516 19.49517578 8.65089844 18.29699219 8.625 17.0625 C8.61146484 15.84498047 8.59792969 14.62746094 8.58398438 13.37304688 C8.54869261 10.37324655 8.49938481 7.37435025 8.4375 4.375 C5.67485711 3.77767181 3.27717231 3.375 0.4375 3.375 C-0.84125 3.271875 -2.12 3.16875 -3.4375 3.0625 C-7.98032531 3.02903536 -9.72788481 4.85320538 -12.5625 8.375 Z " fill="#FAF0F4" transform="translate(118.5625,23.625)"/>
<path d="M0 0 C1.32 0 2.64 0 4 0 C4 0.66 4 1.32 4 2 C4.99 1.34 5.98 0.68 7 0 C13.95198903 -0.66209419 13.95198903 -0.66209419 17.23828125 1.4140625 C19.93290259 5.36936034 19.42912322 9.08590695 19.25 13.75 C19.23195313 14.63816406 19.21390625 15.52632812 19.1953125 16.44140625 C19.14827374 18.62870848 19.08257009 20.81379816 19 23 C17.125 23.625 17.125 23.625 15 24 C12.15385976 21.15385976 12.54420924 18.19630858 12.375 14.375 C12.33632812 13.66859375 12.29765625 12.9621875 12.2578125 12.234375 C12.16352276 10.49001476 12.08067109 8.74504309 12 7 C10.34385343 6.61781233 8.67542976 6.28604898 7 6 C5.02728999 7.97271001 5.6352328 11.72533112 5.5 14.4375 C5.13428793 21.73142415 5.13428793 21.73142415 4 24 C2.35 23.67 0.7 23.34 -1 23 C-1.02887512 19.35418313 -1.04675585 15.70839537 -1.0625 12.0625 C-1.07087891 11.02158203 -1.07925781 9.98066406 -1.08789062 8.90820312 C-1.09272461 7.42416992 -1.09272461 7.42416992 -1.09765625 5.91015625 C-1.10289307 4.99371338 -1.10812988 4.07727051 -1.11352539 3.13305664 C-1 1 -1 1 0 0 Z " fill="#F37A1F" transform="translate(77,27)"/>
<path d="M0 0 C2.82643635 0.91859181 3.76055719 1.42374781 5.5 3.8125 C5.90405273 6.93530273 5.90405273 6.93530273 5.93359375 10.74609375 C5.9388356 11.42043961 5.94407745 12.09478546 5.94947815 12.78956604 C5.95589439 14.21427027 5.95456639 15.63902751 5.94604492 17.0637207 C5.9375414 19.23940822 5.96628342 21.41246303 5.99804688 23.58789062 C5.99965927 24.97395755 5.99908062 26.36002911 5.99609375 27.74609375 C5.99794678 29.00478271 5.9997998 30.26347168 6.00170898 31.56030273 C5.41572844 35.35876838 4.54612532 36.54388586 1.5 38.8125 C-1.0625 39.25 -1.0625 39.25 -3.5 38.8125 C-5.1340332 37.60424805 -5.1340332 37.60424805 -6.5 35.8125 C-6.84057617 33.45239258 -6.84057617 33.45239258 -6.79296875 30.70703125 C-6.78330078 29.72412109 -6.77363281 28.74121094 -6.76367188 27.72851562 C-6.73853516 26.70435547 -6.71339844 25.68019531 -6.6875 24.625 C-6.66719727 23.07135742 -6.66719727 23.07135742 -6.64648438 21.48632812 C-6.61111389 18.92786301 -6.56175544 16.3704422 -6.5 13.8125 C-5.84 13.4825 -5.18 13.1525 -4.5 12.8125 C-4.17 19.7425 -3.84 26.6725 -3.5 33.8125 C-1.85 34.4725 -0.2 35.1325 1.5 35.8125 C1.5867982 32.02097666 1.64032207 28.22970704 1.6875 24.4375 C1.71263672 23.35726562 1.73777344 22.27703125 1.76367188 21.1640625 C1.77333984 20.1328125 1.78300781 19.1015625 1.79296875 18.0390625 C1.8086792 17.08596191 1.82438965 16.13286133 1.84057617 15.15087891 C1.67199097 13.99338135 1.67199097 13.99338135 1.5 12.8125 C0.51 12.1525 -0.48 11.4925 -1.5 10.8125 C-0.84 10.8125 -0.18 10.8125 0.5 10.8125 C0.83 8.8325 1.16 6.8525 1.5 4.8125 C0.18 4.8125 -1.14 4.8125 -2.5 4.8125 C-3.49 6.2975 -3.49 6.2975 -4.5 7.8125 C-5.16 7.1525 -5.82 6.4925 -6.5 5.8125 C-6.3125 3.8125 -6.3125 3.8125 -5.5 1.8125 C-2.5 -0.1875 -2.5 -0.1875 0 0 Z " fill="#F4F7F4" transform="translate(64.5,15.1875)"/>
<path d="M0 0 C1.34191406 -0.0309375 1.34191406 -0.0309375 2.7109375 -0.0625 C8.01441052 -0.09378893 11.62661897 0.34125034 16.25 3.25 C16.745 2.755 17.24 2.26 17.75 1.75 C21.2074008 -0.32444048 24.37283968 -0.56987382 28.25 0.25 C31.3125 2.4375 31.3125 2.4375 33.25 5.25 C33.1875 8 33.1875 8 32.25 10.25 C31.59 10.58 30.93 10.91 30.25 11.25 C29.755 7.785 29.755 7.785 29.25 4.25 C25.94432511 3.39612895 25.94432511 3.39612895 22.25 3.25 C18.84019603 5.64607846 17.54945006 8.35164983 16.25 12.25 C15.92 12.25 15.59 12.25 15.25 12.25 C14.981875 11.30125 14.71375 10.3525 14.4375 9.375 C13.50013412 5.99732727 13.50013412 5.99732727 10.25 4.25 C6.76427072 3.81888243 3.25953857 3.92575456 -0.25 3.9375 C-1.21292969 3.92138672 -2.17585938 3.90527344 -3.16796875 3.88867188 C-4.09222656 3.88802734 -5.01648438 3.88738281 -5.96875 3.88671875 C-6.81373047 3.88373779 -7.65871094 3.88075684 -8.52929688 3.87768555 C-11.24035025 4.33221022 -12.06818292 5.12165147 -13.75 7.25 C-14.92574711 9.34989652 -14.92574711 9.34989652 -15.75 11.25 C-16.08 11.25 -16.41 11.25 -16.75 11.25 C-17.0625 8.5 -17.0625 8.5 -16.75 5.25 C-11.30472758 -0.05197578 -7.22242189 0.04092024 0 0 Z " fill="#AEADAD" transform="translate(39.75,12.75)"/>
<path d="M0 0 C4.55555556 0.55555556 4.55555556 0.55555556 6 2 C6.13582458 5.09378215 6.24793936 8.1805271 6.25390625 11.27734375 C6.40408022 15.30042537 6.8956821 16.87776246 9.546875 19.984375 C10.35640625 20.64953125 11.1659375 21.3146875 12 22 C8.625 21.6875 8.625 21.6875 5 21 C2.54608431 17.31912647 2.77197241 14.55644412 2.875 10.3125 C2.88402344 9.61060547 2.89304687 8.90871094 2.90234375 8.18554688 C2.92586296 6.45688475 2.96173287 4.72839855 3 3 C2.34 3 1.68 3 1 3 C1.04640625 4.03640625 1.0928125 5.0728125 1.140625 6.140625 C1.17815275 7.51038779 1.21455184 8.88018182 1.25 10.25 C1.30027344 11.27287109 1.30027344 11.27287109 1.3515625 12.31640625 C1.41911766 15.7954969 1.26476301 17.64548682 -0.84375 20.46875 C-3.439529 22.31212929 -4.88274982 22.34636113 -8 22 C-7.01 20.515 -7.01 20.515 -6 19 C-5.01 19 -4.02 19 -3 19 C-2.95101562 17.79601562 -2.90203125 16.59203125 -2.8515625 15.3515625 C-2.77653657 13.77601802 -2.70098867 12.20049834 -2.625 10.625 C-2.5940625 9.8309375 -2.563125 9.036875 -2.53125 8.21875 C-2.2265625 2.2265625 -2.2265625 2.2265625 0 0 Z " fill="#F9F7F4" transform="translate(84,32)"/>
<path d="M0 0 C1.67542976 0.28604898 3.34385343 0.61781233 5 1 C5.02894547 4.45831586 5.04678 7.91660072 5.0625 11.375 C5.07087891 12.35984375 5.07925781 13.3446875 5.08789062 14.359375 C5.09111328 15.30039062 5.09433594 16.24140625 5.09765625 17.2109375 C5.10289307 18.08024902 5.10812988 18.94956055 5.11352539 19.84521484 C5 22 5 22 4 24 C2.35 23.67 0.7 23.34 -1 23 C-1.02887512 19.35418313 -1.04675585 15.70839537 -1.0625 12.0625 C-1.07087891 11.02158203 -1.07925781 9.98066406 -1.08789062 8.90820312 C-1.09272461 7.42416992 -1.09272461 7.42416992 -1.09765625 5.91015625 C-1.10289307 4.99371338 -1.10812988 4.07727051 -1.11352539 3.13305664 C-1 1 -1 1 0 0 Z " fill="#48A941" transform="translate(62,27)"/>
<path d="M0 0 C2.39706123 -0.10854617 4.78915838 -0.18753157 7.1875 -0.25 C7.86103516 -0.28351562 8.53457031 -0.31703125 9.22851562 -0.3515625 C12.89041975 -0.42301429 14.82150622 -0.11534178 17.92578125 1.890625 C22.3053581 6.34443197 21.22145275 11.56930879 21.25 17.5 C21.270625 18.57121094 21.29125 19.64242187 21.3125 20.74609375 C21.31765625 21.76832031 21.3228125 22.79054688 21.328125 23.84375 C21.34214355 25.25430664 21.34214355 25.25430664 21.35644531 26.69335938 C21.18000488 27.83514648 21.18000488 27.83514648 21 29 C20.01 29.66 19.02 30.32 18 31 C17.98018066 30.25314941 17.96036133 29.50629883 17.93994141 28.73681641 C17.84491789 25.36584395 17.73514741 21.99551071 17.625 18.625 C17.5940625 17.449375 17.563125 16.27375 17.53125 15.0625 C17.49257812 13.94101562 17.45390625 12.81953125 17.4140625 11.6640625 C17.36693115 10.10872803 17.36693115 10.10872803 17.31884766 8.52197266 C17.24045528 5.83190165 17.24045528 5.83190165 15 4 C13.05887211 3.96709953 11.1164584 3.94287591 9.17578125 3.99609375 C6.04150565 4.00172082 3.08822412 3.51470402 0 3 C0 2.01 0 1.02 0 0 Z " fill="#B6B5B5" transform="translate(112,21)"/>
<path d="M0 0 C3 -0.375 3 -0.375 6 0 C8.31332486 3.46998729 8.33957563 4.92509248 8 9 C7.01 10.485 7.01 10.485 6 12 C3 12.375 3 12.375 0 12 C-2.31332486 8.53001271 -2.33957563 7.07490752 -2 3 C-1.34 2.01 -0.68 1.02 0 0 Z " fill="#FEF2F7" transform="translate(113,33)"/>
<path d="M0 0 C0.5775 0.37125 1.155 0.7425 1.75 1.125 C1.5 2.875 1.5 2.875 0.75 5.125 C-0.24 5.85203125 -0.24 5.85203125 -1.25 6.59375 C-4.42289837 10.6094495 -3.92709378 14.89749335 -4 19.875 C-4.02964844 20.85855469 -4.05929688 21.84210937 -4.08984375 22.85546875 C-4.16042411 25.27872776 -4.21317701 27.70103154 -4.25 30.125 C-4.58 30.125 -4.91 30.125 -5.25 30.125 C-5.58 23.525 -5.91 16.925 -6.25 10.125 C-6.58 17.055 -6.91 23.985 -7.25 31.125 C-7.58 31.125 -7.91 31.125 -8.25 31.125 C-8.27900455 27.5208502 -8.29680018 23.91673038 -8.3125 20.3125 C-8.32087891 19.28833984 -8.32925781 18.26417969 -8.33789062 17.20898438 C-8.34111328 16.22607422 -8.34433594 15.24316406 -8.34765625 14.23046875 C-8.35289307 13.32449951 -8.35812988 12.41853027 -8.36352539 11.48510742 C-8.25 9.125 -8.25 9.125 -7.25 6.125 C-7.146875 5.279375 -7.04375 4.43375 -6.9375 3.5625 C-6.25 1.125 -6.25 1.125 -4.4375 -0.3125 C-2.25 -0.875 -2.25 -0.875 0 0 Z " fill="#D8E4D7" transform="translate(65.25,18.875)"/>
<path d="M0 0 C0.33 0 0.66 0 1 0 C1.02187378 0.92280762 1.02187378 0.92280762 1.04418945 1.86425781 C1.11880577 4.66012854 1.2154198 7.45482287 1.3125 10.25 C1.33505859 11.21808594 1.35761719 12.18617187 1.38085938 13.18359375 C1.41630859 14.11816406 1.45175781 15.05273438 1.48828125 16.015625 C1.51446533 16.87446289 1.54064941 17.73330078 1.56762695 18.61816406 C2.07816904 21.43061385 3.14370135 22.8649324 5 25 C0.125 24.125 0.125 24.125 -1 23 C-1.0991657 21.37742456 -1.13079777 19.75060169 -1.1328125 18.125 C-1.13410156 17.14015625 -1.13539062 16.1553125 -1.13671875 15.140625 C-1.13285156 14.10421875 -1.12898438 13.0678125 -1.125 12 C-1.13080078 10.44539063 -1.13080078 10.44539063 -1.13671875 8.859375 C-1.13542969 7.87453125 -1.13414063 6.8896875 -1.1328125 5.875 C-1.13168457 4.96492188 -1.13055664 4.05484375 -1.12939453 3.1171875 C-1 1 -1 1 0 0 Z " fill="#FDFEFD" transform="translate(59,28)"/>
<path d="M0 0 C0.33 0 0.66 0 1 0 C1.1969993 4.0829333 1.38095476 8.16635266 1.5625 12.25 C1.61857422 13.40886719 1.67464844 14.56773438 1.73242188 15.76171875 C1.78076172 16.87675781 1.82910156 17.99179687 1.87890625 19.140625 C1.9260376 20.16704102 1.97316895 21.19345703 2.02172852 22.25097656 C2.00222257 24.71880683 1.72799029 26.65670465 1 29 C0.34 29 -0.32 29 -1 29 C-0.67 19.43 -0.34 9.86 0 0 Z " fill="#A9A9A9" transform="translate(131,29)"/>
<path d="M0 0 C0.33 0 0.66 0 1 0 C1.12117188 0.90363281 1.24234375 1.80726562 1.3671875 2.73828125 C1.53476563 3.91777344 1.70234375 5.09726562 1.875 6.3125 C2.11863281 8.07013672 2.11863281 8.07013672 2.3671875 9.86328125 C2.82300621 13.14530895 2.82300621 13.14530895 5 16 C4.34 16.66 3.68 17.32 3 18 C2.67 16.68 2.34 15.36 2 14 C1.01 14.99 0.02 15.98 -1 17 C-1.66 16.67 -2.32 16.34 -3 16 C-2.690625 15.030625 -2.38125 14.06125 -2.0625 13.0625 C-0.82032903 8.76335509 -0.38315147 4.44657366 0 0 Z " fill="#B8B7B7" transform="translate(101,35)"/>
<path d="M0 0 C1.1875 1.6875 1.1875 1.6875 2 4 C0.39292439 7.66056112 -1.60001973 9.91614112 -5 12 C-5.66 12 -6.32 12 -7 12 C-7 11.01 -7 10.02 -7 9 C-6.21625 8.38125 -5.4325 7.7625 -4.625 7.125 C-1.81916294 4.85360809 -1.03665668 3.39269458 0 0 Z " fill="#AFAEAE" transform="translate(129,54)"/>
<path d="M0 0 C0.87454834 0.00523682 1.74909668 0.01047363 2.65014648 0.01586914 C3.59438477 0.0190918 4.53862305 0.02231445 5.51147461 0.02563477 C6.50469727 0.03401367 7.49791992 0.04239258 8.52124023 0.05102539 C9.51833008 0.05553711 10.51541992 0.06004883 11.54272461 0.06469727 C14.01478872 0.07652532 16.48673541 0.0930069 18.95874023 0.11352539 C18.95874023 0.44352539 18.95874023 0.77352539 18.95874023 1.11352539 C12.35874023 1.44352539 5.75874023 1.77352539 -1.04125977 2.11352539 C-1.37125977 3.76352539 -1.70125977 5.41352539 -2.04125977 7.11352539 C-3.03125977 6.45352539 -4.02125977 5.79352539 -5.04125977 5.11352539 C-2.63796259 0.14671123 -2.63796259 0.14671123 0 0 Z " fill="#E9EDEF" transform="translate(31.041259765625,15.886474609375)"/>
<path d="M0 0 C1.32 0.66 2.64 1.32 4 2 C3.67 3.32 3.34 4.64 3 6 C1.68 6.33 0.36 6.66 -1 7 C-1.625 4.625 -1.625 4.625 -2 2 C-1.34 1.34 -0.68 0.68 0 0 Z " fill="#4CAA46" transform="translate(63,18)"/>
<path d="M0 0 C0.33 0 0.66 0 1 0 C1.309375 0.94875 1.61875 1.8975 1.9375 2.875 C2.87394742 5.86080408 2.87394742 5.86080408 4 8 C3.34 8.66 2.68 9.32 2 10 C0.68 8.68 -0.64 7.36 -2 6 C-1.34 4.02 -0.68 2.04 0 0 Z " fill="#B6B5B5" transform="translate(25,20)"/>
<path d="M0 0 C6.625 -0.25 6.625 -0.25 10 2 C10 2.66 10 3.32 10 4 C6.7 3.67 3.4 3.34 0 3 C0 2.01 0 1.02 0 0 Z " fill="#B9B8B8" transform="translate(112,21)"/>
<path d="M0 0 C0.66 0 1.32 0 2 0 C2 0.66 2 1.32 2 2 C1.34 2 0.68 2 0 2 C-0.66 3.32 -1.32 4.64 -2 6 C-3.32 6 -4.64 6 -6 6 C-5.34 5.01 -4.68 4.02 -4 3 C-3.01 3 -2.02 3 -1 3 C-0.67 2.01 -0.34 1.02 0 0 Z " fill="#ACABAB" transform="translate(101,49)"/>
<path d="M0 0 C2.50357861 0.8345262 4.66785852 1.79371992 7 3 C5.72125 3.309375 4.4425 3.61875 3.125 3.9375 C0.89898325 4.47605244 -0.94739999 4.9737 -3 6 C-2 4 -1 2 0 0 Z " fill="#FAE6EE" transform="translate(110,24)"/>
<path d="M0 0 C4 4.75 4 4.75 4 7 C2.68 6.67 1.36 6.34 0 6 C-0.38218767 4.34385343 -0.71395102 2.67542976 -1 1 C-0.67 0.67 -0.34 0.34 0 0 Z " fill="#F7FBFD" transform="translate(27,20)"/>
<path d="M0 0 C0.33 0.66 0.66 1.32 1 2 C-0.30406884 4.01920337 -1.63823419 6.01924973 -3 8 C-3.33 8 -3.66 8 -4 8 C-4.25 5.6875 -4.25 5.6875 -4 3 C-2 1.1875 -2 1.1875 0 0 Z " fill="#ACACAC" transform="translate(53,29)"/>
<path d="M0 0 C1.125 1.75 1.125 1.75 2 4 C1.125 6.25 1.125 6.25 0 8 C-0.99 7.67 -1.98 7.34 -3 7 C-2.01 4.69 -1.02 2.38 0 0 Z " fill="#B9B8B8" transform="translate(129,54)"/>
<path d="M0 0 C1.32 0.33 2.64 0.66 4 1 C3.67 1.66 3.34 2.32 3 3 C0.03 3 -2.94 3 -6 3 C-5.67 2.34 -5.34 1.68 -5 1 C-3.35 1.33 -1.7 1.66 0 2 C0 1.34 0 0.68 0 0 Z " fill="#BBBABA" transform="translate(49,39)"/>
<path d="" fill="#FDC74D" transform="translate(0,0)"/>
<path d="" fill="#FDC74D" transform="translate(0,0)"/>
</svg>
