<?xml version="1.0" encoding="UTF-8"?>
<svg xmlns="http://www.w3.org/2000/svg" version="1.1" xmlns:xlink="http://www.w3.org/1999/xlink" viewBox="0 0 1198.3 739.5">
  <defs>
    <style>
      .cls-1 {
        fill: #00aeef;
      }

      .cls-2 {
        fill: #fff;
      }

      .cls-3 {
        fill: none;
      }

      .cls-4 {
        fill: #1f419b;
      }

      .cls-5 {
        clip-path: url(#clippath);
      }
    </style>
    <clipPath id="clippath">
      <rect class="cls-3" x="1338.4" y="-28.4" width="2085.8" height="801.2"/>
    </clipPath>
  </defs>
  <!-- Generator: Adobe Illustrator 28.6.0, SVG Export Plug-In . SVG Version: 1.2.0 Build 709)  -->
  <g>
    <g id="Layer_1">
      <g class="cls-5">
        <image width="3280" height="1260" transform="translate(1338.4 -28.4) scale(.6)" xlink:href="acb-logo-pay2s-1.png"/>
      </g>
      <g>
        <rect class="cls-2" width="1198.3" height="739.5"/>
        <g>
          <path class="cls-4" d="M618.2,214.6c45.4-5.7,92.8,10.3,125.4,42.3,2.7,3,1.9,7.8-1,10.3-10.3,10.4-20.7,20.7-31.1,31-2.7,3.3-8.1,3.4-11.1.4-15.1-13.6-34.8-22-55.1-22.8-21.7-1.1-43.6,6.4-60.3,20.3-17.2,14.1-28.9,34.6-32.8,56.5-3.8,21.3-.3,43.8,10,62.9,9.6,17.9,25.2,32.7,43.9,40.9,19.2,8.5,41.6,9.7,61.6,3.2,12.7-4,24.4-11.2,34.2-20.3,2.6-2.8,7.6-3.3,10.4-.5,10.7,10.5,21.2,21.2,31.9,31.8,3,2.6,3.6,7.6.8,10.5-23.2,23.2-54,38.7-86.5,43.3-33.8,4.9-69.1-1.7-98.7-18.8-34.1-19.5-60.3-52.3-71.7-90-11.2-36.6-8.5-77.3,7.7-112,14.8-32.1,40.8-58.8,72.6-74.3,15.6-7.7,32.5-12.7,49.8-14.7Z"/>
          <path class="cls-4" d="M308.9,229c1.4-4.7,6-8.2,10.9-8,19.4,0,38.8,0,58.2,0,5-.4,9.9,3.1,11.3,7.9,34.4,94.2,69,188.3,103.3,282.5,1.7,3.3-1.2,7.4-4.8,6.9-19.4,0-38.8,0-58.2,0-4.9.3-9.6-3.3-10.8-8-6.7-20-13.3-40.1-20-60.1-34.9,0-69.7,0-104.6,0-6.9,20.1-13.5,40.3-20.2,60.5-1.3,4.7-6.1,8-11,7.7-18.5,0-37.1.1-55.6,0-3.5,0-5.4-4.1-3.8-7,35-94.1,70.2-188.1,105.3-282.2ZM309.8,397.9c24.3,0,48.6,0,72.9,0-12-37.3-24-74.7-36-112-12.4,37.3-24.6,74.7-36.9,112Z"/>
          <path class="cls-4" d="M767.4,229.4c-.5-4.3,3-8.7,7.5-8.3,27.8,0,55.6,0,83.4,0,23.4,0,47.6-1,69.9,7.3,18,6.3,35,18.1,43.6,35.6,7.6,15.9,9.9,34.6,5.5,51.8-6.3,20.3-21.8,38.5-42.5,44.8,20.2,4.8,39.4,16.5,50,34.7,11.3,17.4,12,39.4,8.2,59.2-3.9,20.6-17.8,38.6-36.2,48.4-22.1,11.9-47.7,14.6-72.3,15.4-36.6,0-73.2,0-109.8,0-4.4.3-7.9-4-7.5-8.2,0-93.5,0-187.1,0-280.7ZM833.1,273.2c0,22.2,0,44.5,0,66.7,13.3,0,26.5,0,39.8,0,9-.1,18.2-1.7,26-6.4,7.8-4.6,13.2-13.1,14-22.1,1-9.2-.5-19.3-7-26.4-7.8-8.9-20.3-11.4-31.7-11.8-13.7-.1-27.4,0-41.1,0ZM833.1,389c0,25.8,0,51.6,0,77.5,16.3,0,32.7.2,49-.2,12.9-.5,27-3,36.1-13,8.7-8.6,9.9-21.8,8.3-33.3-1.4-10.4-8.6-19.4-17.8-24.2-11.3-6.1-24.6-7-37.2-6.9-12.8,0-25.6,0-38.4,0Z"/>
          <path class="cls-1" d="M632.7,317.7c12.9-2.6,26.9-.3,38.1,6.6,12.6,7.6,21.8,20.6,24.6,35,2.6,13.2,0,27.3-7.1,38.7-8.2,13.1-22.3,22.3-37.5,24.3-13.3,1.9-27.3-1.5-38.2-9.3-11.2-8-19.2-20.4-21.5-34-2.3-12.9.3-26.6,7.4-37.6,7.6-12.1,20.2-20.8,34.3-23.6Z"/>
        </g>
      </g>
      <g>
        <path class="cls-4" d="M412.3,1156.1c-6.9-54.6,12.4-111.8,51-151,3.6-3.2,9.4-2.3,12.4,1.2,12.5,12.5,25,24.9,37.4,37.4,4,3.3,4.1,9.7.5,13.3-16.3,18.2-26.5,41.9-27.5,66.4-1.3,26.1,7.7,52.5,24.4,72.6,17,20.7,41.7,34.9,68.1,39.5,25.6,4.6,52.8.4,75.7-12,21.6-11.6,39.4-30.4,49.2-52.9,10.2-23.2,11.7-50.1,3.9-74.2-4.9-15.3-13.4-29.4-24.4-41.1-3.4-3.2-4-9.1-.6-12.5,12.7-12.9,25.5-25.6,38.3-38.4,3.1-3.6,9.1-4.4,12.7-1,27.9,27.9,46.6,65.1,52.1,104.2,5.9,40.7-2.1,83.3-22.7,118.9-23.4,41.1-63,72.7-108.3,86.3-44.1,13.5-93.1,10.2-134.9-9.3-38.6-17.8-70.8-49.2-89.5-87.4-9.3-18.8-15.3-39.2-17.7-60Z"/>
        <path class="cls-1" d="M536.5,1138.5c-3.2-15.6-.4-32.3,8-45.9,9.1-15.2,24.8-26.2,42.2-29.6,15.9-3.2,32.9-.1,46.6,8.6,15.7,9.8,26.8,26.8,29.3,45.2,2.3,16-1.8,32.9-11.2,46-9.6,13.5-24.6,23.1-41,25.9-15.5,2.8-32-.4-45.3-8.9-14.5-9.1-25.1-24.4-28.5-41.2Z"/>
      </g>
    </g>
  </g>
</svg>