<?xml version="1.0" encoding="UTF-8"?>
<svg xmlns="http://www.w3.org/2000/svg" version="1.1" xmlns:xlink="http://www.w3.org/1999/xlink" viewBox="0 0 1198.3 739.5">
  <defs>
    <style>
      .cls-1 {
        fill: none;
      }

      .cls-2 {
        fill: #ec1a3b;
      }

      .cls-3 {
        clip-path: url(#clippath);
      }

      .cls-4 {
        fill: #141ed2;
      }
    </style>
    <clipPath id="clippath">
      <rect class="cls-1" x="1338.4" y="-28.4" width="2085.8" height="801.2"/>
    </clipPath>
  </defs>
  <!-- Generator: Adobe Illustrator 28.6.0, SVG Export Plug-In . SVG Version: 1.2.0 Build 709)  -->
  <g>
    <g id="Layer_1">
      <g>
        <rect class="cls-1" width="1198.3" height="739.5"/>
        <g>
          <g>
            <path class="cls-2" d="M494,353.5c-3.8-5.2-9.1-8.6-14.9-10-.2,0-.4,0-.6-.1-.2,0-.4,0-.5-.1-.2,0-.4,0-.6-.1-.2,0-.4,0-.6-.1-.2,0-.4,0-.6-.1-.2,0-.4,0-.5-.1-.2,0-.4,0-.6-.1-.2,0-.4,0-.5-.1-.2,0-.4,0-.6-.1-.2,0-.4,0-.5-.1-.2,0-.4,0-.5-.1-.2,0-.4,0-.6-.1-.2,0-.4,0-.6-.1-.2,0-.3,0-.5-.2-.2,0-.4,0-.6-.1-.2,0-.4,0-.5-.1-.2,0-.4,0-.6-.1-.2,0-.4,0-.6-.1-.2,0-.4,0-.5-.1-.2,0-.4,0-.5-.1-.2,0-.4,0-.6-.2-.2,0-.4,0-.6-.1-.2,0-.4,0-.5-.1-.2,0-.4,0-.6-.1-.2,0-.4,0-.5-.1-.2,0-.4,0-.5-.1-.2,0-.4,0-.5-.1-.2,0-.4,0-.6-.1-.2,0-.4,0-.5-.1-.2,0-.4,0-.5-.1-.2,0-.4,0-.5-.1-.2,0-.4,0-.6-.1s-.4,0-.6-.2c-.2,0-.4,0-.6-.1-.2,0-.4,0-.5-.1-.2,0-.4,0-.6-.1-.2,0-.4,0-.6-.1-.2,0-.4,0-.5-.1-.2,0-.4,0-.5-.1-.2,0-.4,0-.6-.1-.2,0-.4,0-.6-.1-.1,0-.3,0-.5-.1-.2,0-.4,0-.6-.1-.2,0-.3-.1-.5-.2-.2,0-.4,0-.6-.1-.2,0-.4,0-.6-.1-.2,0-.4,0-.5-.1-.2,0-.4,0-.5-.1-.2,0-.4,0-.6-.1-.2,0-.4,0-.5-.1-.2,0-.4,0-.6-.1-.2,0-.4,0-.6-.1-.2,0-.4,0-.5-.2-.2,0-.4,0-.6-.1-.2,0-.4,0-.5-.1-.2,0-.4,0-.6-.1-.2,0-.4,0-.5-.1-.2,0-.4,0-.5-.1-.2,0-.4,0-.5-.1-.2,0-.4,0-.6-.1-.2,0-.4,0-.5-.1-.2,0-.4,0-.6-.1-.2,0-.4,0-.5-.1-.2,0-.4,0-.5-.1-.2,0-.4,0-.5-.1-.2,0-.4,0-.6-.1-.2,0-.4,0-.5-.1-.2,0-.4,0-.6-.1-.2,0-.4,0-.6-.1-.2,0-.4,0-.6-.1-.2,0-.4,0-.6-.1-.2,0-.4,0-.5-.1-.2,0-.4,0-.6-.1-.2,0-.4,0-.6-.1-.2,0-.4,0-.6-.2-.2,0-.3,0-.5-.1-.2,0-.4,0-.6,0-.2,0-.4-.1-.5-.1-.2,0-.4,0-.6-.1-.2,0-.4,0-.5-.1-.2,0-.4,0-.6-.1-.2,0-.4,0-.6-.1-.2,0-.4,0-.5-.1-.2,0-.4,0-.5-.1-.2,0-.4,0-.6-.1-.2,0-.4,0-.5-.1-.2,0-.4,0-.6-.1-.2,0-.4,0-.6-.1-.2,0-.4,0-.5-.2-.2,0-.4,0-.6-.1-.2,0-.4,0-.6-.1-.2,0-.4,0-.5-.1-.2,0-.4,0-.6-.1-.2,0-.4,0-.5-.2-.2,0-.4,0-.5-.1-.2,0-.4,0-.6-.1-.2,0-.4,0-.5-.1-.2,0-.4,0-.6-.1-.2,0-.4,0-.6-.2-.2,0-.4,0-.5-.1-.2,0-.4,0-.5-.1-.2,0-.4,0-.6-.1-.2,0-.4,0-.6-.1-.2,0-.3,0-.5-.1-.2,0-.4,0-.5-.1-.2,0-.4,0-.5-.1-.2,0-.4,0-.6-.1-.2,0-.4,0-.5-.1-.2,0-.4,0-.6-.1-.2,0-.4,0-.5-.1-.2,0-.4,0-.5-.1-.2,0-.4,0-.6-.1-.2,0-.4,0-.6-.1-.2,0-.4,0-.6-.1-.2,0-.4,0-.6-.1-.2,0-.4,0-.5-.1-.2,0-.4,0-.5-.1-.2,0-.4,0-.6-.1-.2,0-.4,0-.5-.1-.2,0-.4,0-.5-.1-.2,0-.4,0-.6-.1-.2,0-.4,0-.6-.1-.2,0-.4,0-.5-.1-.2,0-.4,0-.5-.1-.2,0-.4,0-.6-.1-.2,0-.4,0-.6-.1-.2,0-.4,0-.6-.1-.2,0-.4,0-.5-.1-.2,0-.4,0-.6-.1-.2,0-.4,0-.5-.1-.2,0-.4,0-.6-.1-.2,0-.3,0-.6-.1-.2,0-.3,0-.5-.1-.2,0-.3,0-.5-.1-.2,0-.4,0-.6-.1-5.5-1.5-11.6-.5-16.6,3.1-8.8,6.4-10.7,18.6-4.3,27.4,2.1,2.9,4.9,5,7.9,6.4.2,0,.3.1.5.2.2,0,.4.1.5.2.2,0,.3.1.5.2.2,0,.4.2.5.2.2,0,.4.1.5.2.2,0,.4.1.5.2.2,0,.4.1.5.2.2,0,.3.2.5.2.2,0,.4.1.5.2.2,0,.4.1.5.2.1,0,.3.2.5.2.1,0,.3.1.5.2.1,0,.3.1.5.2.2,0,.4.1.5.2.2,0,.4.2.5.2.2,0,.4.1.5.2s.3.1.5.2c.2,0,.4.1.5.2.2,0,.4.2.5.2.2,0,.4.1.5.2.2,0,.4.1.5.2.2,0,.3.2.5.2.2,0,.4.2.5.2.2,0,.3.1.5.2.2,0,.4.1.5.2.1,0,.3.2.5.2.2,0,.3.1.5.2.2,0,.3.1.5.2.2,0,.3.2.5.2.2,0,.3.1.5.2.2,0,.3.1.5.2.2,0,.3.2.5.2.2,0,.3.2.5.2.2,0,.3.1.5.2.2,0,.4.1.5.2.2,0,.4.1.5.2.2,0,.3.1.5.2.2,0,.4.1.5.2.2,0,.4.1.5.2.2,0,.4.2.5.2.2,0,.4.2.5.2.2,0,.4.1.5.2.2,0,.3.2.5.2.2,0,.3.2.5.2.2,0,.3.1.5.2.2,0,.3.1.5.2.1,0,.3.1.5.2.2,0,.4.1.5.2.1,0,.3.1.5.2.2,0,.3.1.5.2.2,0,.3.1.5.2.2,0,.3.1.5.2.2,0,.4.1.5.2.2,0,.3.1.5.2.2,0,.4.1.5.2.2,0,.4.1.5.2.2,0,.3.2.5.2.2,0,.4.1.5.2.2,0,.3.1.5.2.2,0,.4.1.5.2.2,0,.3.2.5.2.1,0,.3.2.5.2.2,0,.3.1.5.2.2,0,.3.2.5.2.2,0,.4.1.5.2.2,0,.4.1.5.2.2,0,.4.1.5.2.2,0,.4.1.5.2.2,0,.4.1.5.2.2,0,.3.1.5.2.2,0,.3.1.5.2.2,0,.3.2.5.2.2,0,.4.1.5.2.2,0,.4.1.5.2.2,0,.3.1.5.2.2,0,.4.1.5.2.2,0,.3.1.5.2.2,0,.3.1.5.2.2,0,.3.2.5.2.2,0,.3.1.5.2.2,0,.4.1.5.2.2,0,.3.1.5.2.2,0,.4.1.5.2.2,0,.4.2.5.2.2,0,.4.1.5.2.2,0,.4.2.5.2.2,0,.3.1.5.2.2,0,.3.1.5.2.2,0,.4.1.5.2.2,0,.4.1.5.2.2,0,.4.1.5.2.2,0,.3.1.5.2.2,0,.3.1.5.2.2,0,.4.1.5.2.2,0,.3.1.5.2.1,0,.3.1.5.2.2,0,.4.2.5.2.2,0,.3.1.5.2.2,0,.4.1.5.2.1,0,.3.1.5.2.2,0,.4.2.5.2.2,0,.4.1.5.2.2,0,.3.1.5.2.2,0,.4.2.5.2.2,0,.4.1.5.2.2,0,.3.1.5.2.2,0,.4.2.5.2.1,0,.3.1.5.2.2,0,.3.1.5.2.2,0,.3.2.5.2.2,0,.3.2.5.2.2,0,.3.1.5.2.2,0,.3.1.5.2.2,0,.4.1.5.2.2,0,.3.1.5.2.2,0,.4.1.5.2.2,0,.4.1.5.2.2,0,.3.1.5.2.2,0,.4.1.5.2.2,0,.4.1.5.2.2,0,.4.1.5.2.2,0,.4.1.5.2.2,0,.3.1.5.2.2,0,.4.1.5.2.2,0,.4.1.5.2.2,0,.3.2.5.2.2,0,.4.1.5.2.2,0,.4.1.5.2.2,0,.3.1.5.2.2,0,.4.1.6.2.2,0,.3.1.5.2.2,0,.3.1.5.2.2,0,.3.2.5.2.2,0,.4.1.5.2.2,0,.3.1.5.2,8.3,3.9,18.5,3.4,26.5-2.4,11.6-8.5,14.2-24.7,5.8-36.3"/>
            <path class="cls-2" d="M404.2,387.8c-.2,0-.4,0-.5,0-.2,0-.4,0-.5.1-.2,0-.4,0-.6.1-.2,0-.4,0-.5.1-.2,0-.4,0-.6.1-.2,0-.4,0-.5.1-.2,0-.4,0-.5.1-.2,0-.3,0-.5.1-.2,0-.4,0-.5.1-.2,0-.4,0-.5.1-.2,0-.4,0-.6.1-.2,0-.3,0-.5.1-.2,0-.3,0-.5.1-.2,0-.4,0-.6,0-.2,0-.4.1-.5.1-.2,0-.4.1-.5.1-.2,0-.4,0-.5.1-.2,0-.4,0-.5.1-.2,0-.4,0-.5.1-.2,0-.4,0-.5,0-.2,0-.4,0-.6.1-.2,0-.3,0-.5.1-.2,0-.3,0-.5,0-.2,0-.4,0-.6.1-.2,0-.4,0-.5.1-.2,0-.4,0-.5.1-.2,0-.4,0-.6.1-.2,0-.4,0-.5.1-.2,0-.4,0-.5.1-.2,0-.4,0-.5.1-.2,0-.4,0-.5.1-.2,0-.3,0-.6.1-.2,0-.4,0-.5.1-.2,0-.3,0-.5.1-.2,0-.4,0-.6.1-.2,0-.4,0-.5,0-.2,0-.4,0-.5.1-.2,0-.4,0-.5.1-.2,0-.4,0-.6.1-.2,0-.4,0-.5.1-.2,0-.4,0-.5.1-.2,0-.4,0-.6.1-.2,0-.4,0-.5.1-.2,0-.4,0-.5.1-.2,0-.4,0-.5.1-.2,0-.4,0-.6.1-.2,0-.4,0-.5.1-.2,0-.4,0-.5.1-.2,0-.4,0-.5.1-.2,0-.3,0-.5.1-.2,0-.4,0-.5.1-.2,0-.4,0-.5.1-.2,0-.4,0-.5.1-.2,0-.4,0-.6.1-.2,0-.4,0-.5.1-.2,0-.4,0-.5.1-.2,0-.4,0-.5.1-.2,0-.4,0-.6.1-.2,0-.3,0-.5.1-.2,0-.4,0-.5.1-.2,0-.4,0-.5.1-.2,0-.4,0-.5.1-.2,0-.4,0-.5.1-.2,0-.4,0-.6.1-.2,0-.4,0-.6,0-.2,0-.3,0-.5.1-.2,0-.4,0-.6.1-.2,0-.4,0-.5,0-.2,0-.4,0-.5.1-.2,0-.4,0-.5.1-.2,0-.4,0-.5.1-.2,0-.4,0-.5.1-.2,0-.4,0-.5.1-.2,0-.4,0-.5.1-.2,0-.4,0-.6.1-.2,0-.4,0-.5.1-.2,0-.3,0-.5.1-.2,0-.4,0-.6.1-.2,0-.4,0-.5.1-.2,0-.4,0-.6.1-.2,0-.4,0-.5.1-.2,0-.4,0-.5.1-.2,0-.4,0-.6.1-.2,0-.4,0-.5.1-.2,0-.4,0-.5.1-.2,0-.4,0-.5.1-.2,0-.3,0-.5.1-.2,0-.4,0-.6.1-.2,0-.3,0-.5.1-.2,0-.4,0-.6.1-.2,0-.3,0-.5.1-.2,0-.4,0-.5.1-.2,0-.4,0-.5.1-.2,0-.4,0-.5.1-.2,0-.4,0-.5.1-.2,0-.4,0-.5.1-.2,0-.4,0-.5.1-.2,0-.4,0-.5.1-.2,0-.3,0-.5,0-.2,0-.4,0-.5.1-.2,0-.4,0-.6.1-.2,0-.4,0-.5.1-.2,0-.3,0-.5,0-.2,0-.4,0-.6.1-.2,0-.3,0-.5.1-.2,0-.4,0-.5.1-.2,0-.4,0-.5.1-.2,0-.4,0-.5.1-.2,0-.3,0-.5.1-.2,0-.3,0-.5.1-.2,0-.4,0-.6.1-.2,0-.3,0-.5.1-.2,0-.4,0-.5.1-.2,0-.4,0-.5.1-.2,0-.4,0-.5.1-.2,0-.4,0-.6.1-.2,0-.4,0-.6.1-.2,0-.4,0-.5.1-.2,0-.3,0-.5.1-.2,0-.4,0-.5.1-.2,0-.4,0-.5.1-.2,0-.4,0-.5.1-.2,0-.4.1-.6.1-.2,0-.4,0-.5.1-.2,0-.4,0-.5,0-.2,0-.4.1-.6.1-.2,0-.3,0-.5.1-.2,0-.4,0-.6.1-.2,0-.4,0-.5.1-.2,0-.4,0-.6.1-.2,0-.4,0-.5.1-.2,0-.4,0-.5.1-.2,0-.4,0-.5,0-.2,0-.4,0-.5.1-.2,0-.3,0-.5.1-.2,0-.4,0-.5.1-.2,0-.4,0-.5,0-.2,0-.4,0-.6.1-.2,0-.4,0-.5.1-.2,0-.4,0-.6.1-.2,0-.3,0-.5.1-.2,0-.4,0-.5.1-.2,0-.3.1-.5.1-.2,0-.4,0-.6.1-.2,0-.3,0-.5.1-.2,0-.4,0-.5.1-.2,0-.3,0-.5.1-.2,0-.4,0-.5,0-.2,0-.4,0-.5.1-.2,0-.4,0-.5.1-.2,0-.4,0-.6,0-.2,0-.3,0-.5.1-.2,0-.4,0-.5.1-.2,0-.4,0-.6.1-.2,0-.4,0-.5.1-.2,0-.4,0-.5.1-5,1-9.7,3.3-13.5,7.2-10.1,10.1-10.1,26.6,0,36.8,7.7,7.7,19.1,9.6,28.6,5.6.2,0,.3-.1.5-.2.2,0,.3-.2.5-.2.2,0,.3-.2.5-.2.2,0,.4-.2.5-.2.2,0,.3-.2.5-.2.2,0,.4-.1.5-.2.2,0,.3-.2.5-.2.2,0,.4-.2.5-.2.2,0,.3-.1.5-.2.1,0,.3-.1.5-.2.2,0,.3-.2.5-.2.2,0,.4-.1.5-.2.2,0,.4-.2.5-.2.2,0,.3-.1.5-.2.2,0,.3-.1.5-.2.2,0,.3-.2.5-.2.2,0,.3-.2.5-.2.2,0,.3-.1.5-.2.2,0,.4-.2.5-.2.1,0,.3-.1.5-.2.2,0,.4-.1.5-.2.2,0,.4-.1.5-.2.2,0,.3-.2.5-.2.2,0,.3-.1.5-.2.2,0,.4-.1.5-.2.1,0,.3-.2.5-.2.2,0,.3-.1.5-.2.2,0,.4-.1.5-.2.2,0,.3-.2.5-.2.2,0,.3-.1.5-.2.2,0,.3-.1.5-.2.2,0,.4-.1.5-.2.2,0,.3-.2.5-.2.2,0,.3-.2.5-.2.2,0,.3-.2.5-.2.2,0,.3-.1.5-.2.2,0,.3-.2.5-.2.2,0,.3-.1.5-.2.2,0,.3-.1.5-.2.2,0,.3-.1.5-.2.2,0,.4-.2.5-.2.2,0,.3-.1.5-.2.2,0,.4-.1.5-.2.2,0,.4-.2.5-.2.2,0,.3-.1.5-.2.2,0,.3-.2.5-.2.2,0,.4-.2.5-.2.2,0,.3-.2.5-.2.2,0,.3-.1.5-.2.2,0,.3-.1.5-.2.2,0,.4-.1.5-.2.2,0,.3-.2.5-.2.2,0,.3-.2.5-.2.2,0,.3-.2.5-.2.2,0,.3-.2.5-.2.2,0,.3-.2.5-.2.2,0,.3-.2.5-.2.2,0,.3-.1.5-.2.2,0,.3-.1.5-.2.2,0,.3-.1.5-.2.2,0,.4-.2.5-.2.2,0,.3-.1.5-.2.2,0,.4-.1.5-.2.2,0,.3-.2.5-.2.2,0,.3-.2.5-.2.2,0,.3-.1.5-.2.2,0,.4-.2.5-.2.2,0,.3-.2.5-.2.2,0,.3-.2.5-.2.2,0,.4-.2.5-.2.2,0,.3-.1.5-.2.2,0,.3-.2.5-.2.2,0,.4-.1.5-.2.2,0,.4-.1.5-.2.2,0,.3-.2.5-.2.2,0,.3-.1.5-.2.2,0,.4-.1.5-.2.2,0,.3-.1.5-.2.2,0,.3-.1.5-.2.2,0,.3-.1.5-.2.2,0,.4-.1.5-.2.2,0,.3-.2.5-.2.2,0,.3-.1.5-.2.1,0,.3-.1.5-.2.2,0,.3-.2.5-.2.2,0,.3-.1.5-.2.2,0,.3-.2.5-.2.2,0,.3-.2.5-.2.2,0,.3-.1.5-.2.1,0,.3-.2.5-.2.2,0,.3-.1.5-.2.2,0,.3-.1.5-.2.2,0,.3-.1.5-.2.2,0,.3-.2.5-.2.2,0,.3-.1.5-.2.2,0,.4-.2.5-.2.2,0,.3-.2.5-.2.2,0,.3-.1.5-.2.2,0,.3-.2.5-.2.2,0,.3-.1.5-.2.2,0,.3-.2.5-.2.2,0,.3-.2.5-.2.2,0,.3-.1.5-.2.2,0,.4-.2.5-.2.2,0,.3-.2.5-.2.2,0,.3-.1.5-.2.2,0,.3-.2.5-.2.2,0,.3-.2.5-.2.2,0,.3-.2.5-.2.2,0,.4-.1.5-.2.2,0,.3-.1.5-.2.2,0,.3-.2.5-.2.2,0,.3-.2.5-.2.2,0,.3-.1.5-.2.2,0,.3-.1.5-.2.2,0,.4-.1.5-.2.2,0,.4-.1.5-.2.2,0,.3-.1.5-.2.2,0,.3-.2.5-.2.2,0,.3-.2.5-.2.2,0,.3-.1.5-.2.2,0,.3-.1.5-.2.2,0,.3-.1.5-.2.2,0,.3-.1.5-.2.2,0,.3-.1.5-.2.2,0,.4-.1.5-.2.2,0,.3-.2.5-.2.2,0,.4-.1.5-.2.2,0,.3-.1.5-.2.2,0,.3-.2.5-.2.2,0,.3-.2.5-.2.2,0,.3-.1.5-.2.2,0,.3-.1.5-.2.2,0,.3-.2.5-.2.2,0,.4-.1.5-.2.2,0,.3-.2.5-.2.2,0,.3-.2.5-.2.2,0,.3-.2.5-.2.1,0,.3-.2.5-.2.2,0,.3-.1.5-.2.2,0,.4-.1.5-.2.2,0,.3-.2.5-.2.2,0,.3-.2.5-.2.2,0,.3-.1.5-.2.2,0,.3-.1.5-.2.2,0,.3-.1.5-.2.2,0,.4-.2.5-.2.2,0,.3-.1.5-.2.2,0,.3-.1.5-.2.2,0,.3-.2.5-.2.2,0,.3-.2.5-.2.2,0,.3-.1.5-.2.2,0,.3-.1.5-.2.2,0,.3-.2.5-.2.2,0,.3-.1.5-.2.2,0,.4-.1.5-.2,2.2-.9,4.2-2.2,6-3.9,6.9-6.9,6.9-18.1,0-25-4.4-4.4-10.6-6-16.3-4.7"/>
            <path class="cls-2" d="M302.4,167.8c0,.2-.2.3-.3.5-.1.2-.2.3-.3.5,0,.1-.2.3-.3.5,0,.1-.2.3-.3.5,0,.1-.2.3-.3.5,0,.1-.2.3-.3.5,0,.2-.2.3-.3.5,0,.1-.2.3-.3.5,0,.2-.2.3-.3.5,0,.1-.2.3-.3.5,0,.1-.2.3-.3.5-.1.2-.2.3-.3.5-.1.1-.2.3-.3.5-.1.2-.2.3-.3.5,0,.2-.2.3-.3.5-.1.2-.2.3-.3.5-.1.2-.2.3-.3.5,0,.2-.2.3-.3.5-.1.2-.2.3-.3.5,0,.2-.2.3-.3.5-.1.2-.2.3-.3.5,0,.2-.2.3-.3.5,0,.2-.2.3-.3.5,0,.2-.2.3-.3.5,0,.1-.2.3-.3.5-.1.2-.2.3-.3.5-.1.2-.2.3-.3.5,0,.1-.2.3-.3.5-.1.1-.2.3-.3.5,0,.2-.2.3-.3.5-.1.2-.2.3-.3.5-.1.2-.2.3-.3.5-.1.1-.2.3-.3.5,0,.2-.2.3-.3.5-.1.1-.2.3-.3.5,0,.1-.2.3-.3.5,0,.1-.2.3-.3.5,0,.1-.2.3-.3.5-.1.1-.2.3-.3.5-.1.2-.2.3-.3.5,0,.2-.2.3-.3.5-.1.2-.2.3-.3.5,0,.2-.2.3-.3.5-.1.2-.2.3-.3.5-.1.1-.2.3-.3.5-.1.2-.2.3-.3.5,0,.1-.2.3-.3.5,0,.2-.2.3-.3.5,0,.1-.2.3-.3.5,0,.2-.2.3-.3.5,0,.2-.2.3-.3.5-.1.2-.2.3-.3.5,0,.1-.2.3-.3.5,0,.1-.2.3-.3.5,0,.1-.2.3-.3.5-.1.2-.2.3-.3.5,0,.1-.2.3-.3.5-.1.2-.2.3-.3.5-.1.1-.2.3-.3.5-.1.2-.2.3-.3.5,0,.1-.2.3-.3.5,0,.2-.2.3-.3.5,0,.1-.2.3-.3.5-.1.1-.2.3-.3.5-.1.2-.2.3-.3.5-.1.1-.2.3-.3.5-.1.2-.2.3-.3.5,0,.2-.2.3-.3.5-.1.2-.2.3-.3.5,0,.2-.2.3-.3.5,0,.1-.2.3-.3.5-.1.2-.2.3-.3.5,0,.2-.2.3-.3.5,0,.2-.2.3-.3.5-.1.2-.2.3-.3.5,0,.2-.2.3-.3.5-.1.2-.2.3-.3.5,0,.2-.2.3-.3.5-.1.2-.2.3-.3.5,0,.2-.2.3-.3.5,0,.2-.2.3-.3.5,0,.2-.2.3-.3.5-.1.1-.2.3-.3.5,0,.2-.2.3-.3.5-.1.2-.2.3-.3.5,0,.1-.2.3-.3.5,0,.2-.2.3-.3.5,0,.2-.2.3-.3.5,0,.1-.2.3-.3.5,0,.2-.2.3-.3.5,0,.1-.2.3-.3.5-.1.2-.2.3-.3.5-.1.1-.2.3-.3.5,0,.2-.2.3-.3.5-.1.1-.2.3-.3.5,0,.2-.2.3-.3.5-.1.2-.2.3-.3.5,0,.2-.2.3-.3.5,0,.2-.2.3-.3.5-.1.2-.2.3-.3.5,0,.1-.2.3-.3.5,0,.2-.2.3-.3.5-.1.2-.2.3-.3.5,0,.2-.2.3-.3.5,0,.2-.2.3-.3.5,0,.2-.2.3-.3.5-.1.1-.2.3-.3.5,0,.2-.2.3-.3.5,0,.2-.2.3-.3.5,0,.2-.2.3-.3.5,0,.2-.2.3-.3.5-.1.2-.2.3-.3.5,0,.2-.2.3-.3.5-.1.2-.2.3-.3.5,0,.1-.2.3-.3.5,0,.2-.2.3-.3.5-.1.1-.2.3-.3.5,0,.2-.2.3-.3.5,0,.1-.2.3-.3.5,0,.2-.2.3-.3.5,0,.2-.2.3-.3.5-.1.2-.2.3-.3.5,0,.2-.2.3-.3.5,0,.1-.2.3-.3.5,0,.2-.2.3-.3.5-.1.2-.2.3-.3.5,0,.1-.2.3-.3.5,0,.2-.2.3-.3.5,0,.1-.2.3-.3.5,0,.2-.2.3-.3.5,0,.1-.2.3-.3.5,0,.1-.2.3-.3.5,0,.2-.2.3-.3.5,0,.2-.2.3-.3.5-3.1,4.8-4.1,10.9-2.2,16.8,3.4,10.3,14.5,16,24.8,12.6,3.4-1.1,6.3-3.1,8.5-5.6.1-.2.2-.3.4-.4.1-.1.3-.3.4-.4.1-.2.2-.3.4-.4.1-.1.2-.3.4-.4.1-.1.2-.3.4-.4.1-.1.2-.3.4-.4.1-.1.2-.3.4-.4.1-.1.2-.3.4-.4.1-.1.2-.3.4-.4.1-.1.2-.3.4-.4.1-.1.2-.3.4-.4.1-.1.2-.3.4-.4.1-.1.2-.3.4-.4.1-.1.2-.3.4-.4.1-.1.3-.3.4-.4.1-.1.2-.3.4-.4.1-.1.2-.3.4-.4.1-.1.2-.3.4-.4.1-.1.2-.3.3-.4.1-.2.2-.3.4-.4.1-.1.2-.3.4-.4.1-.1.2-.3.4-.4.1-.1.2-.3.3-.4.1-.1.3-.3.4-.4.2-.2.2-.3.4-.4.1-.1.2-.3.4-.4.1-.1.2-.3.4-.4.1-.1.2-.3.4-.4.1-.1.2-.3.3-.4.1-.1.2-.3.4-.4.1-.1.3-.3.4-.4.1-.1.3-.3.4-.4.1-.1.2-.3.3-.4.1-.1.3-.3.4-.4.1-.1.2-.3.4-.4.1-.2.2-.3.4-.4.1-.2.2-.3.4-.4.1-.1.2-.3.4-.4.1-.1.2-.3.4-.4,0-.1.2-.3.4-.4.1-.2.2-.3.3-.5.1-.1.2-.3.4-.4.1-.1.2-.3.4-.4.1-.1.3-.3.4-.4.1-.1.3-.3.4-.4.1-.2.2-.3.4-.4.1-.1.2-.3.4-.4.1-.1.2-.3.4-.4.1-.1.2-.3.4-.4.1-.1.2-.3.4-.4.1-.1.2-.3.4-.4.1-.1.2-.3.4-.4.1-.1.3-.3.4-.4.1-.1.2-.3.4-.4.1-.1.2-.3.4-.4.1-.1.2-.3.4-.4.1-.1.2-.3.4-.4.1-.1.2-.3.4-.4.1-.1.2-.3.4-.4.1-.1.2-.3.4-.4.1-.1.2-.3.4-.4.1-.1.2-.3.3-.4.1-.1.2-.3.4-.4.1-.1.2-.3.4-.4.1-.1.3-.3.4-.4.1-.1.2-.3.4-.4.1-.1.3-.3.4-.4.1-.1.2-.3.4-.4.1-.1.2-.3.4-.4.1-.1.2-.3.4-.4.1-.1.2-.3.4-.4.1-.1.2-.3.4-.4.1-.1.3-.3.4-.4.1-.1.2-.3.4-.4.1-.1.2-.3.4-.4.1-.2.2-.3.4-.4.1-.2.2-.3.3-.4.1-.1.2-.3.4-.4,0-.1.2-.3.4-.4.1-.1.2-.3.3-.4.1-.1.3-.3.4-.4.1-.1.2-.3.4-.4.1-.1.2-.3.4-.4.1-.1.2-.3.4-.4.1-.2.2-.3.4-.4,0-.1.2-.3.3-.4.1-.1.3-.3.4-.4.1-.1.2-.3.3-.4.1-.1.3-.3.4-.4.1-.1.2-.3.3-.4.1-.1.3-.3.4-.4.1-.1.2-.3.4-.4.1-.1.2-.3.4-.4.1-.1.2-.3.4-.4.1-.1.2-.3.4-.4.1-.1.2-.3.4-.4.1-.1.2-.3.4-.4,0-.1.2-.3.4-.4.1-.1.2-.3.3-.4.1-.1.3-.3.4-.4.1-.1.2-.3.4-.4.1-.1.2-.3.4-.4s.2-.3.4-.4c.1-.1.2-.3.4-.4.1-.1.2-.3.3-.4.1-.2.2-.3.4-.4.1-.1.3-.3.3-.4.2-.1.3-.3.4-.4.1-.1.2-.3.4-.4.1-.1.2-.3.4-.4.1-.2.2-.3.4-.4.2-.1.3-.3.4-.4.1-.1.3-.3.4-.4.1-.1.2-.3.4-.4.1-.2.2-.3.4-.4.1-.1.3-.3.4-.4.1-.1.2-.3.4-.4.1-.2.2-.3.3-.4.1-.1.3-.3.4-.4.1-.2.2-.3.4-.4.1-.1.2-.3.4-.4.1-.1.2-.3.4-.4.1-.1.2-.3.4-.4.1-.1.2-.3.4-.4.1-.1.2-.3.4-.4.1-.1.3-.3.4-.4.1-.2.3-.3.4-.4.2-.1.3-.3.4-.4.1-.1.2-.3.4-.4.1-.1.2-.3.4-.4.1-.1.2-.3.4-.4.1-.1.2-.3.4-.4.1-.1.2-.3.4-.4.1-.1.2-.3.4-.4.1-.1.2-.2.4-.4.1-.2.2-.3.4-.4,6.3-6.7,8.9-16.6,5.9-26-4.4-13.7-19.1-21.1-32.8-16.7-6.1,2-11,6-14.1,11.1,0,.2-.2.3-.3.5,0,.2-.2.3-.3.5"/>
            <path class="cls-2" d="M331.6,237.8c-5.6,2.8-9,8.3-9.5,14,0,.2,0,.4,0,.6,0,.2,0,.4,0,.6,0,.2,0,.4,0,.5,0,.2,0,.4,0,.6,0,.2,0,.4,0,.6,0,.2,0,.4,0,.6,0,.2,0,.4,0,.5,0,.2,0,.4,0,.6,0,.2,0,.4,0,.6,0,.2,0,.4,0,.6,0,.2,0,.4,0,.6,0,.2,0,.4,0,.6,0,.2,0,.4,0,.6,0,.2,0,.4,0,.6,0,.2,0,.4,0,.6,0,.2,0,.4,0,.6,0,.2,0,.4,0,.6,0,.2,0,.4,0,.6,0,.2,0,.4,0,.5,0,.2,0,.4,0,.6,0,.2,0,.4,0,.6,0,.2,0,.4,0,.6,0,.2,0,.4,0,.5,0,.2,0,.4,0,.6,0,.2,0,.4,0,.6,0,.2,0,.4,0,.6,0,.2,0,.4,0,.5,0,.2,0,.4,0,.6,0,.2,0,.4,0,.6,0,.2,0,.4,0,.6,0,.2,0,.4,0,.5,0,.2,0,.4,0,.6,0,.2,0,.4,0,.6,0,.2,0,.4,0,.6,0,.2,0,.4,0,.6,0,.2,0,.4,0,.6,0,.2,0,.4,0,.6,0,.2,0,.4,0,.6,0,.2,0,.4,0,.6,0,.2,0,.4,0,.6,0,.2,0,.4,0,.6,0,.2,0,.4,0,.6,0,.2,0,.4,0,.6,0,.2,0,.4,0,.6,0,.2,0,.4,0,.5,0,.2,0,.4,0,.6,0,.2,0,.4,0,.6,0,.2,0,.4,0,.6,0,.2,0,.4,0,.5,0,.2,0,.4,0,.6,0,.2,0,.4,0,.6,0,.2,0,.4,0,.6,0,.2,0,.4,0,.6,0,.2,0,.4,0,.6,0,.2,0,.4,0,.6,0,.2,0,.4,0,.6,0,.2,0,.4,0,.5,0,.2,0,.4,0,.6,0,.2,0,.4,0,.6,0,.2,0,.4,0,.6,0,.2,0,.4,0,.6,0,.2,0,.4,0,.6,0,.2,0,.4,0,.5,0,.2,0,.4,0,.6,0,.2,0,.4,0,.6,0,.2,0,.4,0,.6,0,.2,0,.4,0,.6,0,.2,0,.4,0,.5,0,.2,0,.4,0,.6,0,.2,0,.4,0,.6,0,.2,0,.4,0,.6,0,.2,0,.4,0,.5,0,.2,0,.4,0,.6,0,.2,0,.4,0,.6,0,.2,0,.4,0,.6,0,.2,0,.4,0,.6,0,.2,0,.4,0,.6,0,.2,0,.4,0,.6,0,.2,0,.4,0,.5,0,.2,0,.4,0,.6,0,.2,0,.4,0,.6,0,.2,0,.4,0,.6,0,.2,0,.4,0,.6,0,.2,0,.4,0,.6,0,.2,0,.4,0,.6,0,.2,0,.4,0,.6,0,.2,0,.4,0,.5,0,.2,0,.4,0,.6,0,.2,0,.4,0,.6,0,.2,0,.4,0,.5,0,.2,0,.4,0,.6,0,.2,0,.4,0,.6,0,.2,0,.4,0,.6,0,.2,0,.4,0,.5,0,.2,0,.4,0,.6,0,.2,0,.4,0,.6,0,.2,0,.4,0,.6,0,.2,0,.3,0,.5,0,.2,0,.4,0,.6,0,.2,0,.4,0,.6,0,.2,0,.4,0,.5,0,.2,0,.4,0,.6,0,.2,0,.4,0,.6,0,.2,0,.4,0,.6,0,.2,0,.4,0,.6,0,.2,0,.4,0,.6,0,.2,0,.4,0,.6,0,.2,0,.4,0,.6,0,.2,0,.4,0,.5,0,.2,0,.4,0,.6,0,.2,0,.4,0,.6,0,.2,0,.4,0,.6,0,.2,0,.4,0,.6,0,.2,0,.4,0,.5,0,.2,0,.4,0,.6,0,.2,0,.4,0,.6,0,.2,0,.4,0,.6,0,.2,0,.4,0,.6,0,.2,0,.4,0,.6,0,.2,0,.4,0,.5,0,.2,0,.4,0,.6,0,.2,0,.4,0,.6,0,.2,0,.4,0,.6,0,.2,0,.4,0,.6,0,.2,0,.4,0,.6,0,.2,0,.4,0,.6,0,.2,0,.4,0,.6,0,.2,0,.4,0,.5,0,.2,0,.4,0,.6,0,.2,0,.4,0,.6,0,.2,0,.4,0,.6,0,.2,0,.4,0,.5,0,.2,0,.4,0,.6,0,.2,0,.4,0,.5,0,.2,0,.4,0,.6,0,.2,0,.4,0,.6,0,.2,0,.4,0,.5,0,.2,0,.4,0,.6,0,.2,0,.4,0,.6,0,.2,0,.4,0,.6,0,.2,0,.4,0,.5,0,.2,0,.4,0,.6,0,.2,0,.4,0,.6,0,.2,0,.4,0,.6,0,.2,0,.4,0,.6,0,.2,0,.4,0,.6,0,.2,0,.4,0,.6,0,.2,0,.4,0,.6,0,.2,0,.4,0,.6,0,.2,0,.4,0,.6,0,.2,0,.4,0,.6,0,.2,0,.4,0,.6,0,.2,0,.4,0,.5-.6,5,.2,10.3,2.6,15.1,6.5,12.8,22.2,17.9,34.9,11.4,9.7-5,15-15.2,14.1-25.4,0-.2,0-.4,0-.6s0-.4,0-.6c0-.2,0-.4,0-.6,0-.2,0-.4,0-.6,0-.2,0-.4,0-.6,0-.2,0-.4,0-.6,0-.2,0-.4,0-.6,0-.2,0-.4,0-.6,0-.2,0-.4,0-.6s0-.4,0-.6c0-.2,0-.4,0-.6,0-.2,0-.4,0-.6,0-.2,0-.4,0-.6s0-.4,0-.6c0-.2,0-.4,0-.6,0-.2,0-.4,0-.6,0-.2,0-.4,0-.6,0-.2,0-.4,0-.6,0-.2,0-.4,0-.6,0-.2,0-.4,0-.6,0-.2,0-.4,0-.6,0-.2,0-.4,0-.6,0-.2,0-.4,0-.6,0-.2,0-.4,0-.6,0-.2,0-.4,0-.6,0-.2,0-.4,0-.6,0-.2,0-.4,0-.6,0-.2,0-.4,0-.6,0-.2,0-.4,0-.6,0-.2,0-.4,0-.5,0-.2,0-.4,0-.6,0-.2,0-.4,0-.6,0-.2,0-.4,0-.6,0-.2,0-.4,0-.6,0-.2,0-.4,0-.6,0-.2,0-.4,0-.6,0-.2,0-.4,0-.6,0-.2,0-.4,0-.5,0-.2,0-.4,0-.6,0-.2,0-.4,0-.6,0-.2,0-.4,0-.6,0-.2,0-.4,0-.6,0-.2,0-.4,0-.6,0-.2,0-.4,0-.6,0-.2,0-.4,0-.6,0-.2,0-.4,0-.6,0-.2,0-.4,0-.6,0-.2,0-.4,0-.6,0-.2,0-.4,0-.6,0-.2,0-.4,0-.6,0-.2,0-.4,0-.6,0-.2,0-.4,0-.6,0-.2,0-.4,0-.6,0-.2,0-.4,0-.6,0-.2,0-.4,0-.6,0-.2,0-.3,0-.5,0-.2,0-.4,0-.6,0-.2,0-.4,0-.6,0-.2,0-.4,0-.6,0-.2,0-.4,0-.5,0-.2,0-.4,0-.6,0-.2,0-.4,0-.6,0-.2,0-.4,0-.6,0-.2,0-.4,0-.6,0-.2,0-.4,0-.6,0-.2,0-.4,0-.6,0-.2,0-.4,0-.5,0-.2,0-.4,0-.6,0-.2,0-.4,0-.6,0-.2,0-.4,0-.6,0-.2,0-.4,0-.6,0-.2,0-.4,0-.6,0-.2,0-.4,0-.6,0-.2,0-.4,0-.6,0-.2,0-.4,0-.6,0-.2,0-.4,0-.6,0-.2,0-.4,0-.5,0-.2,0-.4,0-.6,0-.2,0-.4,0-.6,0-.2,0-.4,0-.6,0-.2,0-.4,0-.6,0-.2,0-.4,0-.6,0-.2,0-.4,0-.6,0-.2,0-.4,0-.6,0-.2,0-.4,0-.6,0-.2,0-.4,0-.6,0-.2,0-.4,0-.6,0-.2,0-.4,0-.6,0-.2,0-.4,0-.6,0-.2,0-.4,0-.6,0-.2,0-.4,0-.6,0-.2,0-.4,0-.6,0-.2,0-.4,0-.6,0-.2,0-.4,0-.6,0-.2,0-.4,0-.6,0-.2,0-.4,0-.6,0-.2,0-.4,0-.6,0-.2,0-.4,0-.6,0-.2,0-.4,0-.6,0-.2,0-.4,0-.5,0-.2,0-.4,0-.6,0-.2,0-.4,0-.6,0-.2,0-.4,0-.6,0-.2,0-.4,0-.6,0-.2,0-.4,0-.6,0-.2,0-.4,0-.6,0-.2,0-.4,0-.6,0-.2,0-.4,0-.6,0-.2,0-.4,0-.6,0-.2,0-.4,0-.5,0-.2,0-.4,0-.6,0-.2,0-.4,0-.6,0-.2,0-.4,0-.6,0-.2,0-.4,0-.5,0-.2,0-.4,0-.6,0-.2,0-.4,0-.6,0-.2,0-.4,0-.6,0-.2,0-.4,0-.6,0-.2,0-.4,0-.5,0-.2,0-.4,0-.6,0-.2,0-.4,0-.6,0-.2,0-.4,0-.6,0-.2,0-.4,0-.6,0-.2,0-.4,0-.5,0-.2,0-.4,0-.6,0-.2,0-.4,0-.6,0-.2,0-.4,0-.5,0-.2,0-.4,0-.6,0-.2,0-.4,0-.6,0-.2,0-.4,0-.6,0-.2,0-.4,0-.6,0-.2,0-.4,0-.5,0-.2,0-.4,0-.6,0-.2,0-.4,0-.6,0-.2,0-.4,0-.6,0-.2,0-.4,0-.6,0-.2,0-.4,0-.6,0-.2,0-.4,0-.6,0-.2,0-.4,0-.6,0-.2,0-.4,0-.6,0-.2,0-.4,0-.5,0-.2,0-.4,0-.6,0-.2,0-.4,0-.6,0-.2,0-.4,0-.6,0-.2,0-.4,0-.6,0-.2,0-.4,0-.6,0-.2,0-.4,0-.6,0-.2,0-.4,0-.6,0-.2,0-.4,0-.6,0-.2,0-.4,0-.6,0-.2,0-.4,0-.6,0-.2,0-.4,0-.6,0-.2,0-.4,0-.6-.2-2.3-.8-4.7-1.9-6.9-4.4-8.7-15.1-12.2-23.8-7.7"/>
            <path class="cls-2" d="M81,280.2c.1.2.3.3.4.4.1.2.2.3.4.4.1.2.2.3.4.4.1.2.3.3.4.4.1.1.3.3.4.4.1.1.3.3.4.4.1.1.3.3.4.4.1.1.3.3.4.4.1.1.3.3.4.5.1.1.3.3.4.4.1.2.3.3.4.4.1.2.2.3.4.4.1.1.2.3.4.5.1.1.3.3.4.4.1.1.2.3.4.4.1.1.3.3.4.4.1.1.2.3.4.4.1.2.2.3.4.4.1.2.2.3.4.4.1.2.2.3.4.4.1.2.2.3.4.4.1.2.3.3.4.4.1.1.3.3.4.4.1.1.2.3.4.4.1.1.2.3.4.4.1.2.3.3.4.4,0,.1.2.3.4.4.1.1.2.3.4.4.1.2.3.3.4.4.1.1.2.3.4.4.1.2.2.3.3.4.2.1.3.3.4.4.1.2.3.3.4.4.1.1.2.3.4.4.1.2.2.3.4.4.1.2.2.3.4.4.1.1.2.3.4.4.1.2.2.3.4.4.1.1.3.3.4.4.1.1.3.3.3.4.1.1.3.3.4.4.1.1.3.3.4.4.1.1.2.3.4.4.1.1.2.3.4.4.1.2.2.3.4.4.1.2.2.3.3.4.1.1.3.3.4.4.1.1.2.3.4.4,0,.2.2.3.3.4.2.2.3.3.4.4.1.2.2.3.4.5.1.1.2.2.4.4.1.2.2.3.4.4.1.2.2.3.4.4.1.1.2.3.4.4.1.2.3.3.4.4.1.1.2.3.4.4.1.2.2.3.4.4.1.1.2.3.4.4.1.1.3.3.4.4.1.1.2.3.3.4.1.1.3.3.4.4.1.2.3.3.4.4,0,.1.2.3.4.4s.2.3.4.4c.1.1.2.3.4.4.1.1.2.3.3.4.1.2.3.3.4.4,0,.1.2.3.4.4,0,.1.2.3.4.4.1.2.2.3.4.4.1.1.3.3.4.4.1.2.3.3.4.4.1.1.2.3.4.4.1.2.2.3.4.4,0,.1.2.3.3.4.1.2.2.3.4.4.1.2.2.3.4.4.1.1.2.3.4.4.1.1.3.3.4.4.1.1.2.3.4.4.1.2.2.3.4.4,0,.2.2.3.3.4.1.1.3.3.4.4.1.2.3.3.4.4.1.2.3.3.4.4,0,.1.2.3.4.4.1.2.2.3.4.4,0,.1.2.3.4.4.1.2.2.3.4.4.1.2.2.3.4.4,0,.2.2.3.4.4.1.1.2.3.4.4.1.1.3.3.4.4.1.1.2.3.4.4.1.2.3.3.4.4,0,.1.2.3.4.4.1.1.2.3.4.4.1.1.3.3.4.4.1.1.3.3.4.4,0,.1.2.3.4.4,0,.1.2.3.4.4.1.2.2.3.4.4.1.1.2.3.4.4.1.2.2.3.3.4.1.1.3.3.4.4,0,.2.2.3.4.4.1.1.2.3.4.4.1.1.2.3.4.4,0,.2.2.3.4.4.1.1.3.3.4.4.1.1.2.3.4.4.1.2.3.3.4.4.1.1.3.3.4.4.1.2.2.3.4.4.1.1.3.3.4.4.1.2.2.3.4.4,0,.2.2.3.4.4,0,.1.2.3.4.4.1.2.2.3.4.4.1.1.2.3.4.4.1.2.2.3.4.4.1.1.3.3.4.4.1.2.2.3.4.4.1.2.2.3.4.4.1.2.3.3.4.4.1.1.3.3.4.4.1.1.2.3.4.4.1.1.2.3.4.4.1.1.2.3.4.4.1.1.2.3.4.4,0,.2.2.3.4.4.1.1.2.3.4.4,0,.1.2.3.3.5.1.1.3.3.4.4,3.6,4.4,9.1,7.3,15.3,7.3,10.9,0,19.6-8.8,19.6-19.7s-1-7-2.6-9.8c0-.2-.2-.3-.3-.5,0-.2-.2-.3-.3-.5-.1-.2-.2-.3-.3-.5,0-.2-.2-.3-.3-.5,0-.2-.2-.3-.3-.5,0-.2-.2-.3-.3-.5,0-.2-.2-.3-.3-.5,0-.2-.2-.3-.3-.5,0-.2-.2-.3-.3-.5,0-.2-.2-.3-.3-.5,0-.2-.2-.3-.3-.5,0-.2-.2-.3-.3-.5-.1-.1-.2-.3-.3-.5,0-.2-.2-.3-.3-.5,0-.2-.2-.3-.3-.5,0-.2-.2-.3-.3-.5,0-.2-.2-.3-.3-.5,0-.2-.2-.3-.3-.5,0-.2-.2-.3-.3-.5,0-.2-.2-.3-.3-.5,0-.2-.2-.3-.3-.5,0-.2-.2-.3-.3-.5,0-.1-.2-.3-.3-.5,0-.2-.2-.3-.3-.5,0-.1-.2-.3-.3-.5,0-.2-.2-.3-.3-.5,0-.2-.2-.3-.3-.5,0-.1-.2-.3-.3-.5,0-.2-.2-.3-.3-.5-.1-.1-.2-.3-.3-.5,0-.2-.2-.3-.3-.5,0-.2-.2-.3-.3-.5,0-.2-.2-.3-.3-.5-.1-.2-.2-.3-.3-.5,0-.2-.2-.3-.3-.5,0-.2-.2-.3-.3-.5,0-.2-.2-.3-.3-.5,0-.2-.2-.3-.3-.5,0-.2-.2-.3-.3-.5,0-.2-.2-.3-.3-.5,0-.2-.2-.3-.3-.5,0-.2-.2-.3-.3-.5,0-.2-.2-.3-.3-.5,0-.1-.2-.3-.3-.5,0-.2-.2-.3-.3-.5,0-.2-.2-.3-.3-.5,0-.2-.2-.3-.3-.5,0-.2-.2-.3-.3-.5-.1-.2-.2-.3-.3-.5,0-.2-.2-.3-.3-.5,0-.1-.2-.3-.3-.5,0-.2-.2-.3-.3-.5,0-.2-.2-.3-.3-.5,0-.2-.2-.3-.3-.5,0-.1-.2-.3-.3-.5,0-.2-.2-.3-.3-.5,0-.1-.2-.3-.3-.5,0-.2-.2-.3-.3-.5,0-.2-.2-.3-.3-.5,0-.2-.2-.3-.3-.4,0-.2-.2-.3-.3-.5,0-.2-.2-.3-.3-.5-.1-.2-.2-.3-.3-.5,0-.2-.2-.3-.3-.5,0-.2-.2-.3-.3-.5-.1-.2-.2-.3-.3-.5,0-.2-.2-.3-.3-.5,0-.2-.2-.3-.3-.5,0-.1-.2-.3-.3-.5,0-.2-.2-.3-.3-.5,0-.2-.2-.3-.3-.5,0-.2-.2-.3-.3-.5,0-.2-.2-.3-.3-.5,0-.2-.2-.3-.3-.5,0-.2-.2-.3-.3-.5,0-.2-.2-.3-.3-.5,0-.2-.2-.3-.3-.5,0-.2-.2-.3-.3-.5,0-.2-.2-.3-.3-.5,0-.2-.2-.3-.3-.5,0-.2-.2-.3-.3-.5,0-.2-.2-.3-.3-.5-.1-.2-.2-.3-.3-.5,0-.2-.2-.3-.3-.5,0-.1-.2-.3-.3-.5,0-.2-.2-.3-.3-.5,0-.1-.2-.3-.3-.5-.1-.2-.2-.3-.3-.5,0-.2-.2-.3-.3-.5,0-.1-.2-.3-.3-.5,0-.2-.2-.3-.3-.5,0-.2-.2-.3-.3-.5,0-.2-.2-.3-.3-.5,0-.2-.2-.3-.3-.5,0-.2-.2-.3-.3-.5,0-.1-.2-.3-.3-.5,0-.2-.2-.3-.3-.5,0-.1-.2-.3-.3-.5,0-.1-.2-.3-.3-.4,0-.2-.2-.3-.3-.5,0-.2-.2-.3-.3-.5,0-.2-.2-.3-.3-.5,0-.1-.2-.3-.3-.5,0-.2-.2-.3-.3-.5,0-.1-.2-.3-.3-.5,0-.2-.2-.3-.3-.5,0-.2-.2-.3-.3-.5,0-.1-.2-.3-.3-.5,0-.2-.2-.3-.3-.5,0-.2-.2-.3-.3-.5,0-.2-.2-.3-.3-.5,0-.2-.2-.3-.3-.5,0-.2-.2-.3-.3-.5,0-.2-.2-.3-.3-.5-.1-.2-.2-.3-.3-.5,0-.2-.2-.3-.3-.5,0-.2-.2-.3-.3-.5-.1-.2-.2-.3-.3-.5,0-.2-.2-.3-.3-.5,0-.1-.2-.3-.3-.5,0-.2-.2-.3-.3-.5-.1-.1-.2-.3-.3-.5,0-.2-.2-.3-.3-.5,0-.1-.2-.3-.3-.5,0-.1-.2-.3-.3-.5,0-.1-.2-.3-.3-.5,0-.2-.2-.3-.3-.5,0-.2-.2-.3-.3-.5,0-.2-.2-.3-.3-.5,0-.2-.2-.3-.3-.5,0-.2-.2-.3-.3-.5,0-.1-.2-.3-.3-.4,0-.2-.2-.4-.3-.5-.1-.2-.2-.3-.3-.5,0-.2-.2-.3-.3-.5,0-.1-.2-.3-.3-.5-4.4-8.1-13-13.6-22.9-13.6-14.4,0-26,11.7-26,26s2.3,12.3,6.2,16.8c.1.1.2.3.3.4"/>
            <path class="cls-2" d="M167.2,287.9c.2,0,.4.1.5.2.2,0,.3.2.5.2.1,0,.3.1.5.2.2,0,.4.1.5.2.2,0,.4.1.5.2.2,0,.3.2.5.2.2,0,.3.2.5.2.2,0,.3.1.5.2.1,0,.3.2.5.2.2,0,.3.1.5.2.2,0,.4.2.5.2.2,0,.4.2.5.2.2,0,.3.2.5.2.2,0,.3.2.5.2.2,0,.3.1.5.2.2,0,.3.1.5.2.2,0,.3.2.5.2.2,0,.3.1.5.2.2,0,.3.1.5.2.2,0,.3.2.5.2.2,0,.4.2.5.2.2,0,.3.1.5.2.2,0,.3.1.5.2.1,0,.3.1.5.2.2,0,.3.2.5.2.2,0,.4.2.5.2.2,0,.3.1.5.2.2,0,.3.1.5.2.2,0,.3.2.5.2.2,0,.3.1.5.2.2,0,.3.1.5.2.2,0,.4.2.5.2.1,0,.3.1.5.2.2,0,.3.2.5.2.1,0,.3.2.5.2.2,0,.3.1.5.2.2,0,.4.2.5.2.2,0,.3.1.5.2.2,0,.3.1.5.2.2,0,.3.2.5.2.2,0,.3.1.5.2.2,0,.3.1.5.2.2,0,.3.2.5.2.2,0,.3.1.5.2.2,0,.3.1.5.2.2,0,.3.1.5.2.2,0,.3.1.5.2.2,0,.3.2.5.2.2,0,.3.1.5.2.2,0,.3.2.5.2.2,0,.3.1.5.2.2,0,.3.1.5.2.2,0,.3.2.5.2.2,0,.4.1.5.2.2,0,.3.1.5.2.1,0,.3.1.5.2.2,0,.4.2.5.2.2,0,.3.1.5.2.2,0,.3.1.5.2.2,0,.3.1.5.2.2,0,.3.2.5.2.1,0,.3.2.5.2.1,0,.3.1.5.2.1,0,.3.1.5.2.2,0,.3.2.5.2.2,0,.3.2.5.2.2,0,.3.2.5.2.2,0,.3.1.5.2.2,0,.3.1.5.2.2,0,.3.2.5.2.2,0,.3.1.5.2.2,0,.3.1.5.2.2,0,.4.1.5.2.2,0,.3.1.5.2.2,0,.4.1.5.2.2,0,.3.1.5.2.2,0,.3.2.5.2.2,0,.3.1.5.2.2,0,.3.1.5.2.2,0,.3.2.5.2.2,0,.3.1.5.2.2,0,.3.1.5.2.2,0,.3.2.5.2.2,0,.3.2.5.2.2,0,.3.1.5.2.2,0,.3.1.5.2.2,0,.3.1.5.2.1,0,.3.2.5.2.2,0,.3.1.5.2.2,0,.3.2.5.2.2,0,.3.2.5.2.2,0,.3.2.5.2.2,0,.4.1.5.2.2,0,.3.1.5.2.2,0,.3.1.5.2.2,0,.3.1.5.2.2,0,.4.1.5.2.2,0,.3.1.5.2.2,0,.3.1.5.2.2,0,.3.1.5.2.2,0,.3.1.5.2.1,0,.3.2.5.2.2.1.4.2.5.2.2,0,.4.1.5.2.2,0,.3.1.5.2.2,0,.3.1.5.2.2,0,.4.1.5.2s.3.1.5.2c.2,0,.4.1.5.2.2,0,.4.1.5.2.2,0,.4.1.5.2.2,0,.3.1.5.2.2,0,.4.1.5.2.2,0,.3.2.5.2.2,0,.3.1.5.2.2,0,.3.2.5.2.2,0,.3.2.5.2.2,0,.4.2.5.2.2,0,.3.1.5.2.2,0,.3.1.5.2.2,0,.3.2.5.2.2,0,.3.1.5.2.2,0,.3.1.5.2.2,0,.3.2.5.2.2,0,.3.2.5.2.2,0,.3.1.5.2.2,0,.3.1.5.2.2,0,.3.2.5.2.2,0,.4.2.5.2.2,0,.3.1.5.2.2,0,.3.1.5.2.2,0,.3.2.5.2.2,0,.4.1.5.2.2,0,.3.1.5.2.2,0,.3.2.5.2.2,0,.3.1.5.2.2,0,.3.1.5.2.2,0,.3.1.5.2.2,0,.3.1.5.2.2,0,.4.1.5.2.2,0,.3.1.5.2.2,0,.3.1.5.2.1,0,.3.1.5.2.2,0,.3.2.5.2.2,0,.3.1.5.2.2,0,.4.2.5.2.2,0,.3.1.5.2.2,0,.3.1.5.2.2,0,.3.1.5.2.2,0,.3.1.5.2.2,0,.3.1.5.2.2,0,.3.1.5.2.2,0,.4.1.5.2s.3.1.5.2c.2,0,.4.1.5.2.2,0,.3.1.5.2,4.6,2.2,9.8,3,15.2,2.2,14.2-2.2,23.9-15.6,21.6-29.7-1.7-10.8-9.8-18.9-19.8-21.3-.2,0-.4,0-.5-.1-.2,0-.4,0-.5-.1-.2,0-.4,0-.5-.1-.2,0-.4,0-.6-.1-.2,0-.3,0-.5-.1-.2,0-.4,0-.5-.1-.2,0-.4,0-.5-.1-.2,0-.4,0-.6-.1-.2,0-.4,0-.5-.1-.2,0-.4,0-.6-.1-.2,0-.3,0-.5-.1-.2,0-.3,0-.5-.2-.2,0-.4,0-.5-.1-.2,0-.4,0-.6-.1-.2,0-.4,0-.6-.1-.2,0-.3,0-.5-.1-.2,0-.4,0-.6-.1-.2,0-.4,0-.5-.1-.2,0-.4,0-.6-.1-.2,0-.4,0-.5-.1-.2,0-.3,0-.5-.1-.2,0-.4,0-.5-.1-.2,0-.4,0-.6-.1-.2,0-.4,0-.5-.1-.2,0-.4,0-.6-.1-.2,0-.4,0-.6-.1-.2,0-.4,0-.5-.1-.2,0-.4,0-.6-.1-.2,0-.4,0-.5-.1-.2,0-.4,0-.6-.1-.2,0-.4,0-.5-.1-.2,0-.4,0-.6-.1-.2,0-.3,0-.5-.1-.2,0-.4,0-.5-.1-.2,0-.4,0-.5-.1-.2,0-.4,0-.5-.1-.2,0-.4,0-.5-.1-.2,0-.4,0-.5-.1-.2,0-.4,0-.5-.1-.2,0-.4,0-.6-.1-.2,0-.4,0-.5-.1-.2,0-.4,0-.5-.1-.2,0-.4,0-.6-.1-.2,0-.4,0-.5-.1-.2,0-.4,0-.6-.1-.2,0-.4,0-.5-.1-.2,0-.4,0-.6-.1-.2,0-.4,0-.5-.1-.2,0-.4,0-.5-.1-.2,0-.4,0-.5-.1-.2,0-.4,0-.5-.1-.2,0-.4,0-.5-.1-.2,0-.4,0-.5-.1-.2,0-.4,0-.5,0-.2,0-.4,0-.6-.2-.2,0-.4,0-.5-.1-.2,0-.4,0-.5,0-.2,0-.4,0-.6-.1-.2,0-.3,0-.5-.1-.2,0-.4,0-.5,0-.2,0-.4,0-.6-.1-.2,0-.3,0-.5-.1-.2,0-.4,0-.5-.1-.2,0-.4,0-.5-.1-.2,0-.4,0-.5,0-.2,0-.4-.1-.6-.1-.2,0-.4,0-.5-.1-.2,0-.4,0-.5-.1-.2,0-.4,0-.6-.1-.2,0-.3,0-.6-.1-.2,0-.4,0-.5-.1-.2,0-.4,0-.6-.1-.2,0-.4,0-.5-.1-.2,0-.4,0-.5-.1-.2,0-.4,0-.5-.1-.2,0-.4,0-.6-.1-.2,0-.4,0-.6-.1-.2,0-.3,0-.5-.1-.2,0-.4,0-.5-.1-.2,0-.4,0-.5,0-.2,0-.4,0-.6-.1-.2,0-.4,0-.5-.2-.2,0-.4,0-.6-.1-.2,0-.4,0-.5-.1-.2,0-.4,0-.5-.1-.2,0-.4,0-.5-.1-.2,0-.4,0-.5-.1-.2,0-.4,0-.5-.1-.2,0-.4,0-.5-.1-.2,0-.4,0-.5-.1-.2,0-.4,0-.6-.1-.2,0-.3,0-.6-.1-.1,0-.3,0-.5-.1-.2,0-.4,0-.6,0-.2,0-.4,0-.5-.2-.2,0-.3,0-.5-.1-.2,0-.3,0-.5-.1-.2,0-.4,0-.6-.1-.2,0-.4,0-.5-.1-.2,0-.4,0-.6-.1-.2,0-.4,0-.5-.1-.2,0-.4,0-.5-.1-.2,0-.4,0-.5-.1-.2,0-.4,0-.5-.1-.2,0-.4,0-.6-.1-.2,0-.4,0-.5-.1-.2,0-.4,0-.6-.1-.2,0-.4,0-.5-.1-.2,0-.4,0-.6-.1-.2,0-.4,0-.5-.1-.2,0-.4,0-.6-.1-.2,0-.4,0-.5-.1-.2,0-.4,0-.5,0-.2,0-.4,0-.5-.1-.2,0-.4,0-.6-.1-.2,0-.4,0-.5-.1-.2,0-.4,0-.5-.1-.2,0-.4,0-.6-.1-.2,0-.3,0-.5-.1-.2,0-.4,0-.5-.1-.2,0-.4,0-.5-.1-.2,0-.4,0-.6-.1-.2,0-.4,0-.5-.1-.2,0-.3,0-.5-.1-.2,0-.4,0-.6-.1-.2,0-.4,0-.5-.1-.2,0-.4,0-.5,0-.2,0-.4-.1-.5-.1-.2,0-.4,0-.5-.1-.2,0-.4,0-.5-.1-.2,0-.4,0-.5-.1-.2,0-.4,0-.5-.1-.2,0-.4,0-.5-.1-.2,0-.4,0-.5-.1-.2,0-.4,0-.6-.1-.2,0-.4,0-.5-.1-.2,0-.4,0-.6-.1-.2,0-.4,0-.5-.1-.2,0-.4,0-.6-.1-.2,0-.4,0-.6,0-.2,0-.3,0-.5-.1-.2,0-.4,0-.5-.1-.2,0-.4,0-.6-.1-.2,0-.4,0-.5-.1-.2,0-.3,0-.5-.1-.2,0-.4,0-.6-.1-.2,0-.3,0-.5-.1-.2,0-.4,0-.5-.1-.2,0-.4,0-.6-.1-.1,0-.3,0-.5-.1-.2,0-.4,0-.5-.1-.2,0-.4,0-.5-.1-.2,0-.4,0-.6-.1-.2,0-.4,0-.5,0-.2,0-.4,0-.5-.1-.2,0-.4,0-.6-.1-2.3-.6-4.7-.7-7.1-.4-9.7,1.5-16.2,10.6-14.7,20.2,1,6.2,5.1,11.1,10.4,13.4"/>
            <path class="cls-2" d="M188.3,459.7c-3.4-1.1-6.9-1.2-10.2-.5-.2,0-.4,0-.6.1-.2,0-.4,0-.6.1-.2,0-.3,0-.5.1-.2,0-.4,0-.5.1-.2,0-.4,0-.6.1-.2,0-.3,0-.5.1-.2,0-.4,0-.6.1-.2,0-.4.1-.5.1-.2,0-.4.1-.5.2-.2,0-.4,0-.5.1-.2,0-.4,0-.6.1-.2,0-.4,0-.5.1-.2,0-.4.1-.5.1-.2,0-.4,0-.5.1-.2,0-.4,0-.5.1-.2,0-.4,0-.5.1-.2,0-.4,0-.5.1-.2,0-.4,0-.6.1-.2,0-.4,0-.6.1-.2,0-.3,0-.5.1-.2,0-.4,0-.6.1-.2,0-.3,0-.6.1-.2,0-.4,0-.5.2-.2,0-.4,0-.5.1-.2,0-.4,0-.5.1-.2,0-.4,0-.5.1-.2,0-.4,0-.6.1-.2,0-.4.1-.5.1-.2,0-.4,0-.6.1-.2,0-.4,0-.5.1-.2,0-.4,0-.6.1-.2,0-.3,0-.5.2-.2,0-.4,0-.6.1-.2,0-.4,0-.6.1-.2,0-.4,0-.5.1-.2,0-.4,0-.5.1-.2,0-.4,0-.6.1-.2,0-.4.1-.5.2-.2,0-.4,0-.6.1-.2,0-.4,0-.5.1-.2,0-.4,0-.6.1-.2,0-.4,0-.5.1-.2,0-.4,0-.6.1-.2,0-.4.1-.5.1-.2,0-.4,0-.5.1-.2,0-.4,0-.6.1-.2,0-.4,0-.5.1-.2,0-.4,0-.6.1-.2,0-.3,0-.5.1-.2,0-.4,0-.6.1-.2,0-.3,0-.5.1-.2,0-.4,0-.5.1-.2,0-.4,0-.6.1-.2,0-.4,0-.5.1-.2,0-.4,0-.5.1-.2,0-.4,0-.5.1-.2,0-.4,0-.5.1-.2,0-.4.1-.5.2-.2,0-.4,0-.5.1-.2,0-.4,0-.6.1-.2,0-.4,0-.5.1-.2,0-.4,0-.5.1-.2,0-.4,0-.6.1-.2,0-.4,0-.5.1-.2,0-.4,0-.6.2-.2,0-.4,0-.6.1-.2,0-.4,0-.5.1-.2,0-.4,0-.6.1-.2,0-.4,0-.5.1-.2,0-.4,0-.6.1-.2,0-.4,0-.5.1-.2,0-.4,0-.6.1-.2,0-.4,0-.5.1-.2,0-.4,0-.5.1-.2,0-.4.1-.6.1-.2,0-.4,0-.5.1-.2,0-.4,0-.5.2-.2,0-.4,0-.5,0-.2,0-.4.1-.6.1-.2,0-.4.1-.5.1-.2,0-.4,0-.5.1-.2,0-.4,0-.6.1-.2,0-.4,0-.6.1-.2,0-.3,0-.5.1-.2,0-.4,0-.6.1-.2,0-.4,0-.6.1-.2,0-.4,0-.5.1-.2,0-.4,0-.6.1-.2,0-.4,0-.5.2-.2,0-.4,0-.5.1-.2,0-.4,0-.5.1-.2,0-.4,0-.6.1-.2,0-.4,0-.6.1-.2,0-.3,0-.5.1-.2,0-.4,0-.6.1-.2,0-.4,0-.6.1-.2,0-.3,0-.6.1-.2,0-.3,0-.5.1-.2,0-.4,0-.6.1-.2,0-.4,0-.5.1-.2,0-.4,0-.5.1-.2,0-.4,0-.5.1-.2,0-.4,0-.6.1-.2,0-.3,0-.5.1-.2,0-.4,0-.6.2-.2,0-.3,0-.5.1-.2,0-.4.1-.5.1-.2,0-.4,0-.6.1-.2,0-.3,0-.5.1-.2,0-.4,0-.5.1-.2,0-.4,0-.6.1-.2,0-.4,0-.5.1-.2,0-.4,0-.6.1-.2,0-.4,0-.5.1-.2,0-.3.1-.5.2-.2,0-.4,0-.5.1-.2,0-.4,0-.6.1-.2,0-.4,0-.5.1-.2,0-.4.1-.5.2-.2,0-.4,0-.5.1-.2,0-.4,0-.6.1-.2,0-.3,0-.5.1-.2,0-.4,0-.5.1-.2,0-.4,0-.6.1-.2,0-.4.1-.6.1-.2,0-.3.1-.5.1-.2,0-.4,0-.6.1-.2,0-.4,0-.6.1-.2,0-.4,0-.5.2-.2,0-.4,0-.5.1-.2,0-.4,0-.6.1-.2,0-.3,0-.5.1-.2,0-.4,0-.5.1-.2,0-.4,0-.6.1-.2,0-.4,0-.5.1-9.1,1.7-17,8.1-20,17.5-4.4,13.7,3,28.3,16.7,32.8,6.1,2,12.4,1.6,17.9-.7.2,0,.4-.1.5-.2.2,0,.4-.2.5-.2.2,0,.4-.2.5-.2.2,0,.4-.1.5-.2.2,0,.4-.1.5-.2.2,0,.3-.1.5-.2.2,0,.3-.2.5-.2.2,0,.4-.1.5-.2.2,0,.3-.1.5-.2.2,0,.4-.1.5-.2.2,0,.3-.2.5-.2.2,0,.3-.1.5-.2.2,0,.3-.1.5-.2.2,0,.4-.1.5-.2.2,0,.3-.1.5-.2.2,0,.4-.1.5-.2.2,0,.3-.1.5-.2.2,0,.3-.1.5-.2.2,0,.3-.1.5-.2.2,0,.3-.1.5-.2.2,0,.3-.1.5-.2.2,0,.3-.2.5-.2.2,0,.3-.1.5-.2.2,0,.3-.2.5-.2.2,0,.4-.1.5-.2.2,0,.4-.1.5-.2.2,0,.4-.2.5-.2.2,0,.4-.2.5-.2.2,0,.3-.2.5-.2.2,0,.4-.2.5-.2.2,0,.3-.2.5-.2.2,0,.3-.2.5-.2.2,0,.4-.1.5-.2.2,0,.4-.2.6-.2.2,0,.3-.1.5-.2.2,0,.4-.2.5-.2.2,0,.3-.1.5-.2.2,0,.4-.2.5-.2.2,0,.4-.2.5-.2.2,0,.4-.1.5-.2.2,0,.3-.1.5-.2.2,0,.3-.2.5-.2.2,0,.4-.1.5-.2.2,0,.4-.1.5-.2.2,0,.4-.1.5-.2.2,0,.3-.2.5-.2.2,0,.3-.1.5-.2.1,0,.3-.1.5-.2.2,0,.3-.2.5-.2.2,0,.4-.1.5-.2.2,0,.3-.1.5-.2.2,0,.4-.2.5-.2.2,0,.3-.2.5-.2.2,0,.3-.2.5-.2.2,0,.3-.1.5-.2.2,0,.3-.2.5-.2.2,0,.3-.2.5-.2.2,0,.4-.2.5-.2.2,0,.3-.1.5-.2.2,0,.4-.2.5-.2.2,0,.3-.2.5-.2.2,0,.4-.1.5-.2.2,0,.4-.1.5-.2.2,0,.4-.2.5-.2.2,0,.3-.1.5-.2.2,0,.3-.1.5-.2.2,0,.4-.2.5-.2.2,0,.4-.2.5-.2.2,0,.3-.1.5-.2.2,0,.4-.1.5-.2.2,0,.3-.1.5-.2.2,0,.4-.1.5-.2.2,0,.4-.1.5-.2.2,0,.3-.2.5-.2.2,0,.3-.1.5-.2.2,0,.3-.1.5-.2.2,0,.4-.1.5-.2.2,0,.4-.2.5-.2.2,0,.3-.2.5-.2.2,0,.4-.2.5-.3.2,0,.3-.1.5-.2.2,0,.4-.2.5-.2.2,0,.3-.2.5-.2.2,0,.4-.1.5-.2.2,0,.3-.1.5-.2.2,0,.4-.1.5-.2.2,0,.3-.1.5-.2.2,0,.3-.1.5-.2.2,0,.3-.1.5-.2.2,0,.3-.1.5-.2.2,0,.3-.1.5-.2.2,0,.3-.1.5-.2.2,0,.3-.1.5-.2.2,0,.3-.1.5-.2.2,0,.4-.1.5-.2.2,0,.4-.1.5-.2.2,0,.3-.2.5-.2.2,0,.4-.1.5-.2.2,0,.4-.2.5-.3.2,0,.4-.1.5-.2.2,0,.3-.2.5-.2.2,0,.3-.1.5-.2.2,0,.3-.1.5-.2.2,0,.4-.2.5-.2.2,0,.4-.2.5-.2.2,0,.4-.1.5-.2.2,0,.3-.2.5-.2.2,0,.4-.1.5-.2.2,0,.3-.1.5-.2.2,0,.3-.1.5-.2.2,0,.4-.2.5-.2.2,0,.3-.2.5-.2.2,0,.3-.1.5-.2.2,0,.3-.1.5-.2.2,0,.4-.1.5-.2.2,0,.3-.1.5-.2.2,0,.3-.1.5-.2.2,0,.4-.2.5-.2.2,0,.4-.2.5-.2.2,0,.3-.1.5-.2.2,0,.3-.1.5-.2.2,0,.3-.2.5-.2.2,0,.3-.1.5-.2.2,0,.3-.2.5-.2.2,0,.3-.1.5-.2.2,0,.4-.2.5-.2.2,0,.3-.1.5-.2.2,0,.4-.1.5-.2.2,0,.3-.2.5-.2.2,0,.3-.2.5-.2.2,0,.3-.1.5-.2.2,0,.3-.1.5-.2.2,0,.4-.2.5-.2.2,0,.4-.1.5-.2.2,0,.3-.2.5-.2,5.3-2,9.7-6.4,11.7-12.3,3.4-10.3-2.3-21.4-12.6-24.8"/>
            <path class="cls-2" d="M207.8,385.1c.1-.2.2-.3.4-.4.1-.1.2-.3.3-.4.1-.2.2-.3.4-.4.1-.1.3-.3.4-.4.1-.1.3-.3.3-.4.1-.1.3-.3.4-.4.1-.1.2-.3.4-.4.1-.1.2-.3.3-.4,3.5-3.7,5.9-8.4,6.7-13.7,2.2-14.2-7.4-27.5-21.6-29.8-10.8-1.7-21,3.5-26.3,12.3-.1.2-.2.3-.3.5,0,.2-.2.3-.3.5,0,.1-.2.3-.3.5,0,.2-.2.3-.3.5,0,.2-.2.3-.3.5,0,.2-.2.3-.3.5-.1.1-.2.3-.3.5,0,.1-.2.3-.3.5,0,.1-.2.3-.3.5-.1.1-.2.3-.3.4,0,.2-.2.3-.3.5-.1.2-.2.3-.3.5-.1.2-.2.3-.3.5-.1.1-.2.3-.3.5,0,.2-.2.3-.3.5,0,.1-.2.3-.3.5,0,.2-.2.3-.3.5,0,.1-.2.3-.3.5,0,.2-.2.3-.3.5,0,.1-.2.3-.3.5-.1.2-.2.3-.3.5,0,.2-.2.3-.3.5,0,.1-.2.3-.3.4,0,.2-.2.3-.3.5-.1.1-.2.3-.3.5,0,.2-.2.3-.3.5,0,.1-.2.3-.3.4-.1.2-.2.3-.3.5,0,.1-.2.3-.3.5,0,.1-.2.3-.3.5,0,.2-.2.3-.3.5,0,.2-.2.3-.3.5,0,.1-.2.3-.3.5,0,.1-.2.3-.3.5,0,.1-.2.3-.3.5-.1.2-.2.3-.3.5,0,.1-.2.3-.3.4,0,.2-.2.3-.3.5,0,.2-.2.3-.3.5-.1.1-.2.3-.3.5-.1.1-.2.3-.3.5,0,.1-.2.3-.3.5,0,.1-.2.3-.3.5,0,.1-.2.3-.2.4,0,.2-.2.3-.3.5,0,.2-.2.3-.3.5,0,.2-.2.3-.3.5,0,.2-.2.3-.3.5,0,.2-.2.3-.3.5-.1.1-.2.3-.3.5,0,.2-.2.3-.3.5-.1.1-.2.3-.3.5,0,.2-.2.3-.3.5,0,.2-.2.3-.3.5,0,.1-.2.3-.3.5,0,.2-.2.3-.3.5,0,.1-.2.3-.3.5,0,.2-.2.3-.3.5,0,.2-.2.3-.3.5,0,.1-.2.3-.3.5,0,.2-.2.3-.3.5,0,.1-.2.3-.3.4,0,.2-.2.3-.3.5,0,.1-.2.3-.3.5,0,.2-.2.3-.3.5,0,.1-.2.3-.3.5,0,.1-.2.3-.3.5,0,.2-.2.3-.3.5,0,.1-.2.3-.3.4,0,.2-.2.3-.3.5,0,.2-.2.3-.3.5,0,.2-.2.3-.3.5,0,.2-.2.3-.2.5,0,.2-.2.3-.3.5,0,.2-.2.3-.3.5-.1.2-.2.3-.3.5-.1.2-.2.3-.3.5-.1.1-.2.3-.3.5,0,.1-.2.3-.3.5,0,.1-.2.3-.3.4-.1.2-.2.3-.3.5,0,.2-.2.3-.3.5-.1.2-.2.3-.3.5,0,.1-.2.3-.3.5-.1.2-.2.3-.3.5,0,.2-.2.3-.3.5,0,.2-.2.3-.3.5,0,.1-.2.3-.3.4-.1.2-.2.3-.3.5,0,.2-.2.3-.3.5,0,.1-.2.3-.3.5,0,.1-.2.3-.3.5,0,.2-.2.3-.3.5,0,.1-.2.3-.3.5,0,.2-.2.3-.3.5,0,.1-.2.3-.3.4,0,.2-.2.3-.3.5-.1.2-.2.3-.3.5,0,.2-.2.3-.3.5,0,.1-.2.3-.3.5,0,.1-.2.3-.3.5,0,.2-.2.3-.3.5,0,.1-.2.3-.3.5,0,.1-.2.3-.3.5,0,.2-.2.3-.3.5-.1.2-.2.3-.3.5,0,.2-.2.3-.3.5-.1.2-.2.3-.3.5,0,.2-.2.3-.3.5-.1.2-.2.3-.3.5-.1.1-.2.3-.3.5-.1.1-.2.3-.3.4,0,.2-.2.3-.3.5-.1.2-.2.3-.3.5,0,.2-.2.3-.3.5,0,.2-.2.3-.3.5,0,.1-.2.3-.3.5,0,.1-.2.3-.3.5,0,.2-.2.3-.3.5,0,.2-.2.3-.3.5,0,.2-.2.3-.3.5,0,.1-.2.3-.3.5-.1.2-.2.3-.3.5,0,.1-.2.3-.3.5,0,.2-.2.3-.3.5,0,.1-.2.3-.3.5-.1.2-.2.3-.3.5,0,.1-.2.3-.3.5,0,.2-.2.3-.3.5,0,.2-.2.3-.3.5-.1.1-.2.3-.3.5,0,.2-.2.3-.3.5,0,.1-.2.3-.3.5,0,.1-.2.3-.2.5-.1.1-.2.3-.3.5,0,.2-.2.3-.3.5,0,.2-.2.3-.3.5-.1.1-.2.3-.3.5-.1.2-.2.3-.3.5,0,.2-.2.3-.3.5,0,.2-.2.3-.3.5,0,.1-.2.3-.3.5,0,.2-.2.3-.3.5,0,.2-.2.3-.3.4,0,.2-.2.3-.3.5,0,.2-.2.3-.3.5-.1.2-.2.3-.3.5,0,.2-.2.3-.3.5,0,.1-.2.3-.3.5,0,.2-.2.3-.3.5,0,.2-.2.3-.3.5-.1.2-.2.3-.3.5,0,.2-.2.3-.3.5,0,.2-.2.3-.3.5,0,.2-.2.3-.3.5,0,.1-.2.3-.3.5,0,.1-.2.3-.3.5,0,.1-.2.3-.3.5-1.3,2-2.1,4.2-2.5,6.7-1.5,9.6,5.1,18.7,14.7,20.2,6.2,1,12.1-1.4,16-5.7.1-.1.2-.3.4-.4.1-.1.3-.3.4-.4.1-.1.2-.3.4-.4.1-.1.2-.3.4-.4.1-.2.2-.3.4-.4.1-.2.2-.3.4-.4.1-.1.2-.3.4-.4.1-.1.2-.3.3-.4.1-.1.2-.3.4-.4.1-.1.2-.3.4-.4.1-.1.2-.3.4-.4.1-.1.2-.3.4-.4.1-.1.2-.3.4-.4.1-.1.2-.3.4-.4.1-.1.2-.3.4-.4.1-.1.2-.3.4-.4.1-.1.2-.3.4-.4.1-.1.2-.2.3-.4.1-.1.2-.3.4-.4,0-.1.2-.3.3-.4.1-.1.3-.3.4-.4.1-.1.2-.3.4-.4.1-.1.2-.3.4-.4,0-.1.2-.3.4-.4.1-.1.2-.3.3-.4.1-.1.3-.3.4-.4.1,0,.2-.3.4-.4.1-.1.2-.3.4-.4.1-.1.2-.2.4-.4.1-.1.2-.3.3-.4.1-.1.3-.3.4-.4.1-.1.2-.3.4-.4.1-.1.2-.3.3-.4.1-.1.2-.3.4-.4.1-.1.3-.2.4-.4.1-.1.2-.3.4-.4.1-.1.3-.3.4-.4.1-.1.2-.3.4-.4.1-.1.2-.3.3-.4.1-.1.2-.3.4-.4.1-.1.2-.3.4-.4.1-.1.2-.3.4-.4.1-.1.2-.3.3-.4.1-.2.3-.3.4-.4.1-.1.2-.3.4-.4.1-.1.2-.3.4-.4.1-.1.2-.3.4-.4.1-.1.2-.3.4-.4.1-.2.2-.3.4-.4,0-.1.2-.3.4-.4.1-.1.2-.3.3-.4.1-.2.2-.3.4-.4.1-.1.2-.3.4-.4.1-.1.2-.3.4-.4.1-.1.2-.3.3-.4.2-.1.3-.3.4-.4.2-.1.3-.3.4-.4.1-.1.2-.3.4-.4.1-.1.2-.3.4-.4,0-.1.2-.3.3-.4.1-.2.2-.3.4-.4.1-.1.3-.3.4-.4.1-.1.2-.3.3-.4.1-.1.2-.3.4-.4s.2-.2.4-.4c.1-.1.2-.3.4-.4.1-.1.2-.3.3-.4.1-.1.3-.3.4-.4.1-.2.2-.3.3-.4.1-.1.2-.3.4-.4.1-.1.2-.3.4-.4.1-.2.2-.3.4-.4.1-.1.2-.3.4-.4.1-.1.2-.3.4-.4.1-.1.2-.3.4-.4,0-.1.2-.3.3-.4.1-.1.3-.3.4-.4.1-.1.3-.3.4-.4.1-.1.2-.3.4-.4.1-.1.2-.3.4-.4.1-.1.2-.3.4-.4.1-.1.2-.3.4-.4.1-.1.2-.3.3-.4.1-.1.2-.3.4-.4.1-.1.2-.3.4-.4.1-.1.2-.3.4-.4.1-.1.3-.3.4-.4.1-.1.2-.3.4-.4.1-.1.2-.3.3-.4.1-.1.3-.3.4-.4.1-.2.2-.3.4-.4.1-.1.2-.3.4-.4,0-.1.2-.3.3-.4.2-.1.3-.3.4-.4.1-.2.2-.3.4-.4.1-.1.2-.3.4-.4.1-.1.2-.3.4-.4.1-.1.2-.3.4-.4.1-.1.2-.3.4-.4.1-.1.2-.3.4-.4,0-.1.2-.3.3-.4.1-.1.3-.3.4-.4.1-.1.2-.3.4-.4.1-.1.3-.3.4-.4,0-.2.2-.3.4-.4.1-.1.2-.3.4-.4.1-.1.2-.3.3-.4.1-.1.3-.3.4-.4,0-.1.2-.3.4-.4.1-.1.2-.3.4-.4.1-.2.2-.3.4-.4.1-.2.2-.3.4-.4.1-.1.2-.3.4-.4.1-.1.2-.3.4-.4.1-.1.2-.3.3-.4.2-.1.3-.3.4-.4.1-.1.2-.3.4-.4.1-.1.2-.3.4-.4.1-.1.2-.3.4-.4.1-.2.3-.3.4-.4.1-.1.3-.3.4-.4.1-.1.3-.3.4-.4.1-.1.2-.3.4-.4.1-.1.2-.3.4-.4.1-.1.2-.3.4-.4,0-.1.2-.3.4-.4.1-.1.2-.3.3-.4.1-.1.2-.3.4-.4.1-.1.2-.3.3-.4.1-.1.3-.3.4-.4.1-.1.2-.3.4-.4.1-.1.2-.3.3-.4.1-.1.2-.3.4-.4.1-.1.3-.2.4-.4.2-.1.3-.3.4-.4.1-.1.2-.3.4-.4.1-.1.2-.3.4-.4.1-.1.2-.3.4-.4.1-.1.2-.3.3-.4.1-.1.2-.3.4-.4.1-.1.2-.3.4-.4.1-.2.2-.3.4-.4.1-.1.2-.3.4-.4.1-.1.2-.3.4-.4.1-.1.2-.3.4-.4,0-.1.2-.3.3-.4.1-.1.3-.3.4-.4.1-.2.2-.3.3-.4.2-.1.3-.3.4-.4.1-.1.2-.3.3-.4"/>
            <path class="cls-2" d="M365.5,564.9c0-.2,0-.4,0-.6,0-.2,0-.4,0-.6,0-.2,0-.4,0-.6,0-.2,0-.4,0-.6,0-.2,0-.4,0-.6,0-.2,0-.4,0-.6,0-.2,0-.4,0-.6,0-.2,0-.4,0-.6,0-.2,0-.4,0-.6,0-.2,0-.4,0-.6,0-.2,0-.4,0-.6,0-.1,0-.4,0-.6,0-.2,0-.4,0-.6,0-.2,0-.4,0-.6,0-.2,0-.4,0-.6,0-.2,0-.4,0-.6,0-.2,0-.4,0-.6,0-.2,0-.4,0-.6,0-.2,0-.4,0-.6,0-.2,0-.4,0-.6,0-.2,0-.4,0-.6,0-.2,0-.4,0-.6,0-.2,0-.4,0-.6,0-.2,0-.4,0-.6,0-.2,0-.4,0-.6,0-.2,0-.4,0-.6,0-.2,0-.4,0-.5,0-.2,0-.4,0-.6s0-.4,0-.6,0-.4,0-.6c0-.2,0-.4,0-.6,0-.2,0-.4,0-.6,0-.2,0-.4,0-.6,0-.2,0-.4,0-.6,0-.2,0-.4,0-.6,0-.2,0-.4,0-.6,0-.2,0-.4,0-.6,0-.2,0-.4,0-.6,0-.2,0-.4,0-.6,0-.2,0-.4,0-.6,0-.2,0-.4,0-.6,0-.2,0-.4,0-.6,0-.2,0-.4,0-.6,0-.2,0-.4,0-.6,0-.2,0-.4,0-.6,0-.2,0-.4,0-.6s0-.4,0-.6c0-.2,0-.4,0-.6,0-.2,0-.4,0-.6,0-.2,0-.4,0-.6s0-.4,0-.6c0-.2,0-.4,0-.6,0-.2,0-.4,0-.6,0-.2,0-.4,0-.6,0-.2,0-.4,0-.6s0-.4,0-.6c0-.2,0-.4,0-.6s0-.4,0-.6c0-.2,0-.4,0-.6,0-.2,0-.4,0-.5,0-.2,0-.4,0-.6,0-.2,0-.4,0-.6,0-.2,0-.4,0-.6,0-.2,0-.4,0-.6,0-.2,0-.4,0-.6,0-.2,0-.4,0-.6,0-.2,0-.4,0-.5,0-.2,0-.4,0-.6,0-.2,0-.4,0-.6,0-.2,0-.4,0-.6,0-.2,0-.4,0-.6,0-.2,0-.4,0-.6,0-.2,0-.4,0-.6,0-.2,0-.4,0-.6,0-.2,0-.4,0-.6,0-.2,0-.4,0-.6,0-.2,0-.4,0-.5,0-.2,0-.4,0-.6,0-.2,0-.4,0-.6,0-.2,0-.4,0-.6,0-.2,0-.4,0-.6,0-.2,0-.4,0-.6,0-.2,0-.4,0-.6,0-.2,0-.4,0-.6,0-.2,0-.4,0-.6,0-.2,0-.4,0-.6,0-.2,0-.4,0-.6,0-.2,0-.4,0-.6,0-.2,0-.4,0-.6,0-.2,0-.4,0-.6,0-.2,0-.4,0-.6,0-.2,0-.4,0-.6,0-.2,0-.4,0-.6,0-.2,0-.4,0-.6,0-.2,0-.4,0-.6,0-.2,0-.4,0-.6,0-.2,0-.4,0-.6,0-.2,0-.4,0-.6,0-.2,0-.4,0-.6,0-.2,0-.4,0-.5,0-.2,0-.4,0-.6v-.6c0-.2,0-.4,0-.6,0-.2,0-.4,0-.6,0-.2,0-.4,0-.6,0-.2,0-.4,0-.6,0-.2,0-.4,0-.6,0-.2,0-.4,0-.6,0-.2,0-.4,0-.6,0-.2,0-.4,0-.6,0-.2,0-.4,0-.6,0-.2,0-.4,0-.6,0-.2,0-.4,0-.6,0-.2,0-.4,0-.6s0-.4,0-.6c0-.2,0-.4,0-.6,0-.2,0-.4,0-.6,0-.2,0-.4,0-.6,0-.2,0-.4,0-.6,0-.2,0-.4,0-.6,0-.2,0-.4,0-.6,0-.2,0-.4,0-.6,0-.2,0-.4,0-.5,0-.2,0-.4,0-.6,0-.2,0-.4,0-.6,0-.2,0-.4,0-.6,0-.2,0-.4,0-.6,0-.2,0-.4,0-.6,0-.2,0-.4,0-.6,0-.2,0-.4,0-.6s0-.4,0-.6c0-.2,0-.4,0-.6-.3-5.7-3.1-11.2-8.1-14.9-8.8-6.4-21.1-4.4-27.5,4.3-2.1,2.9-3.3,6.2-3.6,9.6,0,.2,0,.4,0,.6,0,.2,0,.4,0,.6,0,.2,0,.4,0,.6,0,.2,0,.4,0,.6,0,.2,0,.4,0,.6,0,.2,0,.4,0,.5,0,.2,0,.4,0,.6,0,.2,0,.4,0,.6,0,.2,0,.4,0,.6,0,.2,0,.4,0,.6,0,.2,0,.4,0,.6,0,.2,0,.4,0,.6,0,.2,0,.4,0,.6,0,.2,0,.4,0,.5,0,.2,0,.4,0,.6,0,.2,0,.4,0,.6,0,.2,0,.4,0,.6,0,.2,0,.4,0,.6,0,.2,0,.4,0,.6,0,.2,0,.4,0,.6,0,.2,0,.4,0,.5,0,.2,0,.4,0,.6,0,.2,0,.4,0,.6,0,.2,0,.4,0,.6,0,.2,0,.4,0,.6,0,.2,0,.4,0,.6,0,.2,0,.4,0,.6,0,.2,0,.4,0,.6,0,.2,0,.4,0,.6,0,.2,0,.4,0,.6,0,.2,0,.4,0,.6,0,.2,0,.4,0,.6,0,.2,0,.4,0,.6,0,.2,0,.4,0,.6,0,.2,0,.4,0,.6,0,.2,0,.4,0,.6,0,.2,0,.4,0,.6,0,.2,0,.4,0,.6,0,.2,0,.4,0,.6,0,.2,0,.4,0,.6,0,.2,0,.4,0,.6,0,.2,0,.4,0,.6,0,.2,0,.4,0,.6,0,.2,0,.4,0,.6,0,.2,0,.4,0,.6,0,.2,0,.4,0,.6,0,.2,0,.4,0,.6,0,.2,0,.4,0,.6,0,.2,0,.4,0,.6,0,.2,0,.4,0,.6,0,.2,0,.4,0,.6,0,.2,0,.4,0,.6,0,.2,0,.4,0,.6,0,.2,0,.4,0,.6,0,.2,0,.4,0,.6,0,.2,0,.4,0,.6,0,.2,0,.4,0,.6,0,.2,0,.4,0,.6,0,.2,0,.4,0,.6,0,.2,0,.4,0,.6,0,.2,0,.4,0,.6,0,.2,0,.4,0,.6,0,.2,0,.4,0,.6,0,.2,0,.4,0,.6,0,.2,0,.4,0,.6,0,.2,0,.4,0,.6,0,.2,0,.4,0,.6,0,.2,0,.4,0,.6,0,.2,0,.4,0,.5,0,.2,0,.4,0,.6,0,.2,0,.4,0,.6,0,.2,0,.4,0,.6,0,.2,0,.4,0,.6,0,.2,0,.4,0,.6,0,.2,0,.4,0,.6,0,.2,0,.4,0,.5,0,.2,0,.4,0,.6,0,.2,0,.4,0,.6,0,.2,0,.4,0,.6,0,.2,0,.4,0,.6,0,.2,0,.4,0,.6,0,.2,0,.4,0,.6,0,.2,0,.4,0,.5,0,.2,0,.4,0,.6,0,.2,0,.4,0,.6,0,.2,0,.4,0,.6,0,.2,0,.4,0,.6,0,.2,0,.4,0,.6,0,.2,0,.4,0,.5,0,.2,0,.4,0,.6,0,.2,0,.4,0,.5,0,.2,0,.4,0,.6,0,.2,0,.4,0,.6,0,.2,0,.4,0,.6,0,.2,0,.4,0,.6,0,.2,0,.4,0,.6,0,.2,0,.4,0,.6,0,.2,0,.4,0,.6,0,.2,0,.4,0,.5,0,.2,0,.4,0,.6,0,.2,0,.4,0,.6,0,.2,0,.4,0,.6,0,.2,0,.4,0,.6,0,.2,0,.4,0,.5,0,.2,0,.4,0,.6,0,.2,0,.4,0,.6,0,.2,0,.4,0,.6,0,.2,0,.4,0,.6,0,.2,0,.4,0,.6,0,.2,0,.4,0,.6,0,.2,0,.4,0,.6,0,.2,0,.4,0,.6,0,.2,0,.4,0,.6,0,.2,0,.4,0,.6,0,.2,0,.4,0,.6,0,.2,0,.4,0,.6,0,.2,0,.4,0,.6,0,.2,0,.4,0,.6,0,.2,0,.4,0,.6,0,.2,0,.4,0,.6,0,.2,0,.4,0,.6,0,.2,0,.4,0,.5,0,.2,0,.4,0,.6,0,.2,0,.4,0,.6,0,.2,0,.4,0,.6,0,.2,0,.4,0,.6,0,.2,0,.4,0,.6,0,.2,0,.4,0,.6,0,.2,0,.4,0,.6,0,.2,0,.4,0,.6,0,.2,0,.4,0,.6,0,.2,0,.4,0,.6,0,.2,0,.4,0,.6-1.2,9.2,2.5,18.7,10.5,24.5,11.6,8.4,27.9,5.9,36.3-5.8,3.7-5.2,5.3-11.3,4.8-17.3,0-.2,0-.4,0-.6"/>
            <path class="cls-2" d="M299.9,507.5c0-.1-.2-.3-.3-.5,0-.2-.2-.3-.3-.5,0-.2-.2-.3-.3-.5,0-.2-.2-.3-.3-.5,0-.2-.2-.3-.3-.5-.1-.2-.2-.3-.3-.5,0-.2-.2-.3-.3-.5,0-.2-.2-.3-.3-.5,0-.2-.2-.3-.3-.5,0-.2-.2-.3-.3-.5,0-.2-.2-.3-.3-.5,0-.1-.2-.3-.3-.5,0-.2-.2-.3-.3-.5,0-.2-.2-.3-.3-.5,0-.2-.2-.3-.3-.5,0-.2-.2-.3-.3-.5,0-.2-.2-.3-.3-.5,0-.2-.2-.3-.3-.5,0-.2-.2-.3-.3-.5,0-.2-.2-.3-.3-.5,0-.2-.2-.3-.3-.5,0-.2-.2-.3-.3-.5,0-.1-.2-.3-.3-.5,0-.2-.2-.3-.3-.5-.1-.2-.2-.3-.3-.5,0-.2-.2-.3-.3-.5,0-.2-.2-.3-.3-.5,0-.1-.2-.3-.3-.4,0-.2-.2-.3-.3-.5,0-.2-.2-.3-.3-.5,0-.1-.2-.3-.3-.5,0-.2-.2-.3-.3-.5,0-.1-.2-.3-.3-.5,0-.2-.2-.3-.3-.5,0-.2-.2-.3-.3-.5,0-.2-.2-.3-.3-.5,0-.1-.2-.3-.3-.5,0-.2-.2-.3-.3-.5,0-.2-.2-.3-.3-.5,0-.2-.2-.3-.3-.5,0-.2-.2-.3-.3-.5,0-.2-.2-.3-.3-.5,0-.2-.2-.3-.3-.5,0-.2-.2-.3-.3-.5,0-.2-.2-.3-.3-.5,0-.1-.2-.3-.3-.4,0-.2-.2-.3-.3-.5,0-.1-.2-.3-.3-.5,0-.2-.2-.3-.3-.5,0-.2-.2-.3-.3-.5,0-.1-.2-.3-.3-.4,0-.2-.2-.3-.3-.5,0-.1-.2-.3-.3-.5,0-.1-.2-.3-.3-.5,0-.1-.2-.3-.3-.5,0-.2-.2-.3-.3-.5,0-.2-.2-.3-.3-.5,0-.2-.2-.3-.3-.5,0-.2-.2-.3-.3-.5,0-.2-.2-.3-.3-.5,0-.2-.2-.3-.3-.5,0-.2-.2-.3-.3-.5,0-.2-.2-.3-.3-.5,0-.1-.2-.3-.3-.5,0-.2-.2-.3-.3-.5,0-.1-.2-.3-.3-.5,0-.1-.2-.3-.3-.4,0-.2-.2-.3-.3-.5-.1-.1-.2-.3-.3-.4,0-.2-.2-.3-.3-.5,0-.2-.2-.3-.3-.5,0-.2-.2-.3-.3-.5,0-.2-.2-.3-.3-.5,0-.2-.2-.3-.3-.5,0-.2-.2-.3-.3-.5,0-.2-.2-.3-.3-.5,0-.1-.2-.3-.3-.5,0-.1-.2-.3-.3-.5,0-.1-.2-.3-.3-.5,0-.1-.2-.3-.3-.5,0-.1-.2-.3-.3-.5,0-.2-.2-.3-.3-.4,0-.2-.2-.3-.3-.5,0-.1-.2-.3-.3-.5,0-.2-.2-.3-.3-.5,0-.1-.2-.3-.3-.5,0-.2-.2-.3-.2-.5,0-.2-.2-.3-.3-.5,0-.2-.2-.3-.3-.5,0-.2-.2-.3-.3-.5,0-.2-.2-.3-.3-.5,0-.1-.2-.3-.3-.4,0-.2-.2-.3-.3-.5,0-.2-.2-.3-.3-.5,0-.2-.2-.3-.3-.5,0-.2-.2-.3-.3-.5,0-.2-.2-.3-.3-.5,0-.1-.2-.3-.3-.4,0-.2-.2-.3-.3-.5,0-.1-.2-.3-.2-.4-.1-.2-.2-.3-.3-.5,0-.2-.2-.3-.3-.5,0-.2-.2-.3-.3-.5,0-.2-.2-.3-.3-.5,0-.2-.2-.3-.3-.5,0-.2-.2-.3-.3-.5,0-.1-.2-.3-.3-.5,0-.2-.2-.3-.3-.5,0-.2-.2-.3-.3-.5,0-.2-.2-.3-.3-.5,0-.2-.2-.3-.3-.4,0-.2-.2-.3-.3-.5,0-.2-.2-.3-.3-.5-.1-.2-.2-.3-.3-.5,0-.2-.2-.3-.3-.5,0-.2-.2-.3-.3-.5,0-.2-.2-.3-.3-.5,0-.2-.2-.3-.3-.5,0-.2-.2-.3-.3-.5,0-.1-.2-.3-.3-.5,0-.2-.2-.3-.3-.5,0-.2-.2-.3-.3-.5,0-.2-.2-.3-.3-.5,0-.2-.2-.3-.3-.5,0-.2-.2-.3-.3-.5,0-.2-.2-.3-.3-.5-.1-.1-.2-.3-.3-.5-.1-.2-.2-.3-.3-.5,0-.1-.2-.3-.3-.5,0-.2-.2-.3-.3-.5,0-.1-.2-.3-.3-.5,0-.1-.2-.3-.3-.5,0-.2-.2-.3-.3-.5,0-.1-.2-.3-.3-.5,0-.2-.2-.3-.3-.5,0-.2-.2-.3-.3-.5,0-.2-.2-.3-.3-.5,0-.1-.2-.3-.3-.5-.1-.2-.2-.3-.3-.5,0-.1-.2-.3-.3-.5,0-.2-.2-.3-.3-.5,0-.2-.2-.3-.3-.5,0-.1-.2-.3-.3-.4,0-.2-.2-.3-.3-.5,0-.1-.2-.3-.3-.4,0-.2-.2-.3-.3-.5,0-.2-.2-.3-.3-.5,0-.2-.2-.3-.3-.5-.1-.2-.2-.3-.3-.5,0-.2-.2-.3-.3-.5,0-.2-.2-.3-.3-.5,0-.1-.2-.3-.3-.5,0-.2-.2-.3-.3-.5,0-.1-.2-.3-.3-.5,0-.2-.2-.3-.3-.5,0-.2-.2-.3-.3-.5,0-.2-.2-.3-.3-.5-2.4-4.4-6.2-8.2-11-10.7-12.8-6.5-28.5-1.4-35,11.4-5,9.7-3.2,21.1,3.5,28.8.1.2.3.3.4.4.1.2.3.3.4.4.1.2.2.3.4.4.1.1.3.3.4.4.1.1.2.3.4.4.1.1.2.3.4.4.1.2.2.3.4.4.1.1.3.3.4.4.1.1.2.3.4.4.1.1.3.3.4.4.1.1.2.3.4.4.1.2.2.3.4.4.1.1.2.3.4.4.1.1.2.3.4.4.1.2.2.3.4.4.1.2.2.3.4.4.1.1.2.3.4.4.1.1.2.3.4.4.1.1.2.3.4.4.1.1.2.3.4.4.1.2.2.3.4.4.1.1.2.3.4.4.1.2.2.3.4.4,0,.1.2.3.4.4,0,.1.2.3.4.4.1.1.2.3.4.4,0,.1.2.3.4.4,0,.2.2.3.4.4.1.2.2.3.4.4.1.1.2.3.3.4.1.1.3.3.4.4,0,.2.2.3.3.4.1.1.3.3.4.4,0,.1.2.3.4.4,0,.1.2.3.4.4.1.1.2.3.4.4.1.2.2.3.4.4.1.1.2.3.4.4.1.1.3.3.4.4.1.1.3.2.4.4.1.1.2.3.4.4.1.2.2.3.3.4.1.2.3.3.4.4,0,.1.2.3.4.4,0,.2.2.3.4.4.1.2.2.3.4.4.1.1.2.3.4.4.1.1.2.3.4.4.1.2.2.3.4.4.1.1.2.3.4.4.1.2.2.3.4.4.1.1.2.3.4.4.1.1.3.3.4.4.1.2.2.3.4.4.1.1.2.3.4.4.1.2.2.3.4.4,0,.2.2.3.4.4.1.1.2.3.4.4,0,.1.2.3.3.4.2.2.3.3.4.4,0,.1.2.2.3.4.1.2.2.3.4.4.1.1.2.3.4.4.1.1.3.3.4.4.1.1.2.3.4.4.1.1.3.3.4.4.1.2.2.3.4.4.1.2.2.3.4.4.1.1.3.3.3.4.1.1.2.3.4.4,0,.1.2.3.3.4.1.1.3.3.4.4.1.1.2.3.3.4.1.1.2.3.4.4.1.1.3.3.4.4,0,.1.2.3.3.4.1.2.2.3.4.4.1.1.3.2.4.4.1.1.2.2.4.4.1.1.3.3.4.4.1.2.2.3.4.4,0,.1.2.3.4.4,0,.1.2.3.3.4.1.2.3.3.4.4.1.1.3.3.4.4.1.1.3.3.4.4.1.1.2.3.4.4.1.1.2.3.4.4.1.2.2.3.4.4.1.2.3.3.4.4.1.1.2.3.4.4.1.1.2.3.4.4.1.1.2.3.4.4.1.1.3.3.4.4,0,.2.2.3.4.4.1.2.2.3.4.4.1.1.3.3.4.4.1.1.2.3.4.4.1.2.2.3.4.4.1.1.2.3.4.4.1.1.2.3.4.4.1.1.2.3.4.4.1.2.2.3.3.4.1.2.3.3.4.4.1.1.2.3.4.4.1.2.3.3.4.4.1.2.2.3.4.4.1.1.2.3.4.4,0,.1.2.3.4.4,0,.2.2.3.4.4,0,.1.2.3.4.4.1.1.2.3.4.4,0,.1.2.3.3.4.1.1.2.3.4.4.1.1.3.3.4.4.1.1.2.3.4.4.1.1.2.3.4.4.1.2.2.3.4.4.1.1.3.3.4.4.1.2.2.3.4.4,0,0,.2.2.3.4.1.1.3.3.4.4.1.1.2.3.4.4.1.1.2.3.4.4.1.1.2.3.3.4.1.2.2.3.4.4.1.1.3.3.4.4.1.1.2.3.4.4.1.1.2.3.4.4.1.1.2.3.4.4.1.1.2.3.4.4.1.1.3.3.4.4.1.1.3.3.4.4.1.1.3.3.4.4.1.1.2.3.3.4.1.2.3.3.4.4,0,.1.2.3.4.4.1.1.2.3.4.4,0,.1.2.3.3.4.1.1.2.3.4.4.1.2.2.3.4.4.1.1.3.3.4.4.1.1.2.3.4.4.1.1.2.3.4.4.1.2.2.3.4.4,0,.1.2.3.4.4.1.1.2.3.3.4.1.1.3.3.4.4.2.1.3.3.4.4.1.1.3.3.4.4.1.1.2.3.3.4.1.1.3.3.4.4.1.2.2.3.4.4.2.1.3.3.4.4.1.1.3.3.4.4,0,.1.2.3.4.4.1.2.2.3.4.4.1.1.3.3.4.4,1.5,1.8,3.4,3.3,5.6,4.5,8.7,4.4,19.3,1,23.8-7.7,2.8-5.6,2.4-11.9-.5-17,0-.2-.2-.3-.3-.5"/>
          </g>
          <g>
            <path class="cls-4" d="M1002.9,513.5c-34.4,0-66.7-.8-91.9-2.3V236.8c8.8-.6,35.9-1.2,74.3-2.1,24-.6,47.1.3,65.1,3.2,40.8,6.4,55.9,25.9,62.3,36.6,6.2,10.3,10.3,21.8,9.3,36.7-1.2,17.5-7.2,31.8-25,46l-3.2,2.5,3.6,1.8c12.4,6.3,20.3,16.2,25.7,25.9,6.5,11.7,9.8,25.1,9.8,39.8,0,29.6-10.6,51.6-32.2,66.6-19.1,13.3-52,19.8-97.7,19.8M975.8,456.8c13.8.8,28.7,1.5,43.7.9,11.6-.4,27-1.3,37.9-12.5,9.8-10,11.5-25,4.2-37.3-6.7-11.4-20.2-17.2-52.9-16.8-16.5,0-32.5,1.9-33,2v63.7ZM1006.6,286.5c-6,0-21.6-.2-30.9,1.5v53.8l2.3.2c.1,0,12.9,1.2,27.6,1.2,23.8,0,37.7-2,46-9.3,8.4-7.4,10.6-19.7,5.4-30.1-8.3-16.5-34-17.3-50.5-17.3"/>
            <path class="cls-4" d="M848.3,236.8h-63.7c-5.7,11.7-45.4,93.7-63.6,140.5l-1.2,3.2h-2.2l-1.2-3.2c-18.2-46.8-57.9-128.7-63.6-140.5h-63.7c-13.8,99.1-20.6,252.4-21.5,274.4h63.4c.6-18.4,4.4-134,7-160l.6-6.6h1.6l2.5,5.8c21.2,48.3,48.4,114.6,52.9,125.6h46c4.5-11,31.8-77.3,52.9-125.6l2.5-5.8h1.6l.6,6.6c2.7,26,6.4,141.6,7,160h63.4c-.9-22-7.8-175.3-21.5-274.4"/>
          </g>
        </g>
      </g>
      <g class="cls-3">
        <image width="3280" height="1260" transform="translate(1338.4 -28.4) scale(.6)" xlink:href="mb-bank-logo-pay2s-1.png"/>
      </g>
    </g>
  </g>
</svg>