<?xml version="1.0" encoding="UTF-8"?>
<svg version="1.1" xmlns="http://www.w3.org/2000/svg" width="800" height="800">
<path d="M0 0 C0.81733454 -0.00205263 1.63466907 -0.00410527 2.47677132 -0.0062201 C5.2091577 -0.011864 7.94149324 -0.01043608 10.67388439 -0.00901413 C12.65540203 -0.01159928 14.63691916 -0.01461285 16.61843556 -0.01801753 C22.05924029 -0.02607346 27.50003181 -0.02787632 32.94084179 -0.028615 C38.81092534 -0.03046805 44.68100206 -0.03801674 50.55108166 -0.04475021 C64.05535856 -0.05903265 77.55963363 -0.06485926 91.06391669 -0.06944216 C97.74323239 -0.0717807 104.42254734 -0.07538368 111.10186238 -0.07913754 C133.9841492 -0.09197228 156.86643555 -0.1026906 179.74872589 -0.10614014 C181.18441071 -0.10636177 182.62009554 -0.10658355 184.05578036 -0.10680549 C185.49485754 -0.10702613 186.93393471 -0.10724661 188.37301189 -0.10746694 C191.25985769 -0.10790948 194.1467035 -0.1083566 197.03354931 -0.10880661 C198.10719931 -0.1089707 198.10719931 -0.1089707 199.2025392 -0.1091381 C222.39415557 -0.11276607 245.58574063 -0.12867671 268.77734502 -0.15199697 C293.31986992 -0.17663033 317.86237694 -0.19031464 342.40491456 -0.19150805 C345.10268669 -0.1916795 347.80045881 -0.19189492 350.49823093 -0.19214249 C351.16245643 -0.19219826 351.82668192 -0.19225402 352.51103545 -0.19231148 C362.51148141 -0.19338809 372.51189748 -0.20272497 382.51233387 -0.21632767 C393.89974979 -0.23176256 405.28711205 -0.23682921 416.67453644 -0.22858956 C422.47937511 -0.22469483 428.28410584 -0.22555494 434.08893108 -0.23964691 C439.41456923 -0.25245672 444.74001913 -0.25112663 450.06565728 -0.2390562 C451.98095395 -0.23711138 453.8962643 -0.24012066 455.81154183 -0.24890056 C471.98520848 -0.31828243 487.75056606 1.22634587 503.29111767 5.94392776 C504.60148998 6.33185501 504.60148998 6.33185501 505.93833447 6.72761917 C534.27379127 15.31065544 557.97261147 30.01888039 579.54111767 50.13142776 C580.33131298 50.85588089 581.12150829 51.58033401 581.93564892 52.32674026 C593.97706262 63.80401666 603.55176121 77.60183996 611.54111767 92.13142776 C611.87949657 92.73180862 612.21787548 93.33218948 612.56650829 93.9507637 C624.77149181 115.80538524 632.73212151 142.44481475 632.67254543 167.5903101 C632.67562438 168.8163119 632.67562438 168.8163119 632.67876554 170.06708142 C632.68440944 172.79946779 632.68298152 175.53180334 632.68155956 178.26419449 C632.68414471 180.24571213 632.68715829 182.22722925 632.69056296 184.20874566 C632.6986189 189.64955038 632.70042176 195.09034191 632.70116043 200.53115189 C632.70301348 206.40123543 632.71056217 212.27131216 632.71729565 218.14139175 C632.73157808 231.64566866 632.73740469 245.14994373 632.74198759 258.65422678 C632.74432614 265.33354249 632.74792911 272.01285744 632.75168297 278.69217247 C632.76451771 301.57445929 632.77523603 324.45674564 632.77868557 347.33903599 C632.7789072 348.77472081 632.77912898 350.21040564 632.77935092 351.64609046 C632.77957156 353.08516763 632.77979204 354.52424481 632.78001237 355.96332198 C632.78045491 358.85016779 632.78090203 361.7370136 632.78135204 364.62385941 C632.78146143 365.33962607 632.78157082 366.05539274 632.78168353 366.7928493 C632.78531151 389.98446567 632.80122215 413.17605073 632.82454241 436.36765511 C632.84917576 460.91018002 632.86286007 485.45268704 632.86405349 509.99522465 C632.86422493 512.69299678 632.86444035 515.39076891 632.86468792 518.08854103 C632.86474369 518.75276652 632.86479946 519.41699201 632.86485692 520.10134555 C632.86593352 530.10179151 632.87527041 540.10220757 632.8888731 550.10264397 C632.90430799 561.49005988 632.90937464 572.87742215 632.901135 584.26484654 C632.89724026 590.06968521 632.89810037 595.87441594 632.91219234 601.67924118 C632.92500215 607.00487933 632.92367207 612.33032923 632.91160163 617.65596738 C632.90965681 619.57126405 632.91266609 621.48657439 632.921446 623.40185193 C632.99082787 639.57551858 631.44619957 655.34087615 626.72861767 670.88142776 C626.4699995 671.75500931 626.21138134 672.62859085 625.94492626 673.52864456 C617.36188999 701.86410137 602.65366505 725.56292157 582.54111767 747.13142776 C581.81666454 747.92162308 581.09221142 748.71181839 580.34580517 749.52595901 C568.86852878 761.56737272 555.07070547 771.1420713 540.54111767 779.13142776 C539.94073681 779.46980667 539.34035595 779.80818558 538.72178173 780.15681839 C516.86716019 792.36180191 490.22773069 800.3224316 465.08223534 800.26285553 C463.85623353 800.26593448 463.85623353 800.26593448 462.60546401 800.26907563 C459.87307764 800.27471953 457.14074209 800.27329161 454.40835094 800.27186966 C452.4268333 800.27445481 450.44531618 800.27746838 448.46379977 800.28087306 C443.02299505 800.28892899 437.58220353 800.29073185 432.14139354 800.29147053 C426.27131 800.29332358 420.40123327 800.30087227 414.53115368 800.30760574 C401.02687678 800.32188818 387.5226017 800.32771479 374.01831865 800.33229769 C367.33900295 800.33463623 360.659688 800.33823921 353.98037296 800.34199307 C331.09808614 800.35482781 308.21579979 800.36554613 285.33350945 800.36899567 C283.89782462 800.3692173 282.4621398 800.36943908 281.02645497 800.36966102 C279.5873778 800.36988166 278.14830062 800.37010214 276.70922345 800.37032247 C273.82237764 800.37076501 270.93553183 800.37121213 268.04868603 800.37166214 C266.97503603 800.37182623 266.97503603 800.37182623 265.87969613 800.37199363 C242.68807976 800.3756216 219.4964947 800.39153224 196.30489032 800.4148525 C171.76236542 800.43948586 147.2198584 800.45317017 122.67732078 800.45436358 C119.97954865 800.45453503 117.28177653 800.45475045 114.5840044 800.45499802 C113.58766616 800.45508167 113.58766616 800.45508167 112.57119988 800.45516701 C102.57075392 800.45624361 92.57033786 800.4655805 82.56990147 800.4791832 C71.18248555 800.49461809 59.79512329 800.49968474 48.40769889 800.49144509 C42.60286023 800.48755036 36.79812949 800.48841047 30.99330425 800.50250244 C25.6676661 800.51531225 20.34221621 800.51398216 15.01657806 800.50191173 C13.10128138 800.49996691 11.18597104 800.50297619 9.2706935 800.51175609 C-6.90297315 800.58113796 -22.66833072 799.03650966 -38.20888233 794.31892776 C-39.08246387 794.0603096 -39.95604542 793.80169144 -40.85609913 793.53523636 C-69.19155594 784.95220009 -92.89037614 770.24397514 -114.45888233 750.13142776 C-115.24907764 749.40697464 -116.03927296 748.68252151 -116.85341358 747.93611526 C-128.89482729 736.45883887 -138.46952587 722.66101557 -146.45888233 708.13142776 C-146.79726124 707.53104691 -147.13564014 706.93066605 -147.48427296 706.31209183 C-159.68925648 684.45747029 -167.64988617 657.81804078 -167.5903101 632.67254543 C-167.59236273 631.8552109 -167.59441536 631.03787636 -167.5965302 630.19577411 C-167.6021741 627.46338774 -167.60074618 624.73105219 -167.59932423 621.99866104 C-167.60190937 620.0171434 -167.60492295 618.03562628 -167.60832763 616.05410987 C-167.61638356 610.61330515 -167.61818642 605.17251362 -167.61892509 599.73170364 C-167.62077814 593.8616201 -167.62832683 587.99154337 -167.63506031 582.12146378 C-167.64934275 568.61718687 -167.65516935 555.1129118 -167.65975226 541.60862875 C-167.6620908 534.92931304 -167.66569378 528.24999809 -167.66944763 521.57068306 C-167.68228237 498.68839624 -167.6930007 475.80610988 -167.69645023 452.92381954 C-167.69667186 451.48813472 -167.69689365 450.05244989 -167.69711559 448.61676507 C-167.69733622 447.1776879 -167.69755671 445.73861072 -167.69777703 444.29953355 C-167.69821957 441.41268774 -167.69866669 438.52584193 -167.69911671 435.63899612 C-167.6992261 434.92322946 -167.69933549 434.20746279 -167.69944819 433.47000623 C-167.70307617 410.27838986 -167.71898681 387.0868048 -167.74230707 363.89520042 C-167.76694042 339.35267551 -167.78062473 314.81016849 -167.78181815 290.26763088 C-167.78198959 287.56985875 -167.78220502 284.87208662 -167.78245258 282.1743145 C-167.78250835 281.51008901 -167.78256412 280.84586352 -167.78262158 280.16150998 C-167.78369818 270.16106402 -167.79303507 260.16064796 -167.80663776 250.16021156 C-167.82207266 238.77279565 -167.8271393 227.38543338 -167.81889966 215.99800899 C-167.81500493 210.19317032 -167.81586504 204.38843959 -167.82995701 198.58361435 C-167.84276682 193.2579762 -167.84143673 187.9325263 -167.8293663 182.60688815 C-167.82742147 180.69159148 -167.83043075 178.77628114 -167.83921066 176.8610036 C-167.90859253 160.68733695 -166.36396423 144.92197938 -161.64638233 129.38142776 C-161.38776417 128.50784622 -161.129146 127.63426468 -160.86269093 126.73421097 C-152.27965466 98.39875416 -137.57142971 74.69993396 -117.45888233 53.13142776 C-116.73442921 52.34123245 -116.00997608 51.55103714 -115.26356983 50.73689651 C-103.78629344 38.69548281 -89.98847014 29.12078423 -75.45888233 21.13142776 C-74.85850147 20.79304886 -74.25812061 20.45466995 -73.63954639 20.10603714 C-51.78492485 7.90105362 -25.14549535 -0.05957607 0 0 Z " fill="#A50064" transform="translate(167.45888233184814,-0.13142776489257813)"/>
<path d="M0 0 C1.52161743 0.00737183 1.52161743 0.00737183 3.07397461 0.01489258 C10.32167505 0.1284199 16.76311711 0.87575181 23.625 3.3125 C24.759375 3.67601562 25.89375 4.03953125 27.0625 4.4140625 C35.2580799 7.1518101 44.0189371 10.28445283 50.6171875 16.0546875 C52.56210877 17.53347208 52.56210877 17.53347208 54.97265625 17.234375 C58.30963579 16.07454117 61.05292711 14.41347431 64.0625 12.5625 C70.96098937 8.47906879 77.92309448 5.60483715 85.625 3.3125 C86.67558594 2.9928125 87.72617187 2.673125 88.80859375 2.34375 C113.1085564 -3.95732075 139.56564087 0.70654111 161.00390625 13.296875 C178.36879328 24.5112451 190.30088506 39.7465653 197 59.3125 C197.35795654 60.34213867 197.35795654 60.34213867 197.72314453 61.39257812 C201.63655537 73.60536279 201.91516158 86.25902324 201.85205078 98.95654297 C201.85148512 100.57435092 201.85180625 102.19215938 201.85293579 103.80996704 C201.85350424 108.15615304 201.84183313 112.50222625 201.82778788 116.84838629 C201.81519494 121.40739192 201.81410332 125.9664008 201.81173706 130.52542114 C201.80554726 139.1381428 201.78917065 147.75081304 201.76903808 156.36351216 C201.74239666 168.01628727 201.73168621 179.66907668 201.72003365 191.32187462 C201.70128797 209.65212151 201.66142574 227.98225996 201.625 246.3125 C178.195 246.3125 154.765 246.3125 130.625 246.3125 C130.58632813 228.91015625 130.58632813 228.91015625 130.546875 211.15625 C130.52171097 203.80987891 130.49554462 196.46353409 130.46484375 189.1171875 C130.41629241 177.45475441 130.3718532 165.79240871 130.35400391 154.12988281 C130.34098535 145.63601154 130.31401543 137.14231792 130.27038693 128.6485467 C130.24777674 124.15233873 130.23208905 119.65634982 130.23311615 115.16007996 C130.23386302 110.92464858 130.21590144 106.68970137 130.18383217 102.45439529 C130.17534075 100.90327285 130.17357811 99.35209605 130.17919731 97.80096054 C130.29212361 85.08933518 130.29212361 85.08933518 123.84375 74.47265625 C123.2765625 74.11042969 122.709375 73.74820313 122.125 73.375 C121.5578125 72.99472656 120.990625 72.61445313 120.40625 72.22265625 C115.08525698 69.50381552 109.19021757 69.62104596 103.5625 71.375 C99.07234292 73.20076426 96.25607637 76.30670899 93.625 80.3125 C92.49609261 83.69922217 92.48599917 86.2896535 92.46678162 89.8613739 C92.46184364 90.52955621 92.45690566 91.19773852 92.45181805 91.88616878 C92.43643642 94.12943226 92.42808065 96.37266711 92.41967773 98.6159668 C92.41009973 100.22230278 92.4000897 101.82863624 92.38967896 103.43496704 C92.3626154 107.80033652 92.34161368 112.16571682 92.32167697 116.53112388 C92.29982638 121.0915549 92.27243315 125.6519525 92.24562073 130.21235657 C92.19568131 138.8501928 92.15074711 147.48804758 92.10759836 156.12592012 C92.04901059 167.796826 91.982717 179.46768793 91.91684818 191.13855457 C91.81325395 209.52984011 91.71997779 227.92116328 91.625 246.3125 C67.865 246.3125 44.105 246.3125 19.625 246.3125 C19.56892578 229.00103516 19.56892578 229.00103516 19.51171875 211.33984375 C19.48144785 204.03449313 19.45042781 196.72915847 19.41601562 189.42382812 C19.36151823 177.82496579 19.3101058 166.22614778 19.27856445 154.62719727 C19.25557933 146.17987047 19.2221755 137.73265987 19.17629844 129.28542525 C19.15237319 124.81331732 19.13363983 120.34132443 19.12738609 115.86915398 C19.12133209 111.65759694 19.10132086 107.4463342 19.07072449 103.23488617 C19.06194932 101.6914048 19.05822061 100.14788496 19.05999184 98.60437965 C19.0616506 96.4914034 19.04489576 94.37931794 19.02372742 92.26646423 C19.01911845 91.08564742 19.01450949 89.90483061 19.00976086 88.68823147 C18.26852712 82.18495547 15.69248195 77.55504303 10.625 73.3125 C6.0640392 70.37321415 1.97373981 69.54543266 -3.375 70.3125 C-9.17828718 72.27971599 -13.79230818 74.66290049 -16.99070454 80.01736641 C-18.53240359 83.68717857 -18.75844306 86.2543179 -18.77372742 90.22213745 C-18.78037424 90.89288303 -18.78702107 91.56362862 -18.79386932 92.25469983 C-18.812433 94.48880443 -18.80989864 96.72237034 -18.80737305 98.95654297 C-18.8163943 100.56332654 -18.82672241 102.17010323 -18.83825684 103.77687073 C-18.86581044 108.12970063 -18.87510912 112.48239988 -18.88111091 116.83530569 C-18.89049883 121.38774374 -18.91670258 125.94008436 -18.94111633 130.49246216 C-18.98477347 139.10894785 -19.01332527 147.72541462 -19.03643972 156.34197724 C-19.06855597 167.98841925 -19.12402728 179.63474857 -19.17818546 191.28110504 C-19.2628728 209.62486985 -19.31637388 227.96859052 -19.375 246.3125 C-42.805 246.3125 -66.235 246.3125 -90.375 246.3125 C-90.46560735 225.01419751 -90.53915967 203.71605325 -90.58224869 182.41760635 C-90.6027954 172.52638047 -90.63076338 162.63528363 -90.67675781 152.74414062 C-90.71686904 144.11400627 -90.74249 135.48396545 -90.75135398 126.85374045 C-90.75652801 122.29225045 -90.76852014 117.73102785 -90.79792023 113.16962433 C-91.00088538 80.38057843 -89.49294045 50.90330281 -65.6953125 25.61328125 C-53.31197809 13.33418366 -38.37421721 5.81393962 -21.375 2.3125 C-20.62766602 2.13807373 -19.88033203 1.96364746 -19.11035156 1.78393555 C-12.69837489 0.35489005 -6.5596384 -0.03774623 0 0 Z " fill="#FEFDFE" transform="translate(210.375,420.6875)"/>
<path d="M0 0 C1.77271339 1.17519794 1.77271339 1.17519794 3.71386719 0.6496582 C5.83679339 -0.03278085 7.60917344 -0.87237752 9.5546875 -1.95703125 C10.25279541 -2.33980225 10.95090332 -2.72257324 11.67016602 -3.11694336 C12.77122681 -3.72421265 12.77122681 -3.72421265 13.89453125 -4.34375 C20.37802283 -7.8456763 26.74883385 -10.90982648 33.83203125 -13.03125 C34.53457031 -13.24265625 35.23710937 -13.4540625 35.9609375 -13.671875 C60.52186823 -20.40089712 88.36261365 -15.57326475 110.21484375 -3.234375 C130.83547529 8.96190786 142.98082902 29.44355477 149.03515625 52.09765625 C151.07692057 62.01622705 150.97052501 71.98343948 150.94555664 82.06689453 C150.9452741 83.67426044 150.9454338 85.28162648 150.94599915 86.88899231 C150.94628452 91.22505018 150.94042989 95.56108005 150.93342519 99.89713144 C150.92714831 104.43881492 150.92658443 108.98049913 150.92539978 113.52218628 C150.9222992 122.11023147 150.91410306 130.69826384 150.90405029 139.2863034 C150.89075267 150.90000663 150.88537895 162.5137134 150.87954807 174.12742233 C150.87016225 192.40787448 150.85023484 210.68829958 150.83203125 228.96875 C127.40203125 228.96875 103.97203125 228.96875 79.83203125 228.96875 C79.79335938 211.6746875 79.79335938 211.6746875 79.75390625 194.03125 C79.72874213 186.73045172 79.70257569 179.42967987 79.671875 172.12890625 C79.62332427 160.53890156 79.57888481 148.9489848 79.56103516 137.35888672 C79.54801631 128.91775259 79.52104566 120.4767972 79.47741818 112.03576374 C79.45480863 107.56750113 79.43912027 103.09945893 79.4401474 98.63113403 C79.44089431 94.42196623 79.42293121 90.21328558 79.39086342 86.00424385 C79.38237248 84.46279689 79.38060903 82.92129523 79.38622856 81.37983513 C79.41149779 73.38041387 79.40579948 66.8091726 74.83203125 59.96875 C70.35064965 55.60227562 66.20641511 53.88127248 60.01953125 53.53125 C54.53015472 53.64578245 50.97304355 55.44936772 46.83203125 58.96875 C42.58465682 63.65175258 41.70748883 66.13363952 41.67381287 72.39736938 C41.66887489 73.06469727 41.66393691 73.73202515 41.6588493 74.4195751 C41.64343504 76.66594462 41.6351031 78.91228548 41.62670898 81.15869141 C41.61713354 82.7648799 41.60712366 84.37106586 41.59671021 85.97724915 C41.56961888 90.34680987 41.54863225 94.71638144 41.52870822 99.08597994 C41.50687469 103.6490862 41.47947315 108.21215886 41.45265198 112.77523804 C41.40268941 121.42019069 41.35776383 130.06516195 41.31462961 138.71015108 C41.25606736 150.3892245 41.18976139 162.06825375 41.12387943 173.74728775 C41.020249 192.1544121 40.92699692 210.56157419 40.83203125 228.96875 C17.07203125 228.96875 -6.68796875 228.96875 -31.16796875 228.96875 C-31.18214844 217.3671875 -31.19632812 205.765625 -31.2109375 193.8125 C-31.23099248 186.46612352 -31.25230351 179.11978633 -31.27929688 171.7734375 C-31.3219153 160.11098271 -31.35938069 148.44867322 -31.36352539 136.78613281 C-31.36656761 128.29223784 -31.38709275 119.7985945 -31.42849332 111.3047967 C-31.44980164 106.8085389 -31.46243512 102.31263866 -31.45412254 97.81632996 C-31.44656861 93.58081635 -31.46245916 89.34602639 -31.4960289 85.11064529 C-31.50424608 83.55952207 -31.50403106 82.00832666 -31.49456596 80.45721054 C-31.35603055 68.76193021 -31.35603055 68.76193021 -37.16796875 58.96875 C-42.56608215 54.67229239 -47.09958183 53.59860675 -53.85546875 53.6875 C-58.81815146 54.29106952 -62.10974356 56.82472277 -65.48046875 60.46875 C-68.59542177 65.08349521 -69.42018049 67.94501141 -69.44644165 73.59991455 C-69.45223405 74.26486773 -69.45802645 74.92982091 -69.46399438 75.61492419 C-69.48098908 77.84131382 -69.48387037 80.06749608 -69.48681641 82.29394531 C-69.49611496 83.8905793 -69.50628353 85.48720843 -69.51725769 87.08383179 C-69.54457997 91.41815711 -69.5597137 95.75244989 -69.57268572 100.08683872 C-69.5883065 104.61658528 -69.61510008 109.14626528 -69.64071655 113.67596436 C-69.68752298 122.25355342 -69.72425807 130.83115497 -69.75738943 139.40880656 C-69.8027407 150.99981674 -69.86361994 162.59074462 -69.92363739 174.1816864 C-70.01778889 192.44399971 -70.09116798 210.7063364 -70.16796875 228.96875 C-93.59796875 228.96875 -117.02796875 228.96875 -141.16796875 228.96875 C-141.21318244 207.66266906 -141.2499968 186.3566272 -141.27159309 165.05051041 C-141.28188886 155.15686572 -141.29591658 145.26325304 -141.31884766 135.36962891 C-141.33883369 126.74250222 -141.35169753 118.11539873 -141.35614574 109.48824954 C-141.35874431 104.92374979 -141.36481641 100.35931637 -141.37942886 95.79483795 C-141.39309529 91.4906276 -141.39717324 87.18651034 -141.39418411 82.88228035 C-141.39473025 81.31023463 -141.39865337 79.7381855 -141.4063797 78.16615868 C-141.51930572 53.98522325 -135.75302719 30.29960406 -119.16796875 11.96875 C-118.5028125 11.21078125 -117.83765625 10.4528125 -117.15234375 9.671875 C-88.17264024 -21.45447322 -33.61219472 -25.98812688 0 0 Z " fill="#FEFDFE" transform="translate(261.16796875,146.03125)"/>
<path d="M0 0 C1.46288452 0.00725098 1.46288452 0.00725098 2.95532227 0.01464844 C34.7645013 0.28099005 64.57025325 13.1320145 87.8203125 34.78125 C91.93370825 38.96436433 95.57059513 43.46359474 99.125 48.125 C99.71925781 48.89199219 100.31351563 49.65898437 100.92578125 50.44921875 C120.77839057 77.33010815 128.20660462 112.10623056 123.30273438 145.04760742 C122.70599821 148.44174381 121.96675294 151.78367164 121.125 155.125 C120.95871094 155.78902832 120.79242187 156.45305664 120.62109375 157.13720703 C115.02682688 178.59743635 103.52167741 197.36009115 88.125 213.125 C87.45855469 213.85332031 86.79210937 214.58164062 86.10546875 215.33203125 C67.12416661 235.59207374 35.06878643 248.4574643 7.58203125 249.43359375 C-15.01200583 250.03607852 -36.68376494 246.61488425 -56.875 236.125 C-57.87144531 235.63128906 -58.86789062 235.13757813 -59.89453125 234.62890625 C-88.23517491 220.00275589 -108.91771094 194.01068057 -119.05493164 164.05297852 C-120.09839034 160.76956719 -121.00712865 157.45856784 -121.875 154.125 C-122.1946875 152.93390625 -122.514375 151.7428125 -122.84375 150.515625 C-129.97796983 119.20432685 -123.3451596 85.56004754 -106.78417969 58.33154297 C-101.88937743 50.61281633 -96.19133228 43.71787923 -89.875 37.125 C-89.19050781 36.37734375 -88.50601563 35.6296875 -87.80078125 34.859375 C-65.22119005 10.985944 -32.31581876 -0.16783079 0 0 Z " fill="#FEFDFE" transform="translate(575.875,129.875)"/>
<path d="M0 0 C1.33559691 0.33339863 2.67155207 0.66536453 4.0078125 0.99609375 C25.13673738 6.47078501 43.27336076 16.93303523 59 32 C59.74765625 32.68449219 60.4953125 33.36898437 61.265625 34.07421875 C72.00235658 44.22906452 79.65853921 56.75232667 86 70 C86.47179687 70.97582031 86.94359375 71.95164062 87.4296875 72.95703125 C100.09609402 102.34152091 99.46929054 138.60830413 88.01171875 168.20703125 C82.73309471 181.10310783 75.94067186 192.34108827 67 203 C66.33226562 203.81984375 65.66453125 204.6396875 64.9765625 205.484375 C59.94132633 211.44445047 54.18576074 216.26919989 48 221 C47.20851563 221.60714844 46.41703125 222.21429687 45.6015625 222.83984375 C18.95919649 242.35692582 -13.99100061 249.6690867 -46.55712891 245.12915039 C-50.39329634 244.51811777 -54.19800684 243.79500153 -58 243 C-58.6604834 242.86609863 -59.3209668 242.73219727 -60.00146484 242.59423828 C-82.22051329 237.92399243 -100.97136228 225.64926168 -117 210 C-117.72703125 209.33484375 -118.4540625 208.6696875 -119.203125 207.984375 C-138.97614362 189.45690086 -151.86502585 158.68894755 -153.15234375 131.8203125 C-153.25224625 128.29575225 -153.29777243 124.77592413 -153.3125 121.25 C-153.31805908 120.13786133 -153.32361816 119.02572266 -153.3293457 117.87988281 C-153.0391656 84.33803903 -138.21285483 54.54878616 -115 31 C-114.22269531 30.20980469 -113.44539063 29.41960937 -112.64453125 28.60546875 C-97.49469799 14.11542723 -77.29531324 4.51734391 -57 0 C-55.90429688 -0.29777344 -54.80859375 -0.59554688 -53.6796875 -0.90234375 C-36.58797761 -5.12660462 -16.92685729 -4.7402877 0 0 Z " fill="#FEFDFE" transform="translate(604,424)"/>
<path d="M0 0 C0.87398437 0.37898438 1.74796875 0.75796875 2.6484375 1.1484375 C15.86302738 7.55214632 25.24175468 18.88853046 30.3125 32.53125 C34.34398899 45.85756081 34.36943949 58.73970101 30 72 C29.61714844 73.25683594 29.61714844 73.25683594 29.2265625 74.5390625 C24.51483663 88.155518 14.38123955 97.97307164 1.89453125 104.6640625 C-11.11726969 110.2294445 -27.99986668 110.25460694 -41.25 105.3203125 C-55.68682686 98.38899506 -65.45379545 86.90822437 -71.12890625 72.04296875 C-74.96562081 58.6402753 -75.25294784 40.59839491 -69 28 C-68.25363281 26.48212891 -68.25363281 26.48212891 -67.4921875 24.93359375 C-60.51011681 11.95993217 -50.06570577 2.80251056 -36 -1.9375 C-24.89086412 -4.54095106 -10.47549922 -4.84908268 0 0 Z " fill="#A50164" transform="translate(596,493)"/>
<path d="M0 0 C11.3555051 9.14496678 19.02852636 21.7488935 21.40234375 36.19921875 C23.21415345 53.59755572 20.40986833 68.81444986 9.6875 82.9375 C1.67639084 92.68777302 -8.69770547 99.79891594 -21.3125 101.9375 C-38.94890396 103.60682007 -53.59699505 100.50412926 -67.52734375 89.12890625 C-77.35160189 80.05890977 -83.74779321 67.11044872 -84.42285156 53.75415039 C-84.86651219 36.00584524 -82.92234904 19.70374043 -70.22680664 6.15234375 C-51.29001619 -12.62427016 -22.03302435 -15.20472195 0 0 Z " fill="#A50164" transform="translate(607.3125,208.0625)"/>
</svg>
