<?xml version="1.0" encoding="UTF-8"?>
<svg version="1.1" xmlns="http://www.w3.org/2000/svg" width="1024" height="1024">
<path d="M0 0 C2.44594536 -0.00462397 4.89188792 -0.01098681 7.33782482 -0.01890898 C12.59914115 -0.03199825 17.8603076 -0.03303095 23.12162399 -0.02272034 C30.94609355 -0.00742927 38.770427 -0.01540768 46.59489599 -0.02755357 C60.5789696 -0.04849697 74.56296961 -0.04683904 88.54705003 -0.03523792 C100.78547405 -0.02513606 113.02387124 -0.02256724 125.26229858 -0.02732849 C126.07724154 -0.02763403 126.8921845 -0.02793957 127.73182269 -0.02825437 C131.04076652 -0.02949993 134.34971034 -0.03077355 137.65865413 -0.03209343 C168.63625969 -0.04430217 199.61381865 -0.03327898 230.591417 -0.01170584 C258.0532385 0.00727355 285.51498578 0.00557491 312.97680664 -0.0135498 C343.90135109 -0.03501453 374.82585444 -0.04343598 405.75040531 -0.03110075 C409.05297406 -0.02981807 412.35554281 -0.0285667 415.65811157 -0.02732849 C416.47116073 -0.02701218 417.28420988 -0.02669587 418.12189689 -0.02636998 C430.34619904 -0.02183911 442.57047129 -0.02710549 454.79476929 -0.0372467 C468.70822468 -0.04873239 482.62159562 -0.0457215 496.53504062 -0.02412373 C504.30136822 -0.01246252 512.06751253 -0.01148875 519.833835 -0.02670843 C525.66197926 -0.03686058 531.48993843 -0.02568687 537.31805384 -0.00681013 C539.65350968 -0.00239503 541.9889905 -0.00449318 544.32442987 -0.01431328 C599.53415141 -0.22838766 655.80319405 18.50262311 697.46020508 55.50793457 C698.31614258 56.26719238 699.17208008 57.0264502 700.05395508 57.80871582 C701.74838067 59.32706405 703.4362076 60.85281741 705.11645508 62.38684082 C707.2594482 64.3262496 709.44365146 66.20122756 711.64770508 68.07043457 C714.86799369 70.88738683 717.69562089 73.86433337 720.44848633 77.13684082 C721.93087207 78.8840411 723.45583714 80.59532995 725.00317383 82.28527832 C759.52441004 120.35419867 782.67799814 175.05164377 782.59442616 226.785429 C782.59677839 227.78724172 782.59913062 228.78905443 782.60155413 229.82122511 C782.60820637 233.17521049 782.60778704 236.52915679 782.6073761 239.88314819 C782.6106771 242.3135554 782.61440316 244.74396206 782.61851758 247.17436802 C782.62747099 253.15180996 782.63176101 259.12923943 782.63403654 265.10668632 C782.63700589 272.26951955 782.64570775 279.43234304 782.65445082 286.59517114 C782.67526959 303.90937046 782.68576219 321.22357147 782.69458043 338.53778039 C782.69879185 346.73677896 782.70401326 354.93577681 782.70926496 363.13477477 C782.72715568 391.22645946 782.74214831 419.31814437 782.74958515 447.40983391 C782.7500599 449.17267996 782.75053579 450.93552602 782.75101281 452.69837207 C782.75136738 454.00963647 782.75136738 454.00963647 782.7517291 455.34739106 C782.75293025 459.77606832 782.75414571 464.20474559 782.75537109 468.63342285 C782.75561124 469.51229325 782.75585139 470.39116366 782.75609882 471.2966665 C782.76398328 499.76088619 782.78739721 528.22506409 782.81992704 556.68926555 C782.85429238 586.81486813 782.87394262 616.94044628 782.87722939 647.06606877 C782.87764689 650.37902841 782.87812645 653.69198804 782.87865257 657.00494766 C782.87877576 657.82063382 782.87889896 658.63631998 782.87902588 659.4767239 C782.88134989 672.55646065 782.89696526 685.63614857 782.91749442 698.71586797 C782.93783867 711.88777127 782.94318939 725.05961646 782.93372378 738.23153256 C782.92854161 746.03777164 782.93422897 753.84381606 782.95625846 761.65002679 C782.97152874 767.50859932 782.96541028 773.3670325 782.95158794 779.2256123 C782.94923058 781.57372531 782.95343629 783.92185768 782.96541659 786.26994132 C783.192154 833.70298877 769.81081547 882.90039603 741.46020508 921.50793457 C740.74348633 922.49535645 740.02676758 923.48277832 739.28833008 924.50012207 C728.18034785 939.55335316 716.0730932 954.68319546 701.46020508 966.50793457 C700.28894115 967.49018409 699.11844981 968.47335519 697.94848633 969.45715332 C653.35925874 1006.66431328 598.88433549 1025.25986794 540.95837402 1025.01586914 C538.51655346 1025.02049315 536.07473569 1025.02685601 533.6329236 1025.03477812 C528.38061957 1025.04786705 523.12846568 1025.04890035 517.87616158 1025.03858948 C510.0650932 1025.02329803 502.25416116 1025.03127701 494.44309334 1025.04342271 C480.48294792 1025.06436582 466.52287623 1025.06270829 452.56272398 1025.05110706 C440.34523933 1025.0410051 428.12778155 1025.03843643 415.91029358 1025.04319763 C415.09673697 1025.04350317 414.28318036 1025.04380871 413.44497052 1025.04412351 C410.14165364 1025.04536907 406.83833677 1025.04664269 403.53501992 1025.04796257 C372.61025168 1025.06017124 341.68553011 1025.04914823 310.76076908 1025.02757498 C283.34594019 1025.0085956 255.93118566 1025.01029424 228.51635742 1025.02941895 C197.64455066 1025.05088379 166.77278507 1025.05930506 135.90097189 1025.04696989 C132.60402013 1025.04568721 129.30706836 1025.04443584 126.01011658 1025.04319763 C125.19845057 1025.04288132 124.38678457 1025.04256501 123.55052263 1025.04223912 C111.34715203 1025.0377083 99.14381139 1025.04297454 86.94044495 1025.05311584 C73.05077807 1025.06460166 59.16119579 1025.06159036 45.27153933 1025.03999287 C37.51854233 1025.02833188 29.76572894 1025.02735756 22.01273707 1025.04257757 C16.19451613 1025.05273006 10.37648057 1025.04155556 4.55828851 1025.02267927 C2.22687034 1025.01826432 -0.10457286 1025.02036197 -2.43597454 1025.03018242 C-40.01828232 1025.1761641 -75.72170081 1016.76897937 -109.53979492 1000.50793457 C-110.59263672 1000.00205811 -110.59263672 1000.00205811 -111.66674805 999.48596191 C-131.08986032 990.00391892 -148.21087704 977.22666547 -164.12963867 962.69543457 C-166.46560746 960.5752684 -168.84306367 958.51096147 -171.22729492 956.44543457 C-175.38653892 952.74348965 -178.9667189 948.76814059 -182.53979492 944.50793457 C-183.3622168 943.57336426 -184.18463867 942.63879395 -185.03198242 941.67590332 C-223.59739128 897.62594486 -242.29187586 841.03163216 -242.04772949 782.96813965 C-242.05235347 780.52219429 -242.0587163 778.07625173 -242.06663847 775.63031483 C-242.07972774 770.3689985 -242.08076044 765.10783205 -242.07044983 759.84651566 C-242.05515877 752.0220461 -242.06313717 744.19771265 -242.07528306 736.37324366 C-242.09622646 722.38917005 -242.09456853 708.40517004 -242.08296741 694.42108962 C-242.07286556 682.1826656 -242.07029673 669.94426841 -242.07505798 657.70584106 C-242.07536352 656.89089811 -242.07566906 656.07595515 -242.07598386 655.23631696 C-242.07722942 651.92737313 -242.07850304 648.61842931 -242.07982292 645.30948551 C-242.09203166 614.33187996 -242.08100847 583.354321 -242.05943533 552.37672265 C-242.04045594 524.91490115 -242.04215458 497.45315386 -242.0612793 469.99133301 C-242.08274402 439.06678856 -242.09116547 408.1422852 -242.07883024 377.21773434 C-242.07754756 373.91516559 -242.07629619 370.61259684 -242.07505798 367.31002808 C-242.07474167 366.49697892 -242.07442536 365.68392977 -242.07409947 364.84624276 C-242.0695686 352.62194061 -242.07483498 340.39766836 -242.0849762 328.17337036 C-242.09646188 314.25991497 -242.093451 300.34654402 -242.07185322 286.43309903 C-242.06019201 278.66677143 -242.05921824 270.90062712 -242.07443792 263.13430465 C-242.08459007 257.30616039 -242.07341637 251.47820122 -242.05453962 245.65008581 C-242.05012452 243.31462996 -242.05222268 240.97914915 -242.06204277 238.64370978 C-242.2458272 191.24575873 -228.86935401 142.08680569 -200.53979492 103.50793457 C-199.82307617 102.5205127 -199.10635742 101.53309082 -198.36791992 100.51574707 C-187.2599377 85.46251598 -175.15268304 70.33267368 -160.53979492 58.50793457 C-159.36853099 57.52568505 -158.19803965 56.54251395 -157.02807617 55.55871582 C-112.42427572 18.33939565 -57.94267707 -0.24363836 0 0 Z " fill="#FEFEFE" transform="translate(241.539794921875,-0.5079345703125)"/>
<path d="M0 0 C2.35440531 -0.00115409 4.70881044 -0.00274354 7.0632152 -0.00472724 C12.82125909 -0.00844714 18.57928908 -0.00756841 24.33733314 -0.00467648 C31.24348377 -0.00146982 38.14962921 -0.00410994 45.05577959 -0.00688839 C58.58429855 -0.01213903 72.11281277 -0.01170379 85.64133218 -0.00880948 C97.4800805 -0.00628925 109.31882708 -0.0056394 121.15757561 -0.00683212 C121.9443027 -0.00690851 122.7310298 -0.00698489 123.54159711 -0.00706359 C126.73554487 -0.00737495 129.92949264 -0.00769336 133.1234404 -0.00802336 C163.05524845 -0.01107902 192.98705349 -0.00831414 222.91886108 -0.00292646 C249.48606504 0.00181924 276.05326422 0.00139374 302.62046814 -0.00338745 C332.5006896 -0.00874696 362.3809084 -0.01086274 392.26113027 -0.00777519 C395.44879019 -0.00745449 398.63645011 -0.00714165 401.82411003 -0.00683212 C402.60893653 -0.00675305 403.39376303 -0.00667397 404.20237215 -0.00659249 C416.03164465 -0.00545708 427.86091522 -0.00678144 439.69018745 -0.00931168 C453.14559976 -0.01217547 466.60100661 -0.01144642 480.05641825 -0.00603093 C486.91809941 -0.00336004 493.77977171 -0.00223559 500.64145279 -0.00568008 C506.92873876 -0.00867068 513.21600606 -0.00700435 519.50329035 -0.00170253 C521.77155774 -0.00059012 524.03982672 -0.00114328 526.30809308 -0.00357832 C567.4491498 -0.04433913 607.97730467 7.00851393 644.42393494 27.12698364 C645.14484314 27.52095337 645.86575134 27.9149231 646.60850525 28.3208313 C660.33070372 35.90320246 673.65006351 44.73667775 685.42393494 55.12698364 C685.42393494 55.45698364 685.42393494 55.78698364 685.42393494 56.12698364 C664.00235759 59.43814892 642.55558517 62.56769578 621.10248566 65.66723633 C601.03278261 68.56731133 580.97443141 71.53389213 560.92393494 74.56448364 C538.36048521 77.97391372 515.7792717 81.23904057 493.18617249 84.44446945 C472.25113507 87.41497284 451.33059767 90.46159736 430.42393494 93.62698364 C408.02680944 97.01803437 385.61213972 100.26299874 363.18455505 103.44467163 C342.2500441 106.4150087 321.33005835 109.46167901 300.42393494 112.62698364 C278.02680944 116.01803437 255.61213972 119.26299874 233.18455505 122.44467163 C212.2500441 125.4150087 191.33005835 128.46167901 170.42393494 131.62698364 C148.77230204 134.9051626 127.10498208 138.05092662 105.42393494 141.12698364 C81.47489009 144.52520683 57.54282793 148.0157738 33.62901306 151.6555481 C20.12473762 153.70510821 6.61324821 155.67651307 -6.91479111 157.56205559 C-9.5028558 157.92345414 -12.09061586 158.28695393 -14.67826843 158.65129089 C-15.53158186 158.77143523 -16.38489529 158.89157957 -17.2640667 159.01536465 C-18.9852996 159.25780129 -20.70651772 159.50034283 -22.42772102 159.74298954 C-26.62487835 160.3336039 -30.82270608 160.91810769 -35.0226593 161.48852539 C-71.92338483 166.50538842 -104.66212938 174.54749386 -128.97840881 205.15042114 C-139.59167568 219.84571373 -147.39225651 236.64616161 -150.38856506 254.56448364 C-150.5127179 255.29062866 -150.63687073 256.01677368 -150.76478577 256.7649231 C-153.10914202 272.59062545 -150.64326964 288.08531481 -148.46278381 303.77542114 C-148.13343219 306.1992176 -147.80497225 308.62313536 -147.4773407 311.04716492 C-146.68999154 316.8562474 -145.8936795 322.6640472 -145.09319806 328.47133344 C-144.16147848 335.23461351 -143.24134006 341.99945457 -142.32199562 348.76442611 C-140.7583674 360.26888426 -139.18718277 371.77229202 -137.61024475 383.27493286 C-135.9034569 395.72550554 -134.20750612 408.1775039 -132.52137756 420.63088989 C-132.18312645 423.12832225 -131.84485126 425.62575135 -131.50657558 428.12318039 C-131.28835557 429.73426456 -131.07015273 431.34535105 -130.85196781 432.95643997 C-129.77483949 440.9081684 -128.69286542 448.85923572 -127.61064339 456.81027222 C-124.7006941 478.1902633 -121.8055331 499.57225019 -118.9115448 520.95440674 C-116.59566202 538.0649237 -114.27832723 555.17524419 -111.96090698 572.28555298 C-111.707432 574.1570528 -111.45396302 576.02855343 -111.20050049 577.90005493 C-109.45216011 590.80923086 -107.70258449 603.71823864 -105.95106506 616.62698364 C-105.83948689 617.44942818 -105.72790871 618.27187271 -105.61294937 619.11923981 C-103.02626764 638.18421427 -100.42684886 657.24736256 -97.79872131 676.30667114 C-97.68364227 677.14129065 -97.56856323 677.97591015 -97.44999695 678.83582115 C-96.86957524 683.04510139 -96.28902204 687.25436349 -95.70845032 691.46362305 C-95.47681896 693.14307617 -95.24519054 694.82252971 -95.01356506 696.50198364 C-94.89913811 697.33162251 -94.78471115 698.16126137 -94.66681671 699.0160408 C-91.24117861 723.85740939 -87.87724122 748.70627461 -84.57606506 773.56448364 C-81.34638052 797.88269952 -78.0885711 822.19674259 -74.78221512 846.50466156 C-74.45258162 848.928333 -74.12310685 851.35202597 -73.79368591 853.77572632 C-71.28551245 872.22910001 -68.7731662 890.68190402 -66.25831318 909.13436854 C-64.68591948 920.67207433 -63.1157349 932.21007971 -61.54701996 943.74828625 C-60.53732924 951.17412208 -59.52591972 958.59971988 -58.51233166 966.02502477 C-57.73185854 971.74375179 -56.95417356 977.4628553 -56.17749214 983.18209839 C-55.85406534 985.56030879 -55.5297095 987.93839304 -55.20438957 990.31634521 C-54.7572215 993.58598542 -54.31333056 996.85605436 -53.87025452 1000.12625122 C-53.73789839 1001.08819303 -53.60554226 1002.05013483 -53.46917534 1003.04122639 C-53.35047144 1003.92234687 -53.23176754 1004.80346735 -53.10946655 1005.71128845 C-53.00576406 1006.47256955 -52.90206156 1007.23385065 -52.79521656 1008.01820087 C-52.57606506 1010.12698364 -52.57606506 1010.12698364 -52.57606506 1014.12698364 C-58.5585284 1014.35031089 -63.5729666 1013.66320869 -69.32606506 1012.06448364 C-70.14534485 1011.84115356 -70.96462463 1011.61782349 -71.80873108 1011.38772583 C-106.44921015 1001.70591116 -138.29239804 985.68029238 -165.57606506 962.12698364 C-166.35594788 961.45796021 -167.13583069 960.78893677 -167.93934631 960.09963989 C-179.82131442 949.65673175 -190.92501049 938.55267917 -200.32606506 925.81253052 C-201.52334301 924.19807603 -202.75219389 922.60718081 -203.98231506 921.01760864 C-217.9815995 902.6177353 -227.64542112 881.71814771 -235.57606506 860.12698364 C-235.92886536 859.19724731 -236.28166565 858.26751099 -236.64515686 857.30960083 C-238.89149755 851.32005927 -240.69791119 845.35799203 -242.13856506 839.12698364 C-242.34835999 838.23342163 -242.55815491 837.33985962 -242.77430725 836.41921997 C-244.83663351 827.39693981 -246.3517967 818.29837571 -247.57606506 809.12698364 C-247.74479687 807.96252539 -247.91352867 806.79806714 -248.08737355 805.59832227 C-248.68016577 800.81362256 -248.71581091 796.082513 -248.70469952 791.26647377 C-248.70645255 790.2975944 -248.70820559 789.32871504 -248.71001175 788.33047569 C-248.7146652 785.08250574 -248.71220789 781.83458069 -248.70977783 778.58660889 C-248.71164616 776.23472347 -248.71394695 773.88283837 -248.71664315 771.53095376 C-248.72212357 765.74388126 -248.72294334 759.95682117 -248.7217823 754.16974649 C-248.72064489 747.23561948 -248.72528943 740.30149936 -248.73006167 733.36737433 C-248.73973245 718.9862794 -248.74254588 704.60518803 -248.74311873 690.22409023 C-248.74357855 679.10941866 -248.74563839 667.99474848 -248.74881935 656.88007736 C-248.74971694 653.67865861 -248.75060676 650.47723985 -248.75149423 647.27582109 C-248.75171528 646.47986782 -248.75193633 645.68391455 -248.75216407 644.86384148 C-248.75831907 622.47165467 -248.76226459 600.07946835 -248.76182079 577.68728065 C-248.76180521 576.84298554 -248.76178964 575.99869042 -248.76177358 575.12881059 C-248.76169048 570.84980149 -248.76159144 566.57079239 -248.76148888 562.29178329 C-248.76146893 561.44199871 -248.76144899 560.59221413 -248.76142844 559.7166785 C-248.761388 557.99820185 -248.7613462 556.27972519 -248.76130305 554.56124854 C-248.76069113 527.86114958 -248.76818111 501.16106334 -248.78187561 474.46096802 C-248.79726616 444.44191233 -248.80583993 414.42286501 -248.80491239 384.40380514 C-248.80483776 381.19672799 -248.80478905 377.98965085 -248.80475807 374.7825737 C-248.80474642 373.99295348 -248.80473476 373.20333325 -248.80472276 372.38978514 C-248.80469209 359.72730827 -248.81105617 347.06484252 -248.81969034 334.40236895 C-248.82820491 321.65044886 -248.8291273 308.89854488 -248.82258102 296.14662351 C-248.81923037 289.24932591 -248.81894384 282.35206465 -248.82793427 275.45477104 C-248.83585959 269.12279181 -248.83430697 262.79088372 -248.82565013 256.4589061 C-248.82412824 254.18548068 -248.82588091 251.91204978 -248.83151021 249.63863082 C-248.87785415 229.56993668 -248.68919232 208.92758463 -244.32606506 189.25198364 C-243.99965027 187.7188855 -243.99965027 187.7188855 -243.66664124 186.15481567 C-230.35755851 125.48730487 -192.66016346 71.1313391 -140.38465881 37.49807739 C-130.25611549 31.1276125 -119.82336596 25.56220552 -108.89491272 20.68899536 C-105.0566903 19.18956949 -105.0566903 19.18956949 -102.57606506 16.12698364 C-104.55606506 15.63198364 -104.55606506 15.63198364 -106.57606506 15.12698364 C-104.45481541 14.2635454 -102.32893434 13.41147716 -100.20106506 12.56448364 C-99.01770569 12.08881958 -97.83434631 11.61315552 -96.61512756 11.12307739 C-93.57606506 10.12698364 -93.57606506 10.12698364 -91.57606506 11.12698364 C-94.21606506 12.44698364 -96.85606506 13.76698364 -99.57606506 15.12698364 C-95.68810408 14.70666354 -92.33037433 13.70618103 -88.70887756 12.30667114 C-82.17020623 9.89651981 -75.5237365 8.17079713 -68.76356506 6.50198364 C-67.59502991 6.20292114 -66.42649475 5.90385864 -65.22254944 5.59573364 C-43.66240386 0.22056221 -22.07550784 -0.02372411 0 0 Z " fill="#0068FF" transform="translate(251.57606506347656,2.873016357421875)"/>
<path d="M0 0 C1.13746563 -0.00307895 1.13746563 -0.00307895 2.29791036 -0.0062201 C4.85350137 -0.01190036 7.40903867 -0.01043159 9.9646349 -0.00901413 C11.80958408 -0.01159718 13.6545327 -0.01461017 15.49948055 -0.01801753 C20.58097549 -0.02609789 25.66245632 -0.02787768 30.74395692 -0.028615 C36.21991473 -0.03046376 41.69586517 -0.0380102 47.17181873 -0.04475021 C59.15114197 -0.05834148 71.13046186 -0.06435951 83.10979152 -0.06876087 C90.58751767 -0.07152199 98.06524252 -0.0757591 105.5429678 -0.08026505 C126.24011844 -0.09245881 146.93726813 -0.10279326 167.6344223 -0.10614014 C168.9728923 -0.10636177 170.3113623 -0.10658355 171.6498323 -0.10680549 C172.99153448 -0.10702613 174.33323667 -0.10724661 175.67493886 -0.10746694 C178.36662241 -0.10790949 181.05830596 -0.1083566 183.74998951 -0.10880661 C184.41737066 -0.108916 185.08475181 -0.10902539 185.77235663 -0.1091381 C207.41154249 -0.11276862 229.05069484 -0.1286884 250.68986787 -0.15199697 C273.56840734 -0.17659547 296.44693335 -0.19030626 319.32548743 -0.19150805 C331.79677146 -0.19242532 344.26801161 -0.19819048 356.73928356 -0.21632767 C367.35852961 -0.2317168 377.97771824 -0.23685612 388.59697332 -0.22858956 C394.01574738 -0.22467885 399.43440576 -0.22563328 404.85316563 -0.23964691 C409.81452855 -0.25236039 414.77568857 -0.2512107 419.73705111 -0.2390562 C421.53115979 -0.23709478 423.32528273 -0.24019813 425.11937138 -0.24890056 C436.4018681 -0.30015922 446.2444 -0.25990919 455.53636646 7.13142776 C462.27178259 13.86684389 464.96658359 21.89414096 465.07134008 31.33766842 C465.0624172 32.33671105 465.05349431 33.33575369 465.04430103 34.36507034 C465.05366098 35.99664062 465.05366098 35.99664062 465.06321001 37.66117191 C465.07908443 41.28299226 465.06655692 44.90413442 465.05394459 48.52595901 C465.05936814 51.13186916 465.0664921 53.73777623 465.07518482 56.34367752 C465.09292048 62.67307875 465.08915231 69.00228966 465.07753426 75.33169818 C465.06848061 80.4782242 465.06728426 85.62469708 465.07162952 90.77122879 C465.07224246 91.50523275 465.07285539 92.23923671 465.07348689 92.99548322 C465.07476587 94.48685258 465.07606272 95.97822193 465.07737726 97.46959126 C465.08876854 111.43626779 465.07569221 125.4028391 465.05417579 139.36949837 C465.03630611 151.33934781 465.03941063 163.30904206 465.05785084 175.2788887 C465.07928327 189.19744513 465.08767004 203.11590947 465.07540178 217.03448009 C465.07412766 218.52019563 465.07287018 220.00591118 465.07162952 221.49162674 C465.07070387 222.58797124 465.07070387 222.58797124 465.06975952 223.70646411 C465.06631372 228.84355344 465.07211829 233.9805841 465.08154774 239.11766434 C465.0939732 246.03871846 465.08505775 252.95947538 465.06197071 259.88050079 C465.05669018 262.41769424 465.0581861 264.95491239 465.06702137 267.49209595 C465.0779857 270.9609893 465.06420094 274.42895086 465.04430103 277.89778519 C465.05768536 279.39634914 465.05768536 279.39634914 465.07134008 280.92518711 C464.97340176 289.75407408 462.39031566 298.3531708 456.53636646 305.13142776 C450.19945378 309.50348603 445.51510116 312.25859867 437.79173756 312.24495316 C436.75254421 312.2451722 436.75254421 312.2451722 435.69235706 312.24539566 C433.39814105 312.24469795 431.10400582 312.23691218 428.80980396 312.22908401 C427.22082533 312.22721933 425.63184612 312.22579567 424.04286671 312.2247963 C419.85727322 312.22097508 415.67171433 312.21114815 411.48613453 312.20009232 C407.21642494 312.18986971 402.94670976 312.18529685 398.67699146 312.18025589 C390.29676723 312.16952554 381.91657115 312.15245385 373.53636646 312.13142776 C373.99459293 311.16136795 374.4528194 310.19130814 374.92493153 309.19185257 C378.31259964 301.99433629 381.6203951 294.79293903 384.59496021 287.41267776 C384.94079151 286.56400131 385.28662281 285.71532486 385.64293385 284.84093094 C386.75667308 282.10580975 387.8652276 279.36861972 388.97386646 276.63142776 C389.76778594 274.67991703 390.5621464 272.72858564 391.3569231 270.77742386 C392.97548042 266.80324011 394.59246946 262.82842439 396.20824146 258.85310745 C399.61297092 250.48051717 403.04194468 242.11790041 406.47386646 233.75642776 C406.79334248 232.97769302 407.11281849 232.19895828 407.44197559 231.39662552 C413.03735251 217.75854075 418.65849868 204.13113248 424.28636646 190.50642776 C424.68876545 189.53201736 425.09116444 188.55760696 425.50575733 187.55366898 C429.4504722 178.00216104 433.39926666 168.45244374 437.37230396 158.91267776 C438.2098553 156.89898988 439.04725553 154.8852392 439.88463306 152.87147903 C440.63718172 151.06449888 441.39287466 149.25882922 442.14867115 147.45320511 C442.58856373 146.39569046 443.02845631 145.33817581 443.48167896 144.24861526 C443.85824635 143.34739944 444.23481373 142.44618362 444.62279224 141.51765823 C447.04666858 135.18656061 448.21710898 127.37473735 445.66527271 120.93220901 C442.9303327 116.79841445 439.34408391 113.53916695 434.53636646 112.13142776 C428.06854544 111.24595227 421.59538257 110.74450063 415.97386646 114.50642776 C409.11730949 121.04653491 406.23987414 131.07604066 402.95433521 139.74470901 C402.53646244 140.83494873 402.11858967 141.92518845 401.68805408 143.04846573 C400.36188949 146.51181846 399.04276208 149.97780131 397.72386646 153.44392776 C396.85128324 155.72600614 395.97823977 158.0079086 395.10472584 160.28963089 C392.57535387 166.90106037 390.05512711 173.51594998 387.53636646 180.13142776 C386.72995968 182.24782855 385.9234836 184.36420293 385.11693287 186.48054886 C383.25600329 191.36389329 381.39591065 196.24755562 379.53636646 201.13142776 C378.87636646 201.13142776 378.21636646 201.13142776 377.53636646 201.13142776 C377.3478159 200.60922653 377.15926533 200.0870253 376.96500111 199.54899979 C376.04489083 197.0009146 375.1246289 194.45288422 374.20433521 191.90486526 C373.85658039 190.94195572 373.50882557 189.97904617 373.15053272 188.98695755 C371.2288494 183.66738026 369.30487193 178.34864715 367.37694263 173.03133011 C366.59412241 170.87199636 365.81132614 168.71265393 365.02855396 166.55330276 C364.64043034 165.48274643 364.25230671 164.41219009 363.85242176 163.30919266 C361.86396951 157.81860024 359.88750161 152.32422021 357.93881702 146.81938553 C356.96866381 144.08109109 355.989941 141.34590908 355.00966358 138.61122513 C354.3689779 136.81287873 353.74091405 135.01005113 353.11327076 133.20711136 C350.37797754 125.60386598 347.45040739 117.63641396 340.41136646 113.13142776 C339.46261646 112.80142776 338.51386646 112.47142776 337.53636646 112.13142776 C336.89699146 111.90455276 336.25761646 111.67767776 335.59886646 111.44392776 C327.29120261 110.18519082 322.32240616 112.49766102 315.66136646 117.13142776 C312.47806014 120.12748077 311.22143041 122.96221411 311.03636646 127.31892776 C311.2051925 132.03447495 312.35434464 136.09107796 313.96214771 140.48689651 C314.22494022 141.21718063 314.48773273 141.94746475 314.75848866 142.69987869 C318.22962874 152.21114848 322.06398184 161.58200023 325.88176441 170.95799637 C327.25292529 174.32784451 328.61730477 177.70037329 329.98021412 181.07356644 C334.21034092 191.53362902 338.46412791 201.98293984 342.79041004 212.40364456 C344.58073793 216.7196358 346.35943194 221.04037511 348.13710499 225.36159134 C348.98201507 227.40536113 349.8330096 229.44662687 350.69026661 231.48524857 C351.88035191 234.31585276 353.05015419 237.15407539 354.21605396 239.99470901 C354.57015842 240.82157715 354.92426289 241.64844528 355.28909779 242.50037003 C357.9145067 248.98749555 357.7279254 253.1606071 355.07762623 259.76839066 C354.47041583 261.05144956 353.85335087 262.32987972 353.22777271 263.60408401 C352.90099033 264.29022278 352.57420795 264.97636154 352.23752308 265.68329239 C351.20017396 267.85788831 350.15030158 270.0261124 349.09886646 272.19392776 C348.05312968 274.36625105 347.01017802 276.53984378 345.97092152 278.71527481 C345.32628109 280.06298106 344.67763491 281.40878131 344.02429676 282.75229263 C340.54172397 289.99601332 338.6362506 296.09561083 339.53636646 304.13142776 C340.90125326 307.53384601 340.90125326 307.53384601 342.53636646 310.13142776 C342.53636646 310.79142776 342.53636646 311.45142776 342.53636646 312.13142776 C297.7365044 312.2458841 252.93665781 312.33398223 208.13667835 312.38675441 C202.84705592 312.39300791 197.55743377 312.39947952 192.26781178 312.40608597 C191.21474787 312.40739752 190.16168395 312.40870907 189.07670902 312.41006037 C172.02795636 312.43181406 154.97928804 312.47123541 137.9305854 312.51719175 C120.43569039 312.56395735 102.94083954 312.59172339 85.44588459 312.60187024 C74.65143263 312.60872916 63.85721907 312.63038868 53.06284051 312.6710101 C45.65968186 312.69744971 38.25664637 312.70542598 30.85344394 312.69893465 C26.58277964 312.69573367 22.3125318 312.70062374 18.04194164 312.72745514 C14.12816998 312.75186465 10.2150931 312.75296608 6.30128883 312.73592224 C4.88926234 312.73381714 3.47719172 312.74009501 2.06525148 312.75584368 C-7.31378701 312.85433075 -14.96920248 311.90580746 -22.25570858 305.57420617 C-29.27426149 298.06857254 -31.05960857 289.90543128 -30.97156811 279.89741898 C-30.97780807 278.79760366 -30.98404803 277.69778834 -30.99047709 276.56464529 C-31.00637438 272.89592991 -30.99381494 269.22788192 -30.98121166 265.55916214 C-30.98663423 262.92220509 -30.99361345 260.28529333 -31.0024519 257.64834976 C-31.02019958 251.23960471 -31.01641398 244.83104749 -31.00480133 238.42229521 C-30.99575245 233.21185433 -30.99454929 228.00146593 -30.9988966 222.79101944 C-30.99950953 222.04826518 -31.00012246 221.30551092 -31.00075397 220.54024896 C-31.00203292 219.03116133 -31.00332978 217.52207372 -31.00464433 216.01298612 C-31.01603914 201.87609402 -31.00295373 187.73930582 -30.98144287 173.60243076 C-30.96357286 161.48330092 -30.96667728 149.36432437 -30.98511791 137.2451973 C-31.0065441 123.15745793 -31.0149406 109.06980953 -31.00266886 94.98205614 C-31.00139472 93.47864947 -31.00013723 91.97524279 -30.9988966 90.47183609 C-30.9982795 89.73221173 -30.99766239 88.99258736 -30.99702659 88.23055014 C-30.99357893 83.02888252 -30.99938941 77.82727281 -31.00881481 72.62561417 C-31.02005565 66.28288514 -31.01695118 59.94035402 -30.99569184 53.59764755 C-30.98520914 50.3640152 -30.98317981 47.13077887 -30.99428844 43.8971386 C-31.00523664 40.38624378 -30.99148735 36.8762727 -30.97156811 33.36543655 C-30.98049099 32.35112611 -30.98941388 31.33681567 -30.99860716 30.29176855 C-30.89460365 20.82562941 -27.81414232 13.78549854 -21.39722729 6.85799026 C-15.09229308 1.22812983 -8.2056219 -0.02057575 0 0 Z " fill="#05BD05" transform="translate(324.4636335372925,534.8685722351074)"/>
<path d="M0 0 C1.17033279 -0.00852997 2.34066559 -0.01705994 3.54646301 -0.02584839 C4.81671326 -0.02494202 6.0869635 -0.02403564 7.39570618 -0.02310181 C8.75804002 -0.02909167 10.12037049 -0.03589827 11.48269653 -0.04345703 C15.17306303 -0.0610817 18.8633367 -0.06581103 22.55374122 -0.0670886 C24.86382806 -0.06851323 27.17389153 -0.07278881 29.48397255 -0.07808304 C37.55612808 -0.09657451 45.62821767 -0.10475512 53.70039368 -0.10317993 C61.20305619 -0.10198008 68.70543031 -0.12305372 76.20801991 -0.15466726 C82.66602249 -0.18090111 89.12393133 -0.1915442 95.58198673 -0.19026911 C99.43158892 -0.18976139 103.28093491 -0.19533835 107.13048363 -0.21662521 C110.75612389 -0.23612702 114.38126678 -0.23605173 118.00692558 -0.22159195 C119.95497449 -0.21853581 121.90302409 -0.23509807 123.85099792 -0.25247192 C134.42105391 -0.17760738 143.65588486 1.81654747 151.44380188 9.36508179 C155.92743815 14.71687312 156.8381174 21.0174192 156.63130188 27.87680054 C153.24643545 47.20616935 135.70150365 65.2879673 124.03755188 80.26742554 C122.84215633 81.80642353 121.64684501 83.34548695 120.45161438 84.88461304 C118.07240694 87.94630871 115.69048135 91.00586651 113.30708313 94.06430054 C110.53681847 97.6216176 107.78289438 101.19084185 105.03755188 104.76742554 C99.34285634 112.18355682 93.59667596 119.55941137 87.852005 126.93685913 C84.9124185 130.7125982 81.97507473 134.49008089 79.03755188 138.26742554 C77.87089649 139.76743431 76.70422981 141.2674343 75.53755188 142.76742554 C74.96005188 143.50992554 74.38255188 144.25242554 73.78755188 145.01742554 C63.87088521 157.76742554 53.95421855 170.51742554 44.03755188 183.26742554 C45.20107178 183.27329178 46.36459167 183.27915802 47.56336975 183.28520203 C58.56744135 183.34259572 69.57131849 183.41544355 80.5751915 183.50314045 C86.23141281 183.54772943 91.887564 183.58701058 97.54389954 183.61386108 C103.00999135 183.6400088 108.47581162 183.68049149 113.94173431 183.7306118 C116.0195145 183.74720326 118.09734157 183.75876533 120.17517853 183.76503944 C146.85678583 183.85370299 146.85678583 183.85370299 154.53755188 189.45492554 C160.52229236 196.18775858 161.71131114 201.73851251 161.42036438 210.78695679 C160.69102274 217.41801188 158.86098614 222.27436949 154.35005188 227.20492554 C145.93281547 232.44584632 137.90010629 232.6980167 128.15522766 232.63973999 C126.77274808 232.64217243 125.39027026 232.64589612 124.00779724 232.65080261 C120.27621044 232.66015522 116.54488855 232.65083299 112.81332254 232.63747048 C108.89204311 232.62608974 104.97077547 232.63026871 101.04948425 232.63221741 C94.46424577 232.63309851 87.87911058 232.62206034 81.29389954 232.60360718 C73.70434253 232.58245999 66.11493691 232.57892708 58.52535641 232.58516914 C51.19708409 232.59088548 43.86886454 232.58518935 36.54059982 232.57399559 C33.43482858 232.56937777 30.32908991 232.56846347 27.22331619 232.57058144 C23.55751569 232.5724802 19.89186685 232.56423994 16.22610092 232.54852104 C14.25664473 232.54232891 12.28716545 232.54576161 10.31770325 232.54959106 C-1.39967038 232.48023387 -12.65218499 231.8258673 -21.74760437 223.66586304 C-26.6916427 218.34525176 -29.0446062 212.69931567 -29.39994812 205.45492554 C-28.7623918 189.36888907 -16.5643864 176.82733174 -6.92729187 164.94320679 C-3.84562006 161.13888145 -0.85856568 157.26984191 2.1164093 153.38143921 C5.65125566 148.76354651 9.21517707 144.16884173 12.78755188 139.57992554 C13.3803595 138.8183313 13.97316711 138.05673706 14.5839386 137.27206421 C15.79689869 135.71396748 17.00995274 134.1559439 18.22309875 132.59799194 C21.16268526 128.82225288 24.10002903 125.04477019 27.03755188 121.26742554 C28.20420727 119.76741677 29.37087395 118.26741678 30.53755188 116.76742554 C31.11505188 116.02492554 31.69255188 115.28242554 32.28755188 114.51742554 C51.53755188 89.76742554 51.53755188 89.76742554 53.28877258 87.51596069 C54.45150555 86.02094874 55.61410395 84.5258321 56.77656555 83.03060913 C59.75230413 79.20340799 62.73059854 75.37824005 65.71333313 71.55648804 C66.32241516 70.77531616 66.93149719 69.99414429 67.55903625 69.18930054 C68.69876497 67.72766371 69.83930083 66.26665563 70.98091125 64.80648804 C74.28442906 60.56770942 77.5326912 56.28980557 80.75312805 51.98764038 C81.16682396 51.43549362 81.58051987 50.88334686 82.00675201 50.31446838 C83.01728903 48.96565664 84.02745839 47.61656946 85.03755188 46.26742554 C83.37957077 46.28074921 83.37957077 46.28074921 81.68809509 46.29434204 C71.24280526 46.37562724 60.79758008 46.43548644 50.35204506 46.47467422 C44.98259363 46.49549877 39.61339869 46.52372242 34.24409485 46.56918335 C29.05693942 46.6128244 23.87002985 46.63660121 18.68270493 46.64693451 C16.70925912 46.65429318 14.73582591 46.66866265 12.7624855 46.69034576 C-9.18839948 46.92182692 -9.18839948 46.92182692 -17.39994812 40.30258179 C-17.91557312 39.65160522 -18.43119812 39.00062866 -18.96244812 38.32992554 C-19.49869812 37.6815271 -20.03494812 37.03312866 -20.58744812 36.36508179 C-24.5696207 30.29000601 -24.68096986 24.34210116 -23.96244812 17.26742554 C-22.2061991 10.68704948 -17.56072428 5.95312337 -11.96244812 2.26742554 C-7.84547087 0.66859239 -4.40581406 0.01458331 0 0 Z " fill="#0068FF" transform="translate(322.9624481201172,264.7325744628906)"/>
<path d="M0 0 C2.21372931 1.7173612 4.36509613 3.4890735 6.51171875 5.2890625 C7.83896542 6.29712701 9.17048832 7.29967951 10.51171875 8.2890625 C11.04796875 7.4021875 11.58421875 6.5153125 12.13671875 5.6015625 C15.18599156 1.02765329 19.33789869 -2.71356139 24.51171875 -4.7109375 C32.19151754 -5.5005272 40.5133192 -6.24896104 46.90234375 -1.2734375 C56.1369021 7.69215313 56.1369021 7.69215313 56.76898766 13.75793076 C56.77233934 14.68776905 56.77569103 15.61760735 56.77914429 16.57562256 C56.79193924 18.1820462 56.79193924 18.1820462 56.80499268 19.82092285 C56.80363312 21.57584045 56.80363312 21.57584045 56.80224609 23.36621094 C56.80896332 24.60240173 56.81568054 25.83859253 56.82260132 27.11224365 C56.83834805 30.50094075 56.84495666 33.88939274 56.84623289 37.27810955 C56.84765565 39.39753707 56.85192768 41.51693901 56.85722733 43.63636017 C56.87572937 51.03721239 56.88389806 58.43799261 56.88232422 65.83886719 C56.88112399 72.725806 56.90220225 79.61243082 56.93381155 86.49929023 C56.96001514 92.42048095 56.97068975 98.34156941 56.9694134 104.26281762 C56.96890479 107.79545902 56.97453069 111.32782157 56.9957695 114.86040497 C57.01883858 118.80517176 57.00960595 122.7495128 56.99755859 126.69433594 C57.00879761 127.85618408 57.02003662 129.01803223 57.03161621 130.21508789 C56.97082623 138.05736047 55.85950331 143.46872784 50.546875 149.53125 C49.89589844 150.07007813 49.24492188 150.60890625 48.57421875 151.1640625 C47.92582031 151.71835937 47.27742187 152.27265625 46.609375 152.84375 C39.89770513 157.46817803 32.32560057 156.95785628 24.51171875 156.2890625 C18.62520857 154.63688233 15.17086881 149.88848951 11.51171875 145.2890625 C10.85171875 144.6290625 10.19171875 143.9690625 9.51171875 143.2890625 C8.97804688 143.80855469 8.444375 144.32804688 7.89453125 144.86328125 C2.51346592 149.89988393 -2.71793088 153.39709165 -9.48828125 156.2890625 C-10.65617188 156.81886719 -10.65617188 156.81886719 -11.84765625 157.359375 C-28.56366674 163.24459763 -49.0600063 160.09596281 -64.70703125 152.78515625 C-84.09665159 142.41570723 -97.17808726 124.16412395 -103.86328125 103.5390625 C-110.74073884 78.64631778 -108.47522617 53.68277996 -96.73828125 30.6640625 C-86.61986904 12.90521657 -70.49534968 -0.22745178 -51.02636719 -6.32543945 C-35.29000097 -10.52242973 -13.72307409 -9.43595989 0 0 Z " fill="#0168FF" transform="translate(587.48828125,337.7109375)"/>
<path d="M0 0 C0.69810791 -0.0049649 1.39621582 -0.00992981 2.11547852 -0.01504517 C4.42953482 -0.0296662 6.74352223 -0.03647384 9.05761719 -0.04199219 C10.2500214 -0.04623325 10.2500214 -0.04623325 11.46651459 -0.05056 C15.68536207 -0.06556396 19.90417535 -0.0747817 24.12304688 -0.07910156 C28.44308939 -0.08454293 32.76280975 -0.10847426 37.08275223 -0.13707352 C40.43407023 -0.15589446 43.78531427 -0.16091602 47.1366806 -0.16243744 C48.72638431 -0.16542831 50.31608786 -0.17333305 51.90573883 -0.18662262 C65.28571388 -0.29035992 78.54476383 0.61501407 90.72949219 6.72363281 C91.43259521 7.0673291 92.13569824 7.41102539 92.86010742 7.76513672 C110.939768 16.95554548 122.71492227 31.46108132 129.27246094 50.56347656 C134.05912243 69.46292406 132.08576117 90.25261336 122.79199219 107.42285156 C112.61062456 123.94400597 96.95719517 136.0216101 78.02362061 140.67225647 C71.56038754 142.09432057 65.44955923 142.42624751 58.84667969 142.35644531 C57.30308273 142.35220047 57.30308273 142.35220047 55.728302 142.34786987 C52.47857463 142.3367776 49.22913464 142.31169397 45.97949219 142.28613281 C43.7607462 142.27608884 41.54199584 142.26696548 39.32324219 142.25878906 C33.91689604 142.2368743 28.51071465 142.2035078 23.10449219 142.16113281 C23.11115402 142.81988403 23.11781586 143.47863525 23.12467957 144.15734863 C23.19123485 151.03583885 23.23637662 157.91423703 23.26928711 164.79296875 C23.28433998 167.3574597 23.3047868 169.92192504 23.33081055 172.48632812 C23.36734686 176.18007744 23.38425412 179.87348527 23.39746094 183.56738281 C23.41294479 184.70727661 23.42842865 185.84717041 23.44438171 187.02160645 C23.4459449 194.47570701 23.02960259 200.71015986 18.01855469 206.62207031 C17.26316406 207.25371094 16.50777344 207.88535156 15.72949219 208.53613281 C14.97925781 209.18324219 14.22902344 209.83035156 13.45605469 210.49707031 C7.42786547 214.76286534 1.29192756 215.06656298 -5.89550781 214.16113281 C-11.95691261 211.84587491 -16.94209005 207.24802768 -19.75151491 201.37021482 C-21.61172307 196.62741551 -22.27513386 192.62352204 -22.28991699 187.47085571 C-22.2960081 186.7401201 -22.3020992 186.00938449 -22.30837488 185.25650537 C-22.32489921 182.83083479 -22.32024444 180.40569526 -22.31542969 177.97998047 C-22.32277617 176.23149577 -22.33136408 174.48301591 -22.34109497 172.73454285 C-22.36325846 168.00098185 -22.36624425 163.26759519 -22.36434746 158.53398943 C-22.36422752 154.57538708 -22.37280113 150.61682135 -22.38112497 146.65822923 C-22.40034038 137.31542209 -22.40324961 127.9727043 -22.39648438 118.62988281 C-22.38984445 109.00721044 -22.4127103 99.38492147 -22.44979811 89.76232684 C-22.48053373 81.48604684 -22.49185096 73.20988995 -22.48796129 64.93355405 C-22.48589784 59.99691228 -22.49131073 55.06056895 -22.51585388 50.12398148 C-22.53818245 45.47968849 -22.5361926 40.83601727 -22.51592636 36.19172096 C-22.51252713 34.49304912 -22.51755833 32.79433491 -22.53190994 31.09572029 C-22.6031267 22.03754729 -22.64691455 13.71655208 -16.89550781 6.16113281 C-11.67002936 1.24003142 -7.02894948 0.03800887 0 0 Z " fill="#FDFEFD" transform="translate(341.8955078125,584.8388671875)"/>
<path d="M0 0 C15.92234 12.98441146 27.49126072 29.45760661 31 50 C31.35258608 54.71894899 31.43356993 59.39538188 31.39111328 64.12548828 C31.37512084 66.23406707 31.39100129 68.34069997 31.41015625 70.44921875 C31.4467431 93.00443767 25.05728478 113.31962008 9.671875 130.359375 C-7.90352221 147.60626011 -29.70356194 154.47248445 -53.8371582 154.43164062 C-75.15905859 154.06142209 -94.91681951 146.37751164 -110 131 C-128.90510859 110.58072353 -133.7023421 87.79585379 -133.10668945 60.66162109 C-132.26504686 39.66485336 -122.30019176 19.8748249 -107.2890625 5.3828125 C-78.33920921 -20.15204469 -31.25940789 -23.6606872 0 0 Z " fill="#0168FF" transform="translate(852,346)"/>
<path d="M0 0 C1.53848985 1.16453392 3.06108234 2.35054485 4.5625 3.5625 C5.20574219 4.078125 5.84898437 4.59375 6.51171875 5.125 C7.88076538 6.24832032 9.2254011 7.40133517 10.5625 8.5625 C10.789375 7.840625 11.01625 7.11875 11.25 6.375 C13.77671354 0.96061384 18.00557529 -2.25585704 23.328125 -4.70703125 C29.92372963 -6.86328661 36.32254491 -5.89426397 42.453125 -2.83984375 C47.83966887 0.74121042 51.45806361 5.48718769 53.5625 11.5625 C53.81976891 13.98262501 53.81976891 13.98262501 53.82992554 16.55171204 C53.84272049 18.02136414 53.84272049 18.02136414 53.85577393 19.52070618 C53.85441437 21.11594368 53.85441437 21.11594368 53.85302734 22.7434082 C53.85974457 23.87245575 53.86646179 25.0015033 53.87338257 26.1647644 C53.89238209 29.89764811 53.89628785 33.6303522 53.8984375 37.36328125 C53.90486424 39.96013971 53.91159251 42.55699744 53.91860962 45.15385437 C53.93058743 50.59860216 53.93437563 56.04327876 53.93310547 61.48803711 C53.9319049 67.76777759 53.95299291 74.04717391 53.9845928 80.32682735 C54.01397079 86.38221321 54.02107955 92.43741326 54.01988602 98.49287987 C54.02224386 101.06245516 54.03107763 103.63203309 54.04655075 106.20156288 C54.0661852 109.79913355 54.06038152 113.3958228 54.04833984 116.9934082 C54.05957886 118.05082718 54.07081787 119.10824615 54.08239746 120.19770813 C54.01879277 127.69038655 52.56429445 133.07458499 47.6328125 138.8046875 C41.17882868 144.22188677 35.93856169 146.16228008 27.44921875 146.01171875 C21.11842417 145.02654774 16.27474431 141.35627976 11.9375 136.8125 C10.5625 134.5625 10.5625 134.5625 10.5625 132.5625 C9.77488281 133.22636719 8.98726562 133.89023437 8.17578125 134.57421875 C-1.11418296 142.1884479 -11.02629157 148.25170179 -23.4375 148.5625 C-24.63246094 148.61277344 -25.82742188 148.66304687 -27.05859375 148.71484375 C-45.35089756 149.26575038 -60.86063655 143.49570302 -74.62109375 131.34765625 C-85.7503669 120.34187018 -93.47202267 106.7541878 -97.4375 91.5625 C-97.64117187 90.82 -97.84484375 90.0775 -98.0546875 89.3125 C-103.23019686 66.6253357 -98.38550745 43.25616094 -86.51171875 23.578125 C-76.2796339 8.70209957 -61.90236972 -3.34023225 -43.91625977 -7.05810547 C-28.83382471 -9.36659597 -12.87719107 -8.69875149 0 0 Z " fill="#FDFEFD" transform="translate(569.4375,651.4375)"/>
<path d="M0 0 C5.64186037 3.67221681 9.62953738 8.44253097 11.59282452 14.97143602 C12.2963346 18.4763504 12.15550818 22.03872643 12.16062927 25.60046387 C12.16571709 26.47746209 12.17080491 27.35446031 12.17604691 28.25803423 C12.19176781 31.20262022 12.2002956 34.14718166 12.20874023 37.09179688 C12.21827913 39.20097001 12.22817031 41.31014157 12.23838806 43.41931152 C12.26977384 50.35243879 12.2900423 57.28557805 12.30859375 64.21875 C12.31353973 65.98895225 12.31353973 65.98895225 12.31858563 67.79491615 C12.34937024 78.9284291 12.37607367 90.06194477 12.39300442 101.19548798 C12.41490068 115.42677624 12.45684972 129.65768673 12.52644199 143.88882399 C12.57373183 153.90004754 12.5979448 163.91116936 12.6052013 173.92250109 C12.61015058 179.89891027 12.62516317 185.87489366 12.6649456 191.85118103 C12.70191211 197.47870001 12.71018845 203.10555177 12.69693947 208.73316956 C12.69699325 210.79223301 12.70722214 212.85132679 12.7286911 214.91027832 C12.93791763 236.11954883 12.93791763 236.11954883 6 245 C-1.14803121 251.07084386 -6.8565764 252.54928884 -16.15625 252.3359375 C-22.48349218 251.78294682 -26.46776367 249.6692621 -30.8046875 245.09765625 C-36.09651877 238.50185698 -37.29850041 232.37416074 -37.27415466 224.10760498 C-37.28200968 222.78130235 -37.28200968 222.78130235 -37.29002339 221.42820573 C-37.30500112 218.47129685 -37.30572805 215.51456137 -37.30639648 212.55761719 C-37.31401948 210.43505054 -37.32244722 208.31248666 -37.33161926 206.18992615 C-37.35355774 200.42739175 -37.36236236 194.66491042 -37.36744571 188.90233898 C-37.37109015 185.30042836 -37.3773307 181.69853161 -37.3844471 178.09662628 C-37.40893969 165.5258371 -37.42199301 152.95508917 -37.42553711 140.38427734 C-37.42917183 128.67471752 -37.45906335 116.96541989 -37.50094169 105.2559402 C-37.53565562 95.19628908 -37.55108575 85.13672481 -37.55178314 75.07701421 C-37.5525756 69.07170786 -37.56130013 63.06666861 -37.58978081 57.06142426 C-37.61597987 51.41094105 -37.618156 45.76094605 -37.60212517 40.11042976 C-37.60031215 38.04086555 -37.60698801 35.97127314 -37.62294388 33.90176964 C-37.77980528 12.22893034 -37.77980528 12.22893034 -30.25868893 4.12337875 C-21.52396976 -4.22205185 -10.63881871 -5.1735389 0 0 Z " fill="#0269FF" transform="translate(695,244)"/>
<path d="M0 0 C0.84014648 0.00644531 1.68029297 0.01289063 2.54589844 0.01953125 C11.32256786 0.27796863 17.2447677 2.70049645 23.4375 9 C32.09733099 19.75296549 34.85522355 31.60680745 33.4140625 45.05078125 C31.59169879 55.55516076 28.08237752 66.48699532 19.6875 73.5 C10.66195739 79.28040369 0.40909016 79.71626203 -10.015625 78.07421875 C-17.54074653 75.92982223 -22.71550318 71.48128252 -26.5546875 64.73046875 C-32.95287565 52.67650121 -35.56369593 39.93268514 -32.62890625 26.33203125 C-29.08593497 15.90893318 -23.05202469 7.00388224 -13.171875 1.8671875 C-8.82596846 0.08604999 -4.65149632 -0.03710807 0 0 Z " fill="#FDFDFF" transform="translate(802.3125,375.5)"/>
<path d="M0 0 C0.75539063 -0.01998047 1.51078125 -0.03996094 2.2890625 -0.06054688 C9.63662267 -0.05423454 15.98914184 2.7981882 21.4921875 7.71484375 C29.08492279 16.38944546 33.81773784 28.21612116 33.3515625 39.828125 C31.72586093 51.89444329 28.69226708 64.32304384 19 72.4375 C9.76878485 78.82136588 1.03489917 79.54946679 -10 78.4375 C-18.53784966 76.1818212 -24.04192935 70.38597458 -28.46875 62.98046875 C-34.64477966 51.2926917 -35.92998585 37.97777094 -33.3125 25.0390625 C-30.42082826 16.43633908 -24.76513832 8.33040315 -17 3.4375 C-11.34230307 0.70251119 -6.23743894 -0.05854252 0 0 Z " fill="#FDFDFF" transform="translate(564,375.5625)"/>
<path d="M0 0 C6.04943828 5.45966018 10.25353384 13.81416797 10.99902344 21.89746094 C11.07977148 24.03977619 11.0856533 26.16888989 11.0625 28.3125 C11.07410156 29.38081055 11.07410156 29.38081055 11.0859375 30.47070312 C11.0505198 40.21942467 8.28845087 49.73852046 1.80078125 57.18359375 C-5.14583558 63.79075984 -11.2515882 65.9651572 -20.75 66.25 C-28.18835707 66.05060348 -34.06497048 64.62717272 -39.74609375 59.44140625 C-49.42836645 48.91947847 -51.0206893 37.55738619 -50.59765625 23.7421875 C-49.98542137 13.78905243 -45.63784809 5.46752549 -38.1875 -1.125 C-26.37641321 -9.61808756 -11.50619657 -7.67079771 0 0 Z " fill="#05BD05" transform="translate(567.1875,691.125)"/>
<path d="M0 0 C6.06375 -0.0825 12.1275 -0.165 18.375 -0.25 C20.26782715 -0.28641602 22.1606543 -0.32283203 24.11083984 -0.36035156 C34.26932198 -0.47366303 41.91789219 0.26779748 50.75 5.6875 C58.8597848 14.0225566 61.41671891 21.87541188 61.36352539 33.19091797 C61.13005979 43.43642607 57.35415025 49.93424779 50 57 C43.29280549 62.20149778 37.33456267 63.30197281 29.1015625 63.1953125 C28.36059326 63.19329834 27.61962402 63.19128418 26.85620117 63.18920898 C24.11240365 63.17881688 21.36869501 63.15089472 18.625 63.125 C9.405625 63.063125 9.405625 63.063125 0 63 C0 42.21 0 21.42 0 0 Z " fill="#04BD04" transform="translate(365,626)"/>
<path d="M0 0 C-1 3 -1 3 -2.89160156 4.14404297 C-4.12861816 4.68762451 -4.12861816 4.68762451 -5.390625 5.2421875 C-6.78099976 5.87157227 -6.78099976 5.87157227 -8.19946289 6.51367188 C-9.20614014 6.96291016 -10.21281738 7.41214844 -11.25 7.875 C-32.22055371 17.58167935 -50.66598012 30.03519725 -67.5546875 45.7421875 C-69.65882391 47.68498437 -71.80582946 49.53616072 -74 51.375 C-84.83882547 60.87271319 -93.54109758 72.41160355 -102 84 C-102.4419873 84.60118652 -102.88397461 85.20237305 -103.33935547 85.82177734 C-129.76891057 122.19982566 -143.75435946 167.28150453 -145 212 C-145.33 212 -145.66 212 -146 212 C-146.33 208.37 -146.66 204.74 -147 201 C-147.03424672 256.73693558 -147.06608665 312.47387219 -147.08468628 368.21081543 C-147.08496239 369.03612245 -147.08523851 369.86142948 -147.08552299 370.71174581 C-147.09150921 388.6491462 -147.09704952 406.58654671 -147.10213066 424.52394739 C-147.10462527 433.32081521 -147.10721839 442.117683 -147.10986328 450.91455078 C-147.1101248 451.7899313 -147.11038632 452.66531181 -147.11065576 453.56721901 C-147.11917402 481.92594894 -147.13419334 510.28467089 -147.15259444 538.64339598 C-147.17147415 567.79274715 -147.18377426 596.94209391 -147.18782998 626.09145109 C-147.18840627 630.21134277 -147.18905754 634.33123444 -147.18975449 638.4511261 C-147.18988933 639.26195666 -147.19002418 640.07278723 -147.19016311 640.90818841 C-147.19252387 653.94501476 -147.20179276 666.98182743 -147.21366407 680.01864821 C-147.22545906 693.13431674 -147.22993083 706.24997176 -147.22700275 719.36564541 C-147.22548498 727.15187872 -147.22950678 734.93806241 -147.24159509 742.72428673 C-147.25001751 748.54880753 -147.24790114 754.37329437 -147.24179779 760.19781905 C-147.24095536 762.54667634 -147.24346966 764.89553786 -147.24976636 767.24438685 C-147.27829384 778.54730825 -147.14377428 789.57746935 -145.4290446 800.76515532 C-145.01493119 803.88742413 -144.92469823 806.85495611 -145 810 C-145.33 810 -145.66 810 -146 810 C-148.65317254 794.63623444 -149.43162423 779.75357185 -149.38768005 764.18173218 C-149.39186213 761.74096642 -149.3973444 759.30020262 -149.40399987 756.85944235 C-149.41537557 751.59087419 -149.41762355 746.32238731 -149.41144943 741.05381393 C-149.40229229 733.21844475 -149.41044299 725.38315687 -149.42174067 717.54779387 C-149.44133495 703.54549272 -149.44376886 689.54322873 -149.43854547 675.54091713 C-149.4339755 663.28299637 -149.43460336 651.02509025 -149.44038582 638.76716995 C-149.44114271 637.11830829 -149.44189869 635.46944662 -149.44265376 633.82058496 C-149.44379905 631.3354036 -149.44494894 628.85022224 -149.44611301 626.36504088 C-149.45680715 603.28086748 -149.46155455 580.19669892 -149.45364285 557.11252403 C-149.45334567 556.24363799 -149.4530485 555.37475195 -149.45274232 554.47953603 C-149.45029378 547.42511778 -149.44768199 540.37069959 -149.44505819 533.31628141 C-149.43496074 505.8151605 -149.44330605 478.31410068 -149.46655273 450.81298828 C-149.4926755 419.85992434 -149.50545973 388.90689715 -149.49836498 357.95382178 C-149.49764901 354.64778941 -149.49697461 351.34175703 -149.49632454 348.03572464 C-149.49615473 347.22179648 -149.49598492 346.40786833 -149.49580997 345.56927568 C-149.49351532 333.32911223 -149.501444 321.08898312 -149.51461601 308.84882736 C-149.52958648 294.91327225 -149.53029178 280.97779714 -149.5125451 267.04224364 C-149.50304338 259.26261223 -149.50428999 251.48316789 -149.52177979 243.70354931 C-149.53363805 237.86525808 -149.52414939 232.02714576 -149.50695742 226.18887492 C-149.50322817 223.84920002 -149.50602884 221.50950202 -149.51656907 219.16984789 C-149.71471699 171.76021325 -136.33655842 122.58840273 -108 84 C-107.28328125 83.01257813 -106.5665625 82.02515625 -105.828125 81.0078125 C-94.72014277 65.95458141 -82.61288812 50.82473911 -68 39 C-66.82873607 38.01775048 -65.65824473 37.03457938 -64.48828125 36.05078125 C-50.90025237 24.71234837 -36.66253268 15.44075965 -21.0625 7.10449219 C-19.17968621 6.09622401 -17.30824759 5.06946857 -15.4375 4.0390625 C-10.06130681 1.17623962 -6.13547682 -0.83665593 0 0 Z " fill="#D7E7FF" transform="translate(149,19)"/>
<path d="M0 0 C1.00990182 -0.00115384 2.01980364 -0.00230769 3.06030855 -0.0034965 C6.44155113 -0.00614163 9.82274603 -0.00165833 13.20398617 0.00279331 C15.6536356 0.00235718 18.10328498 0.0014815 20.55293411 0.00020415 C25.87735467 -0.00156558 31.20176099 -0.00023349 36.52617931 0.00384235 C44.44334996 0.00988609 52.36051358 0.01017735 60.27768611 0.00930037 C73.59667387 0.00798744 86.91565667 0.01132417 100.23464298 0.01731777 C113.42067203 0.02323632 126.60669901 0.02708403 139.79272938 0.02817059 C141.02287733 0.0282737 141.02287733 0.0282737 142.27787676 0.02837889 C146.44280272 0.02871722 150.60772868 0.02901861 154.77265465 0.02930576 C184.26701408 0.03140575 213.76137081 0.03814194 243.25572872 0.04760838 C271.9077468 0.05679384 300.55976415 0.06387695 329.21178341 0.06811619 C330.09508077 0.06824771 330.97837814 0.06837924 331.88844209 0.06851475 C340.75893826 0.06983328 349.62943444 0.07110909 358.49993062 0.07235361 C376.56989213 0.07488977 394.63985359 0.07771103 412.70981503 0.08070469 C413.95603577 0.08091062 413.95603577 0.08091062 415.2274327 0.08112072 C470.70065165 0.09032021 526.17386906 0.10618608 581.64708614 0.12304783 C581.64708614 0.45304783 581.64708614 0.78304783 581.64708614 1.12304783 C387.27708614 1.45304783 192.90708614 1.78304783 -7.35291386 2.12304783 C-4.38291386 2.45304783 -1.41291386 2.78304783 1.64708614 3.12304783 C1.64708614 3.45304783 1.64708614 3.78304783 1.64708614 4.12304783 C0.72319088 4.16679539 0.72319088 4.16679539 -0.21936893 4.21142673 C-22.53758867 5.37385541 -43.90080505 9.27847931 -64.90857792 17.026124 C-65.70360722 17.3146323 -66.49863651 17.6031406 -67.31775761 17.90039158 C-68.00474735 18.16070164 -68.6917371 18.4210117 -69.39954472 18.68920994 C-71.70238106 19.20066353 -73.13526475 18.85441667 -75.35291386 18.12304783 C-74.78701542 17.85750095 -74.22111698 17.59195408 -73.63807011 17.31836033 C-72.90459354 16.9651572 -72.17111698 16.61195408 -71.41541386 16.24804783 C-70.3190662 15.72597752 -70.3190662 15.72597752 -69.20057011 15.19336033 C-67.18958927 14.25455013 -67.18958927 14.25455013 -66.35291386 12.12304783 C-64.29358768 11.31689548 -64.29358768 11.31689548 -61.55994511 10.53711033 C-60.54738651 10.24787693 -59.53482792 9.95864353 -58.49158573 9.66064548 C-57.39394901 9.35948826 -56.29631229 9.05833103 -55.16541386 8.74804783 C-54.04586308 8.43786716 -52.92631229 8.1276865 -51.77283573 7.80810642 C-34.816961 3.22963771 -17.59677075 -0.04991415 0 0 Z " fill="#EDF4FF" transform="translate(226.35291385650635,-0.1230478286743164)"/>
<path d="M0 0 C-1 3 -1 3 -2.89160156 4.14404297 C-4.12861816 4.68762451 -4.12861816 4.68762451 -5.390625 5.2421875 C-6.78099976 5.87157227 -6.78099976 5.87157227 -8.19946289 6.51367188 C-9.20614014 6.96291016 -10.21281738 7.41214844 -11.25 7.875 C-32.22055371 17.58167935 -50.66598012 30.03519725 -67.5546875 45.7421875 C-69.65882391 47.68498437 -71.80582946 49.53616072 -74 51.375 C-84.83882547 60.87271319 -93.54109758 72.41160355 -102 84 C-102.4419873 84.60118652 -102.88397461 85.20237305 -103.33935547 85.82177734 C-113.96700132 100.44983343 -122.65832803 117.08965709 -129 134 C-129.66 133.67 -130.32 133.34 -131 133 C-132.32 135.64 -133.64 138.28 -135 141 C-136 139 -136 139 -134.76953125 135.23828125 C-134.12963292 133.591464 -133.47616898 131.94988218 -132.8125 130.3125 C-132.27979492 128.99282227 -132.27979492 128.99282227 -131.73632812 127.64648438 C-125.41233077 112.3982674 -117.78911839 97.33071 -108 84 C-107.28328125 83.01257813 -106.5665625 82.02515625 -105.828125 81.0078125 C-94.72014277 65.95458141 -82.61288812 50.82473911 -68 39 C-66.82873607 38.01775048 -65.65824473 37.03457938 -64.48828125 36.05078125 C-50.90025237 24.71234837 -36.66253268 15.44075965 -21.0625 7.10449219 C-19.17968621 6.09622401 -17.30824759 5.06946857 -15.4375 4.0390625 C-10.06130681 1.17623962 -6.13547682 -0.83665593 0 0 Z " fill="#C8DEFF" transform="translate(149,19)"/>
<path d="M0 0 C1.96646484 0.01353516 1.96646484 0.01353516 3.97265625 0.02734375 C4.95105469 0.03894531 5.92945313 0.05054688 6.9375 0.0625 C6.9375 0.3925 6.9375 0.7225 6.9375 1.0625 C2.9775 1.3925 -0.9825 1.7225 -5.0625 2.0625 C-2.0925 2.3925 0.8775 2.7225 3.9375 3.0625 C3.9375 3.3925 3.9375 3.7225 3.9375 4.0625 C3.01360474 4.10624756 3.01360474 4.10624756 2.07104492 4.15087891 C-20.24717482 5.31330758 -41.6103912 9.21793148 -62.61816406 16.96557617 C-63.41319336 17.25408447 -64.20822266 17.54259277 -65.02734375 17.83984375 C-65.7143335 18.10015381 -66.40132324 18.36046387 -67.10913086 18.62866211 C-69.41196721 19.1401157 -70.8448509 18.79386884 -73.0625 18.0625 C-72.49660156 17.79695313 -71.93070313 17.53140625 -71.34765625 17.2578125 C-70.61417969 16.90460937 -69.88070312 16.55140625 -69.125 16.1875 C-68.02865234 15.66542969 -68.02865234 15.66542969 -66.91015625 15.1328125 C-64.89917541 14.1940023 -64.89917541 14.1940023 -64.0625 12.0625 C-62.00317383 11.25634766 -62.00317383 11.25634766 -59.26953125 10.4765625 C-58.25697266 10.1873291 -57.24441406 9.8980957 -56.20117188 9.60009766 C-55.10353516 9.29894043 -54.00589844 8.9977832 -52.875 8.6875 C-51.75544922 8.37731934 -50.63589844 8.06713867 -49.48242188 7.74755859 C-33.40539613 3.40639893 -16.72021633 -0.15063258 0 0 Z " fill="#A7CBFF" transform="translate(224.0625,-0.0625)"/>
<path d="M0 0 C1.18259764 3.41639318 0.83181744 5.08331726 -0.5625 8.375 C-6.20908085 23.04042526 -9.65535341 38.49242518 -12 54 C-12.66 53.34 -13.32 52.68 -14 52 C-14.66 53.32 -15.32 54.64 -16 56 C-16.30154039 49.7796526 -15.17769431 44.17968952 -13.8125 38.125 C-13.58908936 37.11937012 -13.36567871 36.11374023 -13.13549805 35.07763672 C-11.69196115 28.71274475 -10.11789273 22.39708324 -8.3125 16.125 C-8.11052002 15.41230957 -7.90854004 14.69961914 -7.70043945 13.96533203 C-7.19780774 12.28961432 -6.60727135 10.64069803 -6 9 C-5.34 8.67 -4.68 8.34 -4 8 C-2.87775145 6.11986894 -2.87775145 6.11986894 -1.875 3.9375 C-1.52179687 3.20402344 -1.16859375 2.47054687 -0.8046875 1.71484375 C-0.53914063 1.14894531 -0.27359375 0.58304688 0 0 Z " fill="#DEEBFF" transform="translate(18,151)"/>
<path d="M0 0 C0.33 0.66 0.66 1.32 1 2 C0.06421005 4.35981813 -0.93347808 6.69631264 -2 9 C-1.34 9.33 -0.68 9.66 0 10 C-1.45444451 13.10600335 -2.91422352 16.20947021 -4.375 19.3125 C-4.7875 20.19357422 -5.2 21.07464844 -5.625 21.98242188 C-6.02460938 22.82998047 -6.42421875 23.67753906 -6.8359375 24.55078125 C-7.20251465 25.33106689 -7.5690918 26.11135254 -7.94677734 26.9152832 C-9 29 -9 29 -11 32 C-11.33 31.67 -11.66 31.34 -12 31 C-13.32 33.64 -14.64 36.28 -16 39 C-17 37 -17 37 -16.52197266 35.20678711 C-16.2388623 34.4875708 -15.95575195 33.76835449 -15.6640625 33.02734375 C-15.34566406 32.21749023 -15.02726563 31.40763672 -14.69921875 30.57324219 C-14.34472656 29.70344727 -13.99023438 28.83365234 -13.625 27.9375 C-13.26792969 27.05094727 -12.91085938 26.16439453 -12.54296875 25.25097656 C-8.94229299 16.51404274 -4.61049293 8.23912163 0 0 Z " fill="#8BBAFF" transform="translate(30,121)"/>
<path d="M0 0 C-1 3 -1 3 -3.17724609 4.36621094 C-4.11648926 4.81770508 -5.05573242 5.26919922 -6.0234375 5.734375 C-7.044375 6.22550781 -8.0653125 6.71664063 -9.1171875 7.22265625 C-10.19226563 7.72667969 -11.26734375 8.23070312 -12.375 8.75 C-13.44234375 9.26949219 -14.5096875 9.78898437 -15.609375 10.32421875 C-23.61865666 14.12711445 -23.61865666 14.12711445 -27 13 C-24.60490662 10.10067643 -22.68754757 9.49831724 -19 9 C-19 8.01 -19 7.02 -19 6 C-6.51480638 -0.88838269 -6.51480638 -0.88838269 0 0 Z " fill="#99C2FF" transform="translate(149,19)"/>
<path d="M0 0 C0.66 0.33 1.32 0.66 2 1 C1.50371094 1.4125 1.00742188 1.825 0.49609375 2.25 C-2.9734085 5.19940609 -6.24179676 8.14640572 -9.1875 11.625 C-12.48488729 15.49980995 -15.98460085 19.13627645 -19.5625 22.75 C-20.10479248 23.30510254 -20.64708496 23.86020508 -21.20581055 24.43212891 C-24.57164132 27.80663319 -27.94667924 30.48876969 -32 33 C-30.63499776 29.9772571 -29.06933564 27.77102908 -26.8046875 25.35546875 C-26.17046875 24.67806641 -25.53625 24.00066406 -24.8828125 23.30273438 C-24.22023438 22.60470703 -23.55765625 21.90667969 -22.875 21.1875 C-22.235625 20.50107422 -21.59625 19.81464844 -20.9375 19.10742188 C-16.53202557 14.43213425 -11.89917778 10.15088838 -7 6 C-5.66645298 4.85441537 -4.3331093 3.70859397 -3 2.5625 C-2.01 1.716875 -1.02 0.87125 0 0 Z " fill="#61A1FF" transform="translate(88,52)"/>
<path d="M0 0 C0.33 0.66 0.66 1.32 1 2 C-0.57390551 4.13258189 -2.15832395 6.25574593 -3.75 8.375 C-4.1934375 8.97828125 -4.636875 9.5815625 -5.09375 10.203125 C-8.46949568 14.6710237 -10.83379642 16.27793214 -16 18 C-14.53157262 13.52834826 -12.05507837 10.24145671 -9.0625 6.6875 C-8.61970703 6.13771484 -8.17691406 5.58792969 -7.72070312 5.02148438 C-6.55140925 3.61868025 -5.28091607 2.30167646 -4 1 C-3.01 1 -2.02 1 -1 1 C-0.67 0.67 -0.34 0.34 0 0 Z " fill="#92BFFF" transform="translate(59,84)"/>
<path d="M0 0 C0 0.66 0 1.32 0 2 C-2.31 2.66 -4.62 3.32 -7 4 C-7.10634766 5.15048828 -7.10634766 5.15048828 -7.21484375 6.32421875 C-8 9 -8 9 -10.06640625 10.58203125 C-10.89011719 10.98808594 -11.71382813 11.39414062 -12.5625 11.8125 C-13.80193359 12.44091797 -13.80193359 12.44091797 -15.06640625 13.08203125 C-15.70449219 13.38496094 -16.34257813 13.68789063 -17 14 C-17.66 12.68 -18.32 11.36 -19 10 C-16.91794343 8.70623653 -14.83442696 7.41493446 -12.75 6.125 C-12.16347656 5.76019531 -11.57695313 5.39539063 -10.97265625 5.01953125 C-2.85014205 0 -2.85014205 0 0 0 Z " fill="#A6CAFF" transform="translate(130,26)"/>
<path d="M0 0 C-2.45596893 2.87770097 -4.90889595 3.96687126 -8.4375 5.25 C-9.38496094 5.60578125 -10.33242187 5.9615625 -11.30859375 6.328125 C-14.05874071 7.01466386 -15.38003295 6.96622898 -18 6 C-4.29015544 -2.14507772 -4.29015544 -2.14507772 0 0 Z " fill="#F4F8FF" transform="translate(169,12)"/>
<path d="M0 0 C-0.33 0.99 -0.66 1.98 -1 3 C-5.39529916 4.98834962 -9.22037853 5.19118486 -14 5 C-13.67 4.34 -13.34 3.68 -13 3 C-12.34 3 -11.68 3 -11 3 C-11 2.34 -11 1.68 -11 1 C-7.32589215 -0.17571451 -3.83070817 -0.07366746 0 0 Z " fill="#CDE1FF" transform="translate(192,5)"/>
<path d="M0 0 C1.43410153 3.78819273 0.51009497 6.06521279 -0.9375 9.75 C-1.31777344 10.73484375 -1.69804687 11.7196875 -2.08984375 12.734375 C-2.39019531 13.48203125 -2.69054687 14.2296875 -3 15 C-3.99 15 -4.98 15 -6 15 C-6 13.02 -6 11.04 -6 9 C-5.34 8.67 -4.68 8.34 -4 8 C-2.87775145 6.11986894 -2.87775145 6.11986894 -1.875 3.9375 C-1.34519531 2.83728516 -1.34519531 2.83728516 -0.8046875 1.71484375 C-0.53914063 1.14894531 -0.27359375 0.58304688 0 0 Z " fill="#CADFFF" transform="translate(18,151)"/>
<path d="M0 0 C0 0.33 0 0.66 0 1 C-5.94 1.495 -5.94 1.495 -12 2 C-9.03 2.33 -6.06 2.66 -3 3 C-3 3.33 -3 3.66 -3 4 C-6.63 4 -10.26 4 -14 4 C-14 3.34 -14 2.68 -14 2 C-17.3 2 -20.6 2 -24 2 C-24 1.67 -24 1.34 -24 1 C-15.98340366 -0.12513633 -8.07861415 -0.09579384 0 0 Z " fill="#89B9FF" transform="translate(231,0)"/>
<path d="M0 0 C0.33 0 0.66 0 1 0 C1.02712153 1.916588 1.04645097 3.8332873 1.0625 5.75 C1.07410156 6.81734375 1.08570313 7.8846875 1.09765625 8.984375 C1.01510087 11.53368501 0.74617558 13.57933591 0 16 C-0.66 16 -1.32 16 -2 16 C-2.05449838 14.27119018 -2.09301688 12.54187288 -2.125 10.8125 C-2.14820313 9.84957031 -2.17140625 8.88664063 -2.1953125 7.89453125 C-1.9913544 4.87187222 -1.26874632 2.73230015 0 0 Z " fill="#F1F6FF" transform="translate(4,202)"/>
<path d="M0 0 C0.33 0 0.66 0 1 0 C1.144375 1.093125 1.28875 2.18625 1.4375 3.3125 C1.88288104 6.93122987 1.88288104 6.93122987 3 10 C2.72428861 12.00875442 2.39764263 14.01178687 2 16 C1.34 15.34 0.68 14.68 0 14 C-0.66 15.32 -1.32 16.64 -2 18 C-2.27560214 11.79895188 -1.22899346 6.06815522 0 0 Z " fill="#99C3FF" transform="translate(4,189)"/>
<path d="M0 0 C0.66 0.33 1.32 0.66 2 1 C0.8553125 2.0828125 0.8553125 2.0828125 -0.3125 3.1875 C-3.03207252 5.81409241 -3.03207252 5.81409241 -4.5625 8.6875 C-6.14018753 11.22551907 -7.24850696 11.95633023 -10 13 C-10 9 -10 9 -7.8125 6.5 C-5.26953762 4.239589 -2.69357502 2.07790073 0 0 Z " fill="#81B4FF" transform="translate(100,43)"/>
<path d="M0 0 C0.33 0 0.66 0 1 0 C1 3.63 1 7.26 1 11 C1.66 11 2.32 11 3 11 C3 15.29 3 19.58 3 24 C2.67 24 2.34 24 2 24 C1.67 20.37 1.34 16.74 1 13 C0.34 14.32 -0.32 15.64 -1 17 C-0.67 11.39 -0.34 5.78 0 0 Z " fill="#74ADFF" transform="translate(1,207)"/>
<path d="M0 0 C0.99 0.66 1.98 1.32 3 2 C3.3125 5 3.3125 5 3 8 C2.34 8.66 1.68 9.32 1 10 C0.67 9.67 0.34 9.34 0 9 C-0.66 10.65 -1.32 12.3 -2 14 C-3.25127906 10.45332822 -2.72285053 8.27746562 -1.5625 4.75 C-1.27503906 3.85796875 -0.98757812 2.9659375 -0.69140625 2.046875 C-0.46324219 1.37140625 -0.23507812 0.6959375 0 0 Z " fill="#93BFFF" transform="translate(11,163)"/>
<path d="M0 0 C0.33 0.66 0.66 1.32 1 2 C-0.09166436 3.6748823 -1.19873637 5.33973123 -2.3125 7 C-2.92738281 7.928125 -3.54226562 8.85625 -4.17578125 9.8125 C-4.77777344 10.534375 -5.37976562 11.25625 -6 12 C-6.99 12 -7.98 12 -9 12 C-7.60090738 7.54834166 -5.39864635 5.14374788 -2 2 C-1.34 1.34 -0.68 0.68 0 0 Z " fill="#EEF5FF" transform="translate(48,98)"/>
<path d="M0 0 C0.66 0.33 1.32 0.66 2 1 C0.72648692 4.82053924 -0.62637525 5.23021375 -4.0625 7.1875 C-4.98160156 7.71730469 -5.90070313 8.24710938 -6.84765625 8.79296875 C-7.55792969 9.19128906 -8.26820312 9.58960938 -9 10 C-7.75654995 6.26336979 -6.68920235 4.33559412 -3.375 2.1875 C-2.42753906 1.55908203 -2.42753906 1.55908203 -1.4609375 0.91796875 C-0.97882813 0.61503906 -0.49671875 0.31210937 0 0 Z " fill="#EEF5FF" transform="translate(111,37)"/>
<path d="M0 0 C0.89203125 0.00902344 1.7840625 0.01804688 2.703125 0.02734375 C3.37859375 0.03894531 4.0540625 0.05054687 4.75 0.0625 C4.75 0.7225 4.75 1.3825 4.75 2.0625 C-0.30002222 3.09840199 -5.12416389 3.16501672 -10.25 3.0625 C-9.25 1.0625 -9.25 1.0625 -7.515625 0.44140625 C-4.96855716 0.01543111 -2.58143831 -0.03396629 0 0 Z " fill="#F9FBFF" transform="translate(212.25,1.9375)"/>
<path d="M0 0 C0.33 0.66 0.66 1.32 1 2 C0.06421005 4.35981813 -0.93347808 6.69631264 -2 9 C-1.34 9.33 -0.68 9.66 0 10 C-0.66 10.66 -1.32 11.32 -2 12 C-2.99 12 -3.98 12 -5 12 C-5 12.99 -5 13.98 -5 15 C-5.66 15 -6.32 15 -7 15 C-5.45454854 9.52067211 -2.84456788 4.88570819 0 0 Z " fill="#65A4FF" transform="translate(30,121)"/>
<path d="M0 0 C1 3 1 3 0.22265625 5.04296875 C-0.16019531 5.75066406 -0.54304688 6.45835937 -0.9375 7.1875 C-1.31777344 7.90292969 -1.69804687 8.61835938 -2.08984375 9.35546875 C-2.54037109 10.16951172 -2.54037109 10.16951172 -3 11 C-3.99 11 -4.98 11 -6 11 C-5.34 8.69 -4.68 6.38 -4 4 C-3.34 4 -2.68 4 -2 4 C-2 3.01 -2 2.02 -2 1 C-1.34 0.67 -0.68 0.34 0 0 Z " fill="#EDF4FF" transform="translate(27,132)"/>
<path d="M0 0 C-1 3 -1 3 -4.375 4.75 C-8 6 -8 6 -11 5 C-9.92570402 4.15504811 -8.84010798 3.32445142 -7.75 2.5 C-7.14671875 2.0359375 -6.5434375 1.571875 -5.921875 1.09375 C-4 0 -4 0 0 0 Z " fill="#F1F7FF" transform="translate(149,19)"/>
<path d="M0 0 C-3.96 1.98 -3.96 1.98 -8 4 C-7.67 4.66 -7.34 5.32 -7 6 C-8.32 6.33 -9.64 6.66 -11 7 C-11 6.34 -11 5.68 -11 5 C-12.32 4.67 -13.64 4.34 -15 4 C-12.87875034 3.13656176 -10.75286928 2.28449352 -8.625 1.4375 C-6.84996094 0.72400391 -6.84996094 0.72400391 -5.0390625 -0.00390625 C-2 -1 -2 -1 0 0 Z " fill="#77AEFF" transform="translate(160,14)"/>
<path d="M0 0 C0.99 0.495 0.99 0.495 2 1 C1.01 1.495 1.01 1.495 0 2 C0 1.34 0 0.68 0 0 Z M0 2 C-1 5 -1 5 -2.875 6.25 C-5 7 -5 7 -8 6 C-5.29881977 3.17603885 -4.05589853 2 0 2 Z " fill="#F0F6FF" transform="translate(130,26)"/>
<path d="M0 0 C-0.66 0.474375 -1.32 0.94875 -2 1.4375 C-2.99 2.2109375 -2.99 2.2109375 -4 3 C-4 3.33 -4 3.66 -4 4 C-6.31 4.33 -8.62 4.66 -11 5 C-9.07089686 -0.78730941 -5.38986894 -0.20339128 0 0 Z " fill="#C3DBFF" transform="translate(207,2)"/>
<path d="M0 0 C0.99 0 1.98 0 3 0 C3.33 0.99 3.66 1.98 4 3 C0.04 4.98 0.04 4.98 -4 7 C-2.92598892 4.08482708 -2.22189824 2.22189824 0 0 Z " fill="#8ABAFF" transform="translate(47,95)"/>
<path d="M0 0 C-0.99 0.495 -0.99 0.495 -2 1 C-1.34 1.66 -0.68 2.32 0 3 C-1.98 3.33 -3.96 3.66 -6 4 C-6.33 3.34 -6.66 2.68 -7 2 C-9.02463255 1.34786708 -9.02463255 1.34786708 -11 1 C-3.57142857 -1.42857143 -3.57142857 -1.42857143 0 0 Z " fill="#8EBCFF" transform="translate(181,8)"/>
<path d="M0 0 C0.33 0 0.66 0 1 0 C0.67 2.64 0.34 5.28 0 8 C-0.99 8.33 -1.98 8.66 -3 9 C-2.5020163 5.26512223 -2.12508244 3.18762365 0 0 Z " fill="#F6FAFF" transform="translate(11,171)"/>
<path d="M0 0 C1.0326802 2.78823655 1.04509293 3.8677274 0.0625 6.75 C-0.288125 7.4925 -0.63875 8.235 -1 9 C-1.66 8.67 -2.32 8.34 -3 8 C-2.45276317 4.62537285 -1.9451 2.91765 0 0 Z " fill="#F7FAFF" transform="translate(18,151)"/>
<path d="M0 0 C0.66 0.33 1.32 0.66 2 1 C1.01 1.33 0.02 1.66 -1 2 C-2.22520264 5.00847418 -2.22520264 5.00847418 -3 8 C-3.99 7.01 -4.98 6.02 -6 5 C-2.25 1.125 -2.25 1.125 0 0 Z " fill="#6DA8FF" transform="translate(117,32)"/>
<path d="M0 0 C1.32 0.99 2.64 1.98 4 3 C3.34 4.32 2.68 5.64 2 7 C1.67 6.67 1.34 6.34 1 6 C0.34 6.66 -0.32 7.32 -1 8 C-0.67 5.36 -0.34 2.72 0 0 Z " fill="#9CC4FF" transform="translate(7,177)"/>
<path d="M0 0 C0.33 0.66 0.66 1.32 1 2 C-1.36292656 4.52588702 -2.66462511 5.88820837 -6 7 C-4.60667426 3.63279613 -3.0210714 2.0140476 0 0 Z " fill="#EAF2FF" transform="translate(54,90)"/>
</svg>
