<?xml version="1.0" encoding="UTF-8"?>
<svg version="1.1" xmlns="http://www.w3.org/2000/svg" width="1280" height="1280">
<path d="M0 0 C4.67950727 0.00109188 9.35900167 -0.00386915 14.03850609 -0.00860542 C25.12038232 -0.01959708 36.20222463 -0.02019844 47.28410363 -0.01409125 C58.55549255 -0.00807308 69.82675595 -0.02033187 81.09812349 -0.04166132 C90.91698742 -0.05952966 100.73581235 -0.06523949 110.55469185 -0.06202358 C116.35617483 -0.06024864 122.15756852 -0.06244986 127.95903611 -0.07673812 C222.05842806 -0.28858072 318.68185481 7.88281745 419.67253137 51.30158257 C420.5708468 51.70377007 421.46916223 52.10595757 422.39469934 52.52033257 C448.41294735 64.26294637 473.48194012 78.65962979 496.67253137 95.30158257 C497.79159875 96.10184869 497.79159875 96.10184869 498.93327355 96.91828179 C514.85500415 108.34986002 529.96865898 120.52260912 544.23649621 133.96271539 C546.4315812 136.00927202 548.67841001 137.99660616 550.92253137 139.98908257 C557.62797075 146.00984987 563.94719143 152.31515111 569.80925012 159.16095757 C571.96139914 161.63344744 574.19233856 164.02429615 576.42253137 166.42658257 C581.71328683 172.230381 586.54500679 178.33505202 591.32878137 184.55939507 C592.61048408 186.22113755 593.90471703 187.8721447 595.20378137 189.52033257 C610.96591148 209.60383564 624.35452703 231.26291335 636.32341027 253.78400445 C637.50367164 255.98647555 638.70956498 258.17050697 639.93425012 260.34845757 C682.92819975 337.60136019 696.14774518 427.91390181 702.07550788 576.08063912 C702.06767592 581.96182606 702.07501958 587.8430022 702.07966638 593.72419 C702.08505798 603.58302162 702.07810944 613.44178488 702.06364465 623.30060601 C702.04733123 634.54614234 702.05262449 645.79151523 702.06912386 657.03704762 C702.08293074 666.85699306 702.08456672 676.67689057 702.07680786 686.49684262 C702.0722346 692.28972364 702.07120739 698.08252907 702.08141732 703.8754046 C702.23524408 804.99076976 691.37075616 905.81713484 626.67253137 1040.30158257 C626.1570675 1041.17588922 625.64160363 1042.05019586 625.11051965 1042.95099664 C623.64173278 1045.42854765 622.16129241 1047.89848982 620.67253137 1050.36408257 C620.23997033 1051.08394341 619.8074093 1051.80380425 619.36174035 1052.54547906 C612.99451031 1062.92901922 612.99451031 1062.92901922 608.12175012 1065.80939507 C604.91616147 1067.76240124 603.52830124 1070.04075751 601.48503137 1073.17658257 C600.70273011 1074.35036539 599.9174777 1075.52218571 599.12956262 1076.69220757 C598.72689172 1077.29097711 598.32422082 1077.88974664 597.90934777 1078.5066607 C589.6347795 1090.51507482 580.10864575 1101.8042399 570.22721887 1112.50080132 C568.30283025 1114.61056683 566.43847672 1116.74267305 564.58268762 1118.91095757 C560.19512293 1123.93995484 555.48368155 1128.64060804 550.75724816 1133.34723687 C549.23761468 1134.86150837 547.72340619 1136.38105688 546.20964074 1137.90119195 C540.8700289 1143.24478475 535.44035949 1148.41776223 529.67253137 1153.30158257 C528.651038 1154.19014729 527.63016531 1155.07942624 526.61003137 1155.96955132 C518.24463366 1163.14465973 509.58239695 1169.81788691 500.67253137 1176.30158257 C499.56941613 1177.11151666 499.56941613 1177.11151666 498.44401574 1177.93781304 C475.89244772 1194.4278046 451.62363233 1207.84028521 426.67253137 1220.30158257 C425.82320031 1220.73019586 424.97386926 1221.15880914 424.0988009 1221.6004107 C356.79944374 1255.41022638 281.07978556 1268.72040684 206.61003137 1274.05158257 C205.36967629 1274.14046746 205.36967629 1274.14046746 204.10426354 1274.231148 C198.29627318 1274.6387569 192.48583062 1274.9796585 186.67253137 1275.30158257 C185.86933937 1275.34695594 185.06614738 1275.3923293 184.23861623 1275.43907762 C162.72864912 1276.60274246 141.19906862 1276.46615226 119.6652689 1276.46883965 C116.41596952 1276.46955883 113.16667416 1276.47170928 109.9173758 1276.47433686 C98.50494779 1276.48354584 87.09253133 1276.48767772 75.68009973 1276.48688531 C65.16768735 1276.48628701 54.65532668 1276.49680159 44.14292735 1276.51262897 C35.01660578 1276.52586254 25.89030077 1276.53106264 16.76396972 1276.5304299 C11.35835403 1276.53017932 5.95278434 1276.53277795 0.54717851 1276.54360795 C-33.92372939 1276.60789171 -68.30535926 1275.78159781 -102.63996863 1272.48908257 C-103.53739783 1272.40510217 -104.43482703 1272.32112176 -105.35945106 1272.23459649 C-191.99092059 1264.0777496 -276.69184037 1241.23240529 -409.74543738 1149.63752007 C-411.14390382 1148.37234166 -412.54850518 1147.11325357 -413.98396277 1145.89020562 C-419.868706 1140.85971157 -425.34097832 1135.44037264 -430.80036902 1129.95905328 C-432.3870681 1128.36699291 -433.97904605 1126.78035267 -435.57160926 1125.1941607 C-441.03354382 1119.73611431 -446.34054617 1114.20203789 -451.32746863 1108.30158257 C-452.21593944 1107.28000753 -453.10521546 1106.25913202 -453.99543738 1105.23908257 C-461.17054579 1096.87368487 -467.84377296 1088.21144815 -474.32746863 1079.30158257 C-474.86742469 1078.56617242 -475.40738074 1077.83076226 -475.9636991 1077.07306695 C-492.45369066 1054.52149893 -505.86617127 1030.25268354 -518.32746863 1005.30158257 C-518.75608191 1004.45225152 -519.1846952 1003.60292047 -519.62629676 1002.72785211 C-556.53467389 929.26072416 -568.74209916 846.48825315 -573.32746863 765.30158257 C-573.372842 764.53110683 -573.41821536 763.76063109 -573.46496367 762.9668076 C-574.67010364 741.81700667 -574.49208269 720.6372178 -574.4947257 699.46157718 C-574.49544464 696.21411021 -574.49759469 692.96664726 -574.50022292 689.7191813 C-574.50943596 678.3109361 -574.51356343 666.90270246 -574.51277137 655.49445367 C-574.51217359 644.99062246 -574.52267672 634.48684309 -574.53851503 623.98302495 C-574.5517592 614.86263703 -574.55694824 605.74226567 -574.55631596 596.62186825 C-574.5560656 591.22064521 -574.55865109 585.81946823 -574.56949401 580.41825509 C-574.63499901 545.35814243 -574.0004878 510.27755154 -570.51496863 475.36408257 C-570.43098823 474.49532495 -570.34700782 473.62656732 -570.26048255 472.7314837 C-563.29999039 400.99050828 -546.79872042 331.97421204 -514.32746863 267.30158257 C-513.86340613 266.37619683 -513.39934363 265.45081109 -512.92121863 264.49738336 C-499.06070259 237.04706447 -482.43828916 211.39041065 -463.32746863 187.30158257 C-462.90240027 186.76468804 -462.47733191 186.22779351 -462.0393827 185.67462945 C-457.44315027 179.89672169 -452.64450782 174.33229019 -447.66340613 168.88361382 C-446.4020638 167.4893876 -445.14654196 166.0892713 -443.92707801 164.65827203 C-438.80476086 158.6669348 -433.29302387 153.08100588 -427.72248816 147.51129937 C-426.08919415 145.87582375 -424.46408393 144.2325055 -422.83918738 142.58869195 C-416.31167289 136.02661581 -409.58062955 130.06245565 -402.32746863 124.30158257 C-401.23738855 123.3785018 -400.15276379 122.44887604 -399.07746863 121.50861382 C-372.12572808 98.040692 -341.19768188 79.54480553 -309.42903113 63.42267632 C-307.39424557 62.38413459 -305.36035967 61.34382788 -303.32746863 60.30158257 C-301.8845243 59.56512506 -301.8845243 59.56512506 -300.41242957 58.81378961 C-295.89001452 56.43791161 -291.82752187 54.01427202 -287.88606238 50.75470757 C-282.83613364 46.68438235 -277.39706913 44.40251785 -271.38996863 42.05158257 C-270.22393104 41.58832574 -269.05789344 41.1250689 -267.85652137 40.64777398 C-190.20602101 10.39963189 -105.70925151 0.37718444 0 0 Z " fill="#FEFEFE" transform="translate(578.3274686336517,-0.30158257484436035)"/>
<path d="M0 0 C0.66 0.33 1.32 0.66 2 1 C1.3702124 1.62455078 0.7404248 2.24910156 0.09155273 2.89257812 C-2.27935645 5.24628314 -4.647874 7.60234573 -7.01489258 9.95996094 C-8.03317292 10.97326152 -9.05235474 11.98565712 -10.07250977 12.99707031 C-15.93903016 18.81463104 -21.66111511 24.68680168 -27 31 C-27.88848636 32.02156152 -28.77776066 33.04243848 -29.66796875 34.0625 C-36.26723191 41.75652464 -42.4414519 49.69778793 -48.43652344 57.87011719 C-49.4883727 59.30302364 -50.54378003 60.73332432 -51.60253906 62.16113281 C-64.34256976 79.34446947 -75.52588239 97.3596212 -86 116 C-86.50112305 116.88719727 -87.00224609 117.77439453 -87.51855469 118.68847656 C-105.33229746 150.37585078 -119.29535626 183.59139505 -131.4375 217.8125 C-131.68316711 218.50267212 -131.92883423 219.19284424 -132.1819458 219.90393066 C-150.85987476 272.57685739 -161.24015249 327.66639145 -168 383 C-168.11813049 383.95680664 -168.23626099 384.91361328 -168.35797119 385.89941406 C-172.00615086 415.83454017 -172.34480227 445.69924829 -172.3125 475.8125 C-172.31157726 476.73766167 -172.31065453 477.66282333 -172.30970383 478.6160202 C-172.30107779 484.87563626 -172.27469648 491.13502039 -172.23828125 497.39453125 C-172.23466457 498.19509886 -172.2310479 498.99566647 -172.22732162 499.8204937 C-172.11089126 522.65919065 -170.43102058 545.2997416 -168 568 C-167.92092407 568.73968018 -167.84184814 569.47936035 -167.76037598 570.24145508 C-163.01436397 614.17474402 -155.08982433 658.39550867 -141.76049805 700.5793457 C-140.86907665 703.41672714 -140.00166644 706.26109701 -139.1328125 709.10546875 C-128.99358909 742.04660475 -116.91451743 773.90164452 -102 805 C-101.29907227 806.46759766 -101.29907227 806.46759766 -100.58398438 807.96484375 C-93.14865922 823.43917404 -84.8700073 838.30548146 -76 853 C-75.54915039 853.75216797 -75.09830078 854.50433594 -74.63378906 855.27929688 C-69.1305651 864.42985662 -63.13635906 873.18212871 -56.98291016 881.90649414 C-44.65860879 899.38549156 -37.38174948 913.87547274 -37.625 935.8125 C-37.62998505 936.47529968 -37.63497009 937.13809937 -37.6401062 937.82098389 C-37.72623112 947.5862242 -38.09960657 956.62310081 -41 966 C-41.2151123 966.71639648 -41.43022461 967.43279297 -41.65185547 968.17089844 C-47.58402164 987.57427698 -56.23770381 1006.43547138 -68 1023 C-68.71671875 1024.01964844 -69.4334375 1025.03929687 -70.171875 1026.08984375 C-74.88285897 1032.57997593 -80.02758873 1038.48380623 -85.51953125 1044.30859375 C-90.2051077 1048.91345648 -90.2051077 1048.91345648 -92.25 1054.8125 C-92.1675 1055.534375 -92.085 1056.25625 -92 1057 C-85.80460769 1060.87212019 -77.35912345 1060.16696503 -70.2890625 1060.203125 C-69.37210602 1060.21018463 -68.45514954 1060.21724426 -67.51040649 1060.22451782 C-47.8015192 1060.34159867 -28.48487782 1060.2720708 -9 1057 C-7.06858154 1056.68603271 -7.06858154 1056.68603271 -5.09814453 1056.36572266 C29.32715848 1050.72655529 63.81350141 1042.20944202 95.1784668 1026.50268555 C99.35493894 1024.45966579 101.54156885 1023.72360119 106 1025 C108.20288086 1025.99291992 108.20288086 1025.99291992 110.46484375 1027.23046875 C111.33093262 1027.69638428 112.19702148 1028.1622998 113.08935547 1028.64233398 C114.02924316 1029.15223877 114.96913086 1029.66214355 115.9375 1030.1875 C155.43310288 1051.12656942 197.75795735 1068.46694186 241 1080 C241.9182959 1080.24637207 242.8365918 1080.49274414 243.78271484 1080.74658203 C250.59284762 1082.56355532 257.41683194 1084.32160673 264.25 1086.04980469 C266.75124488 1086.68358366 269.2512532 1087.32226287 271.75 1087.96582031 C311.48703888 1098.17490074 351.77227818 1104.87517801 392.5625 1109.125 C393.69575211 1109.24615173 393.69575211 1109.24615173 394.85189819 1109.36975098 C426.0446557 1112.66774609 457.34602709 1113.41059475 488.6875 1113.375 C489.56864849 1113.3749081 490.44979698 1113.37481621 491.35764694 1113.37472153 C542.35906733 1113.36788519 593.52710394 1110.67864711 643.77099609 1101.41085815 C646.09260722 1100.9829303 648.41534777 1100.56155579 650.73828125 1100.14086914 C669.20390792 1096.78320066 687.63263184 1093.30466989 705.875 1088.875 C707.73898437 1088.4250769 707.73898437 1088.4250769 709.640625 1087.96606445 C745.30705121 1079.09461129 781.20524785 1067.43629725 815 1053 C816.15064941 1052.50854492 817.30129883 1052.01708984 818.48681641 1051.51074219 C843.28481576 1040.82096221 867.67114255 1029.15455844 890.81762695 1015.21508789 C891.73890381 1014.66071045 892.66018066 1014.10633301 893.609375 1013.53515625 C894.41342773 1013.044104 895.21748047 1012.55305176 896.04589844 1012.04711914 C898 1011 898 1011 900 1011 C898.66898595 1014.72321416 897.02769602 1017.56566767 894.62109375 1020.6953125 C893.6168335 1022.00846436 893.6168335 1022.00846436 892.59228516 1023.34814453 C891.5256665 1024.72268799 891.5256665 1024.72268799 890.4375 1026.125 C889.71095215 1027.06843262 888.9844043 1028.01186523 888.23583984 1028.98388672 C880.98980899 1038.36405582 873.60285418 1047.48714606 865.5546875 1056.19921875 C863.63029888 1058.30898425 861.76594535 1060.44109047 859.91015625 1062.609375 C855.52259156 1067.63837227 850.81115019 1072.33902546 846.0847168 1077.0456543 C844.56508332 1078.5599258 843.05087483 1080.0794743 841.53710938 1081.59960938 C836.19749753 1086.94320218 830.76782813 1092.11617965 825 1097 C823.97850664 1097.88856472 822.95763395 1098.77784366 821.9375 1099.66796875 C813.57210229 1106.84307715 804.90986558 1113.51630433 796 1120 C794.89688477 1120.80993408 794.89688477 1120.80993408 793.77148438 1121.63623047 C771.21991635 1138.12622203 746.95110097 1151.53870263 722 1164 C721.15066895 1164.42861328 720.30133789 1164.85722656 719.42626953 1165.29882812 C652.12691237 1199.10864381 576.40725419 1212.41882426 501.9375 1217.75 C500.69714493 1217.83888489 500.69714493 1217.83888489 499.43173218 1217.92956543 C493.62374181 1218.33717433 487.81329925 1218.67807592 482 1219 C481.196808 1219.04537336 480.39361601 1219.09074673 479.56608486 1219.13749504 C458.05611776 1220.30115989 436.52653726 1220.16456969 414.99273753 1220.16725707 C411.74343816 1220.16797625 408.4941428 1220.1701267 405.24484444 1220.17275429 C393.83241643 1220.18196327 382.41999996 1220.18609514 371.00756836 1220.18530273 C360.49515598 1220.18470444 349.98279532 1220.19521901 339.47039598 1220.2110464 C330.34407441 1220.22427997 321.2177694 1220.22948006 312.09143835 1220.22884732 C306.68582266 1220.22859675 301.28025297 1220.23119538 295.87464714 1220.24202538 C261.40373924 1220.30630913 227.02210937 1219.48001523 192.6875 1216.1875 C191.7900708 1216.10351959 190.8926416 1216.01953918 189.96801758 1215.93301392 C103.33654804 1207.77616702 18.63562827 1184.93082272 -114.41796875 1093.3359375 C-115.81643519 1092.07075909 -117.22103655 1090.811671 -118.65649414 1089.58862305 C-124.54123737 1084.558129 -130.01350968 1079.13879006 -135.47290039 1073.6574707 C-137.05959946 1072.06541034 -138.65157742 1070.4787701 -140.24414062 1068.89257812 C-145.70607519 1063.43453174 -151.01307754 1057.90045531 -156 1052 C-156.8884708 1050.97842495 -157.77774682 1049.95754944 -158.66796875 1048.9375 C-165.84307715 1040.57210229 -172.51630433 1031.90986558 -179 1023 C-179.53995605 1022.26458984 -180.07991211 1021.52917969 -180.63623047 1020.77148438 C-197.12622203 998.21991635 -210.53870263 973.95110097 -223 949 C-223.42861328 948.15066895 -223.85722656 947.30133789 -224.29882812 946.42626953 C-261.20720525 872.95914158 -273.41463053 790.18667058 -278 709 C-278.04537336 708.22952426 -278.09074673 707.45904852 -278.13749504 706.66522503 C-279.34263501 685.51542409 -279.16461405 664.33563523 -279.16725707 643.1599946 C-279.16797601 639.91252763 -279.17012606 636.66506468 -279.17275429 633.41759872 C-279.18196733 622.00935353 -279.1860948 610.60111989 -279.18530273 599.19287109 C-279.18470496 588.68903988 -279.19520808 578.18526052 -279.2110464 567.68144238 C-279.22429057 558.56105445 -279.22947961 549.4406831 -279.22884732 540.32028568 C-279.22859697 534.91906264 -279.23118246 529.51788566 -279.24202538 524.11667252 C-279.30753038 489.05655985 -278.67301916 453.97596896 -275.1875 419.0625 C-275.10351959 418.19374237 -275.01953918 417.32498474 -274.93301392 416.42990112 C-267.97252176 344.68892571 -251.47125178 275.67262946 -219 211 C-218.5359375 210.07461426 -218.071875 209.14922852 -217.59375 208.19580078 C-203.73323395 180.74548189 -187.11082053 155.08882807 -168 131 C-167.57493164 130.46310547 -167.14986328 129.92621094 -166.71191406 129.37304688 C-162.11568163 123.59513912 -157.31703919 118.03070762 -152.3359375 112.58203125 C-151.07459517 111.18780503 -149.81907332 109.78768873 -148.59960938 108.35668945 C-143.47729223 102.36535222 -137.96555524 96.77942331 -132.39501953 91.2097168 C-130.76172552 89.57424118 -129.1366153 87.93092292 -127.51171875 86.28710938 C-120.98420426 79.72503323 -114.25316092 73.76087308 -107 68 C-105.90991991 67.07691922 -104.82529516 66.14729347 -103.75 65.20703125 C-75.85526242 40.91800549 -43.72342543 21.95314791 -10.78076172 5.40478516 C-9.01877206 4.51466325 -7.26408748 3.60980263 -5.52001953 2.68505859 C-3.70892154 1.73289896 -1.8582549 0.85648855 0 0 Z " fill="#0068FE" transform="translate(283,56)"/>
<path d="M0 0 C-1.33101405 3.72321416 -2.97230398 6.56566767 -5.37890625 9.6953125 C-6.04841309 10.57074707 -6.71791992 11.44618164 -7.40771484 12.34814453 C-8.4743335 13.72268799 -8.4743335 13.72268799 -9.5625 15.125 C-10.28904785 16.06843262 -11.0155957 17.01186523 -11.76416016 17.98388672 C-19.01019101 27.36405582 -26.39714582 36.48714606 -34.4453125 45.19921875 C-36.36970112 47.30898425 -38.23405465 49.44109047 -40.08984375 51.609375 C-44.47740844 56.63837227 -49.18884981 61.33902546 -53.9152832 66.0456543 C-55.43491668 67.5599258 -56.94912517 69.0794743 -58.46289062 70.59960938 C-63.80250247 75.94320218 -69.23217187 81.11617965 -75 86 C-76.02149336 86.88856472 -77.04236605 87.77784366 -78.0625 88.66796875 C-86.42789771 95.84307715 -95.09013442 102.51630433 -104 109 C-104.73541016 109.53995605 -105.47082031 110.07991211 -106.22851562 110.63623047 C-128.78008365 127.12622203 -153.04889903 140.53870263 -178 153 C-178.84933105 153.42861328 -179.69866211 153.85722656 -180.57373047 154.29882812 C-247.87308763 188.10864381 -323.59274581 201.41882426 -398.0625 206.75 C-398.88940338 206.80925659 -399.71630676 206.86851318 -400.56826782 206.92956543 C-406.37625819 207.33717433 -412.18670075 207.67807592 -418 208 C-418.803192 208.04537336 -419.60638399 208.09074673 -420.43391514 208.13749504 C-441.94388224 209.30115989 -463.47346274 209.16456969 -485.00726247 209.16725707 C-488.25656184 209.16797625 -491.5058572 209.1701267 -494.75515556 209.17275429 C-506.16758357 209.18196327 -517.58000004 209.18609514 -528.99243164 209.18530273 C-539.50484402 209.18470444 -550.01720468 209.19521901 -560.52960402 209.2110464 C-569.65592559 209.22427997 -578.7822306 209.22948006 -587.90856165 209.22884732 C-593.31417734 209.22859675 -598.71974703 209.23119538 -604.12535286 209.24202538 C-638.59626076 209.30630913 -672.97789063 208.48001523 -707.3125 205.1875 C-708.2099292 205.10351959 -709.1073584 205.01953918 -710.03198242 204.93301392 C-762.67345456 199.97651911 -814.15348838 189.80780828 -864 172 C-864.93295898 171.67257812 -865.86591797 171.34515625 -866.82714844 171.0078125 C-869.21016359 170.16067912 -871.57566032 169.27923958 -873.9375 168.375 C-875.16339844 167.90835937 -876.38929688 167.44171875 -877.65234375 166.9609375 C-881.31155993 164.81749932 -883.30892165 162.61919755 -885.97094727 159.38134766 C-888.33749376 156.60390878 -890.87695516 154.03276044 -893.46875 151.46875 C-893.95690689 150.98403229 -894.44506378 150.49931458 -894.94801331 149.99990845 C-896.46325141 148.49780775 -897.98117042 146.99846863 -899.5 145.5 C-910.69008045 134.45993021 -910.69008045 134.45993021 -914.375 130.125 C-919.69784614 123.89477793 -925.6773982 118.25702141 -931.5 112.5 C-944.8446783 99.30562379 -944.8446783 99.30562379 -950.10351562 93.11914062 C-954.81940518 87.8495833 -959.9719123 82.96909896 -965 78 C-978.18978235 64.96495811 -978.18978235 64.96495811 -983.52392578 58.69433594 C-986.30230657 55.5051261 -989.37703918 52.61814682 -992.43164062 49.6953125 C-993.65679491 48.49904535 -994.83322875 47.25327689 -996 46 C-996 45.34 -996 44.68 -996 44 C-992 46 -992 46 -990.25 47.0625 C-984.14244038 49.60731651 -976.81099945 49.16976842 -970.2890625 49.203125 C-969.37210602 49.21018463 -968.45514954 49.21724426 -967.51040649 49.22451782 C-947.8015192 49.34159867 -928.48487782 49.2720708 -909 46 C-907.7123877 45.79068848 -906.42477539 45.58137695 -905.09814453 45.36572266 C-870.67284152 39.72655529 -836.18649859 31.20944202 -804.8215332 15.50268555 C-800.64506106 13.45966579 -798.45843115 12.72360119 -794 14 C-791.79711914 14.99291992 -791.79711914 14.99291992 -789.53515625 16.23046875 C-788.23602295 16.92934204 -788.23602295 16.92934204 -786.91064453 17.64233398 C-785.50081299 18.40719116 -785.50081299 18.40719116 -784.0625 19.1875 C-744.56689712 40.12656942 -702.24204265 57.46694186 -659 69 C-658.0817041 69.24637207 -657.1634082 69.49274414 -656.21728516 69.74658203 C-649.40715238 71.56355532 -642.58316806 73.32160673 -635.75 75.04980469 C-633.24875512 75.68358366 -630.7487468 76.32226287 -628.25 76.96582031 C-588.51296112 87.17490074 -548.22772182 93.87517801 -507.4375 98.125 C-506.30424789 98.24615173 -506.30424789 98.24615173 -505.14810181 98.36975098 C-473.9553443 101.66774609 -442.65397291 102.41059475 -411.3125 102.375 C-410.43135151 102.3749081 -409.55020302 102.37481621 -408.64235306 102.37472153 C-357.64093267 102.36788519 -306.47289606 99.67864711 -256.22900391 90.41085815 C-253.90739278 89.9829303 -251.58465223 89.56155579 -249.26171875 89.14086914 C-230.79609208 85.78320066 -212.36736816 82.30466989 -194.125 77.875 C-192.88234375 77.57505127 -191.6396875 77.27510254 -190.359375 76.96606445 C-154.69294879 68.09461129 -118.79475215 56.43629725 -85 42 C-83.27402588 41.26281738 -83.27402588 41.26281738 -81.51318359 40.51074219 C-56.71518424 29.82096221 -32.32885745 18.15455844 -9.18237305 4.21508789 C-8.26109619 3.66071045 -7.33981934 3.10633301 -6.390625 2.53515625 C-5.58657227 2.044104 -4.78251953 1.55305176 -3.95410156 1.04711914 C-2 0 -2 0 0 0 Z " fill="#005FE7" transform="translate(1183,1067)"/>
<path d="M0 0 C0 -5.28 0 -10.56 0 -16 C16.5 -16 33 -16 50 -16 C50 61.22 50 138.44 50 218 C12.54385965 218 12.54385965 218 5.9765625 212.21875 C5.53054688 211.6515625 5.08453125 211.084375 4.625 210.5 C4.16351562 209.9328125 3.70203125 209.365625 3.2265625 208.78125 C0.57814471 204.93514009 -0.36672713 201.64400105 -1 197 C-1.825 197.56847656 -2.65 198.13695312 -3.5 198.72265625 C-15.02435301 206.4923007 -27.3917469 212.7894738 -41 216 C-42.01175293 216.24943359 -42.01175293 216.24943359 -43.04394531 216.50390625 C-76.31721228 224.55820532 -109.09510322 218.80167901 -138.28515625 200.99609375 C-140.96808726 199.10342224 -143.48338932 197.10851165 -146 195 C-147.13775159 194.08560238 -148.27579227 193.17156441 -149.4140625 192.2578125 C-168.18566873 176.93735218 -180.45235127 157.70365832 -188.25 134.875 C-188.49645264 134.15924805 -188.74290527 133.44349609 -188.99682617 132.70605469 C-192.45192586 122.1819142 -193.34959284 111.90739358 -193.31567383 100.89501953 C-193.31252475 98.76672518 -193.33602258 96.63984147 -193.36132812 94.51171875 C-193.48568656 67.57945626 -183.342831 41.54368907 -166 21 C-164.75476563 19.51113281 -164.75476563 19.51113281 -163.484375 17.9921875 C-143.83465234 -4.78999419 -114.38265615 -20.56519591 -84.20410156 -22.86669922 C-53.7210335 -24.71026979 -25.14048542 -17.77172245 0 0 Z " fill="#0168FF" transform="translate(733,527)"/>
<path d="M0 0 C24.82672809 21.45000811 40.78264097 50.46416489 43.56103516 83.40234375 C45.77200079 115.91428628 35.85888307 147.82915977 14.96728516 172.91552734 C-6.66264731 197.30514085 -36.63473615 214.60416304 -69.72949219 216.61816406 C-102.98163243 217.91420443 -134.94302248 208.66897032 -159.73583984 185.84521484 C-161.60717209 184.07027992 -163.45267623 182.27212939 -165.29833984 180.47021484 C-166.01376953 179.81666016 -166.72919922 179.16310547 -167.46630859 178.48974609 C-186.9542703 160.24652445 -200.20211219 130.67650864 -201.40625 104.08740234 C-201.66555371 92.77079816 -201.63503362 81.58795785 -199.29833984 70.47021484 C-199.15299805 69.76896484 -199.00765625 69.06771484 -198.85791016 68.34521484 C-192.17590448 37.18919638 -173.67397063 9.34512755 -146.92333984 -8.28759766 C-100.75814875 -37.35740066 -42.4252871 -35.36895078 0 0 Z " fill="#0168FF" transform="translate(1115.29833984375,530.52978515625)"/>
<path d="M0 0 C82.17 0 164.34 0 249 0 C249 24.6119532 245.75950571 38.83895647 230.47265625 57.03515625 C227.83049885 60.20324071 225.28455126 63.43341907 222.75 66.6875 C218.72478033 71.8401226 214.63431557 76.93454875 210.5 82 C205.99071155 87.52540087 201.54727215 93.09516219 197.15966797 98.7175293 C193.70625289 103.13105599 190.17503854 107.47649846 186.625 111.8125 C182.15826178 117.27287441 177.81931705 122.81214341 173.5625 128.4375 C168.56347568 135.039785 163.38366203 141.46384358 158.09228516 147.83349609 C154.01482228 152.74712856 150.03731328 157.72624865 146.11279297 162.76245117 C142.63101503 167.22129111 139.07722015 171.61747278 135.5 176 C129.57524488 183.26324958 123.76729994 190.61143858 118 198 C111.69256755 206.08053205 105.3175703 214.0964614 98.83642578 222.03857422 C94.89493525 226.87644163 91.02387162 231.76426716 87.18603516 236.68457031 C82.92079742 242.13745749 78.54684969 247.50020773 74.15039062 252.84765625 C73.36051758 253.81251953 73.36051758 253.81251953 72.5546875 254.796875 C72.08530762 255.36760742 71.61592773 255.93833984 71.13232422 256.52636719 C69.91144939 258.01847562 69.91144939 258.01847562 69 260 C128.73 260 188.46 260 250 260 C250 293 250 293 245 303 C242.5033594 305.13997766 240.81152164 306.57041273 238 308 C237.33651204 308.34437544 236.67302408 308.68875088 235.98943043 309.04356194 C231.7455598 310.40134547 227.75499627 310.26870044 223.32536316 310.24050903 C221.85500145 310.24307231 221.85500145 310.24307231 220.35493547 310.24568737 C217.06752279 310.24898385 213.78031383 310.23797581 210.49291992 310.22705078 C208.1375326 310.2264867 205.78214493 310.22680316 203.42675781 310.22793579 C197.0284669 310.22851043 190.63025074 310.21673802 184.23197722 310.20278788 C178.22400009 310.19061042 172.216014 310.18954216 166.20802668 310.18748413 C154.30899912 310.18310821 142.409999 310.1698019 130.51098633 310.15087891 C118.95304502 310.13251744 107.39511116 310.11836224 95.8371582 310.10986328 C95.12457988 310.10933783 94.41200155 310.10881239 93.67782994 310.10827102 C90.10299013 310.10566092 86.52815027 310.10313351 82.95331037 310.10064721 C53.30218872 310.07991792 23.65109567 310.04454639 -6 310 C-6.11765973 305.72940439 -6.18773631 301.45923403 -6.25 297.1875 C-6.28351563 295.99189453 -6.31703125 294.79628906 -6.3515625 293.56445312 C-6.5480286 275.53868852 2.50174419 263.6004244 13.8984375 250.59375 C16.84515919 247.21459919 19.62990364 243.73130798 22.375 240.1875 C26.49229322 234.88021594 30.71381883 229.67183727 35 224.5 C39.23655903 219.38535319 43.42087055 214.24113665 47.5 209 C52.1597874 203.01279542 56.96932515 197.15906531 61.80859375 191.31640625 C65.43700927 186.92578528 69.00170424 182.49484293 72.5 178 C77.1597874 172.01279542 81.96932515 166.15906531 86.80859375 160.31640625 C90.43700927 155.92578528 94.00170424 151.49484293 97.5 147 C102.1597874 141.01279542 106.96932515 135.15906531 111.80859375 129.31640625 C115.43701066 124.9257836 119.00165771 120.49480832 122.5 116 C127.23133321 109.92202265 132.10880475 103.97277719 137.01733398 98.03735352 C140.68151881 93.6056944 144.30740453 89.14831769 147.8828125 84.64453125 C149.5946773 82.50627946 151.31970159 80.38114378 153.0546875 78.26171875 C153.61148193 77.58052979 154.16827637 76.89934082 154.74194336 76.19750977 C155.82410856 74.87475953 156.90807369 73.55347841 157.99438477 72.23413086 C162.86098213 66.27982202 167.37038071 60.17282573 172 54 C115.24 54 58.48 54 0 54 C0 36.18 0 18.36 0 0 Z " fill="#0169FF" transform="translate(277,435)"/>
<path d="M0 0 C17.82 0 35.64 0 54 0 C54 102.3 54 204.6 54 310 C11.2575406 310 11.2575406 310 6.171875 305.31640625 C5.46804688 304.44822266 5.46804688 304.44822266 4.75 303.5625 C4.27046875 302.98628906 3.7909375 302.41007812 3.296875 301.81640625 C0.66509461 298.13032829 -0.24994656 295.43683176 -0.24609566 290.88506699 C-0.25007775 289.8460177 -0.25405985 288.80696842 -0.25816262 287.73643279 C-0.24942409 286.0263288 -0.24942409 286.0263288 -0.24050903 284.28167725 C-0.24221788 283.06952805 -0.24392673 281.85737885 -0.24568737 280.60849786 C-0.24841504 277.24258281 -0.24215322 273.8768996 -0.23213124 270.51101255 C-0.22350336 266.88187379 -0.22641643 263.25274233 -0.22793579 259.62359619 C-0.22898506 253.33540903 -0.22270407 247.04726334 -0.21146011 240.75908661 C-0.19521378 231.66741762 -0.189998 222.57576871 -0.18748413 213.48408678 C-0.18310567 198.73384596 -0.16979246 183.98362725 -0.15087891 169.23339844 C-0.13252403 154.90397248 -0.1183656 140.57455253 -0.10986328 126.24511719 C-0.10933783 125.36201739 -0.10881239 124.47891759 -0.10827102 123.5690572 C-0.10566096 119.13885468 -0.10313354 114.70865212 -0.10064721 110.27844954 C-0.07991 73.51895012 -0.04413035 36.75947823 0 0 Z " fill="#0369FF" transform="translate(825,435)"/>
<path d="M0 0 C13.69459058 12.00846982 23.93816158 29.01818719 25.31689453 47.36621094 C26.55116055 69.66038265 21.37470445 88.08150828 6.484375 105.3203125 C-6.44879565 118.98150931 -25.06663752 127.5470476 -43.87866211 128.28125 C-63.34823028 128.53123543 -80.5521788 122.13505497 -95.3125 109.3515625 C-110.53151728 94.27174355 -118.02101438 76.2023687 -118.25 54.875 C-118.3276289 35.30630586 -111.31815706 19.15044723 -97.875 4.8125 C-70.53369341 -21.58747835 -29.90569335 -22.8172471 0 0 Z " fill="#FDFEFF" transform="translate(1082.875,569.1875)"/>
<path d="M0 0 C0.97066406 0.35191406 1.94132813 0.70382812 2.94140625 1.06640625 C22.80789431 8.75420431 36.65087072 22.28779324 45.5234375 41.5625 C52.25509189 57.23407635 52.60212818 76.51181511 46.4765625 92.4921875 C45.98929688 93.64976562 45.50203125 94.80734375 45 96 C44.55398438 97.07507813 44.10796875 98.15015625 43.6484375 99.2578125 C35.62242133 116.78950145 20.83619825 129.22519543 3 136 C-15.59814245 142.04873411 -34.21167685 141.45142782 -52.1953125 133.4375 C-56.83013282 131.06199321 -60.92433344 128.23174845 -65 125 C-65.83402344 124.34257813 -66.66804687 123.68515625 -67.52734375 123.0078125 C-77.9028682 114.27894293 -84.36602259 103.65503872 -89 91 C-89.35191406 90.1853125 -89.70382812 89.370625 -90.06640625 88.53125 C-94.59803982 76.24464517 -94.07677756 57.15966648 -89.37890625 44.96484375 C-88.92386719 43.98644531 -88.46882812 43.00804687 -88 42 C-87.73687012 41.41105957 -87.47374023 40.82211914 -87.20263672 40.21533203 C-78.91215075 21.96875595 -64.70161497 8.54313349 -46 1 C-31.31303664 -4.06338565 -14.75373139 -5.66052252 0 0 Z " fill="#FDFEFF" transform="translate(682,557)"/>
</svg>
